BabelStoneHan-merged.ttf.ufo
<glyph name="uni3B66" format="2">
  <advance width="1024"/>
  <unicode hex="3B66"/>
  <outline>
    <contour>
      <point x="888" y="699"/>
      <point x="892" y="705" type="qcurve"/>
      <point x="920" y="735" type="line"/>
      <point x="923" y="739"/>
      <point x="927" y="739" type="qcurve"/>
      <point x="938" y="739"/>
      <point x="983" y="679" type="qcurve"/>
      <point x="991" y="667"/>
      <point x="976" y="666" type="qcurve"/>
      <point x="965" y="665"/>
      <point x="956" y="662" type="qcurve"/>
      <point x="919" y="658"/>
      <point x="864" y="562" type="qcurve"/>
      <point x="858" y="549"/>
      <point x="848" y="553" type="qcurve"/>
      <point x="838" y="558"/>
      <point x="845" y="574" type="qcurve"/>
      <point x="861" y="625"/>
      <point x="874" y="668" type="qcurve"/>
      <point x="495" y="668" type="line"/>
      <point x="494" y="600"/>
      <point x="463" y="561" type="qcurve"/>
      <point x="447" y="545"/>
      <point x="434" y="545" type="qcurve"/>
      <point x="419" y="547"/>
      <point x="412" y="554" type="qcurve"/>
      <point x="391" y="577"/>
      <point x="419" y="604" type="qcurve"/>
      <point x="466" y="646"/>
      <point x="472" y="739" type="qcurve"/>
      <point x="472" y="749"/>
      <point x="479" y="749" type="qcurve"/>
      <point x="487" y="750"/>
      <point x="488" y="740" type="qcurve"/>
      <point x="491" y="718"/>
      <point x="494" y="699" type="qcurve"/>
      <point x="693" y="699" type="line"/>
      <point x="692" y="765"/>
      <point x="634" y="843" type="qcurve"/>
      <point x="630" y="850"/>
      <point x="634" y="856" type="qcurve"/>
      <point x="640" y="860"/>
      <point x="650" y="853" type="qcurve"/>
      <point x="742" y="795"/>
      <point x="745" y="755" type="qcurve"/>
      <point x="745" y="735"/>
      <point x="723" y="699" type="qcurve"/>
      <point x="878" y="699" type="line"/>
    </contour>
    <contour>
      <point x="884" y="-9"/>
      <point x="891" y="-5" type="qcurve"/>
      <point x="925" y="15"/>
      <point x="938" y="159" type="qcurve"/>
      <point x="939" y="173"/>
      <point x="952" y="172" type="qcurve"/>
      <point x="965" y="171"/>
      <point x="964" y="155" type="qcurve"/>
      <point x="950" y="64"/>
      <point x="956" y="34" type="qcurve"/>
      <point x="962" y="12"/>
      <point x="978" y="0" type="qcurve"/>
      <point x="984" y="-5"/>
      <point x="980" y="-11" type="qcurve"/>
      <point x="957" y="-50"/>
      <point x="888" y="-53" type="qcurve"/>
      <point x="658" y="-53" type="line"/>
      <point x="615" y="-53"/>
      <point x="606" y="-41" type="qcurve"/>
      <point x="596" y="-29"/>
      <point x="596" y="-4" type="qcurve"/>
      <point x="596" y="260" type="line"/>
      <point x="449" y="238" type="line"/>
      <point x="411" y="232"/>
      <point x="389" y="219" type="qcurve"/>
      <point x="383" y="214"/>
      <point x="377" y="226" type="qcurve"/>
      <point x="368" y="240"/>
      <point x="355" y="249" type="qcurve"/>
      <point x="346" y="257"/>
      <point x="347" y="261" type="qcurve"/>
      <point x="350" y="265"/>
      <point x="357" y="264" type="qcurve"/>
      <point x="383" y="263"/>
      <point x="425" y="270" type="qcurve"/>
      <point x="596" y="295" type="line"/>
      <point x="596" y="475" type="line"/>
      <point x="516" y="458"/>
      <point x="444" y="448" type="qcurve"/>
      <point x="427" y="445"/>
      <point x="426" y="455" type="qcurve"/>
      <point x="425" y="466"/>
      <point x="437" y="467" type="qcurve"/>
      <point x="659" y="526"/>
      <point x="761" y="586" type="qcurve"/>
      <point x="773" y="593"/>
      <point x="777" y="586" type="qcurve"/>
      <point x="797" y="556"/>
      <point x="825" y="531" type="qcurve"/>
      <point x="834" y="523"/>
      <point x="831" y="517" type="qcurve"/>
      <point x="828" y="512"/>
      <point x="815" y="516" type="qcurve"/>
      <point x="740" y="526"/>
      <point x="644" y="487" type="qcurve"/>
      <point x="644" y="302" type="line"/>
      <point x="824" y="329" type="line"/>
      <point x="837" y="331"/>
      <point x="841" y="337" type="qcurve"/>
      <point x="870" y="388" type="line"/>
      <point x="877" y="404"/>
      <point x="890" y="392" type="qcurve"/>
      <point x="922" y="366"/>
      <point x="952" y="338" type="qcurve"/>
      <point x="959" y="330"/>
      <point x="958" y="323" type="qcurve"/>
      <point x="956" y="315"/>
      <point x="937" y="312" type="qcurve"/>
      <point x="644" y="267" type="line"/>
      <point x="644" y="9" type="line"/>
      <point x="645" y="-3"/>
      <point x="646" y="-7" type="qcurve"/>
      <point x="648" y="-11"/>
      <point x="663" y="-11" type="qcurve"/>
      <point x="867" y="-11" type="line"/>
    </contour>
    <contour>
      <point x="208" y="454"/>
      <point x="215" y="506" type="qcurve"/>
      <point x="216" y="511"/>
      <point x="212" y="512" type="qcurve"/>
      <point x="206" y="513"/>
      <point x="205" y="509" type="qcurve"/>
      <point x="199" y="482"/>
      <point x="192" y="449" type="qcurve"/>
      <point x="138" y="305"/>
      <point x="60" y="185" type="qcurve"/>
      <point x="51" y="173"/>
      <point x="42" y="180" type="qcurve"/>
      <point x="35" y="189"/>
      <point x="41" y="196" type="qcurve"/>
      <point x="155" y="375"/>
      <point x="185" y="612" type="qcurve"/>
      <point x="151" y="612" type="line"/>
      <point x="109" y="611"/>
      <point x="78" y="605" type="qcurve"/>
      <point x="70" y="602"/>
      <point x="67" y="611" type="qcurve"/>
      <point x="63" y="629"/>
      <point x="48" y="641" type="qcurve"/>
      <point x="41" y="648"/>
      <point x="44" y="652" type="qcurve"/>
      <point x="48" y="655"/>
      <point x="55" y="651" type="qcurve"/>
      <point x="93" y="643"/>
      <point x="139" y="643" type="qcurve"/>
      <point x="196" y="643" type="line"/>
      <point x="196" y="722" type="line"/>
      <point x="195" y="802"/>
      <point x="191" y="850" type="qcurve"/>
      <point x="189" y="867"/>
      <point x="201" y="863" type="qcurve"/>
      <point x="255" y="846"/>
      <point x="273" y="836" type="qcurve"/>
      <point x="287" y="829"/>
      <point x="271" y="820" type="qcurve"/>
      <point x="255" y="812"/>
      <point x="251" y="802" type="qcurve"/>
      <point x="244" y="783"/>
      <point x="244" y="722" type="qcurve"/>
      <point x="244" y="643" type="line"/>
      <point x="288" y="643" type="line"/>
      <point x="294" y="643"/>
      <point x="300" y="650" type="qcurve"/>
      <point x="336" y="691" type="line"/>
      <point x="343" y="698"/>
      <point x="350" y="691" type="qcurve"/>
      <point x="376" y="665"/>
      <point x="394" y="643" type="qcurve"/>
      <point x="405" y="629"/>
      <point x="398" y="619" type="qcurve"/>
      <point x="393" y="613"/>
      <point x="380" y="612" type="qcurve"/>
      <point x="244" y="612" type="line"/>
      <point x="244" y="518" type="line"/>
      <point x="247" y="517"/>
      <point x="248" y="516" type="qcurve"/>
      <point x="380" y="441"/>
      <point x="383" y="398" type="qcurve"/>
      <point x="383" y="374"/>
      <point x="370" y="359" type="qcurve"/>
      <point x="356" y="345"/>
      <point x="349" y="344" type="qcurve"/>
      <point x="342" y="344"/>
      <point x="335" y="365" type="qcurve"/>
      <point x="293" y="451"/>
      <point x="244" y="491" type="qcurve"/>
      <point x="244" y="151" type="line"/>
      <point x="244" y="34"/>
      <point x="248" y="-45" type="qcurve"/>
      <point x="249" y="-53"/>
      <point x="243" y="-57" type="qcurve"/>
      <point x="201" y="-84" type="line"/>
      <point x="188" y="-94"/>
      <point x="189" y="-73" type="qcurve"/>
      <point x="195" y="60"/>
      <point x="196" y="151" type="qcurve"/>
      <point x="196" y="401" type="line"/>
    </contour>
  </outline>
</glyph>
<glyph name="uni4E2D" format="2">
  <advance width="1024"/>
  <unicode hex="4E2D"/>
  <outline>
    <contour>
      <point x="469" y="722" type="line"/>
      <point x="468" y="802"/>
      <point x="464" y="850" type="qcurve"/>
      <point x="462" y="867"/>
      <point x="474" y="863" type="qcurve"/>
      <point x="528" y="846"/>
      <point x="546" y="836" type="qcurve"/>
      <point x="560" y="829"/>
      <point x="544" y="820" type="qcurve"/>
      <point x="528" y="812"/>
      <point x="524" y="802" type="qcurve"/>
      <point x="517" y="783"/>
      <point x="517" y="722" type="qcurve"/>
      <point x="517" y="655" type="line"/>
      <point x="790" y="655" type="line"/>
      <point x="802" y="655"/>
      <point x="809" y="662" type="qcurve"/>
      <point x="834" y="688" type="line"/>
      <point x="839" y="695"/>
      <point x="848" y="689" type="qcurve"/>
      <point x="879" y="666"/>
      <point x="901" y="647" type="qcurve"/>
      <point x="908" y="639"/>
      <point x="899" y="638" type="qcurve"/>
      <point x="882" y="635"/>
      <point x="873" y="626" type="qcurve"/>
      <point x="865" y="617"/>
      <point x="865" y="607" type="qcurve"/>
      <point x="865" y="455" type="line"/>
      <point x="866" y="387"/>
      <point x="873" y="288" type="qcurve"/>
      <point x="873" y="275"/>
      <point x="863" y="269" type="qcurve"/>
      <point x="818" y="243"/>
      <point x="814" y="244" type="qcurve"/>
      <point x="810" y="246"/>
      <point x="811" y="262" type="qcurve"/>
      <point x="813" y="291"/>
      <point x="814" y="328" type="qcurve"/>
      <point x="517" y="328" type="line"/>
      <point x="517" y="151" type="line"/>
      <point x="517" y="34"/>
      <point x="521" y="-45" type="qcurve"/>
      <point x="522" y="-53"/>
      <point x="516" y="-57" type="qcurve"/>
      <point x="474" y="-84" type="line"/>
      <point x="461" y="-94"/>
      <point x="462" y="-73" type="qcurve"/>
      <point x="468" y="60"/>
      <point x="469" y="151" type="qcurve"/>
      <point x="469" y="328" type="line"/>
      <point x="176" y="328" type="line"/>
      <point x="176" y="301"/>
      <point x="177" y="279" type="qcurve"/>
      <point x="176" y="264"/>
      <point x="139" y="239" type="qcurve"/>
      <point x="131" y="235"/>
      <point x="127" y="235" type="qcurve"/>
      <point x="121" y="236"/>
      <point x="122" y="255" type="qcurve"/>
      <point x="126" y="355"/>
      <point x="129" y="461" type="qcurve"/>
      <point x="129" y="597" type="line"/>
      <point x="128" y="629"/>
      <point x="122" y="675" type="qcurve"/>
      <point x="120" y="685"/>
      <point x="123" y="686" type="qcurve"/>
      <point x="124" y="686"/>
      <point x="163" y="655" type="qcurve"/>
      <point x="469" y="655" type="line"/>
    </contour>
    <contour>
      <point x="469" y="624" type="line"/>
      <point x="177" y="624" type="line"/>
      <point x="177" y="461" type="line"/>
      <point x="176" y="405"/>
      <point x="176" y="359" type="qcurve"/>
      <point x="469" y="359" type="line"/>
    </contour>
    <contour>
      <point x="517" y="359" type="line"/>
      <point x="815" y="359" type="line"/>
      <point x="816" y="390"/>
      <point x="817" y="426" type="qcurve"/>
      <point x="817" y="624" type="line"/>
      <point x="517" y="624" type="line"/>
    </contour>
  </outline>
</glyph>
<glyph name="uni4E8B" format="2">
  <advance width="1024"/>
  <unicode hex="4E8B"/>
  <outline>
    <contour>
      <point x="494" y="403" type="line"/>
      <point x="494" y="496" type="line"/>
      <point x="274" y="496" type="line"/>
      <point x="274" y="465" type="line"/>
      <point x="273" y="457"/>
      <point x="269" y="456" type="qcurve"/>
      <point x="259" y="452"/>
      <point x="237" y="443" type="qcurve"/>
      <point x="222" y="437"/>
      <point x="223" y="447" type="qcurve"/>
      <point x="225" y="473"/>
      <point x="226" y="498" type="qcurve"/>
      <point x="226" y="632" type="line"/>
      <point x="225" y="658"/>
      <point x="224" y="677" type="qcurve"/>
      <point x="224" y="686"/>
      <point x="228" y="687" type="qcurve"/>
      <point x="232" y="690"/>
      <point x="241" y="681" type="qcurve"/>
      <point x="254" y="668"/>
      <point x="272" y="655" type="qcurve"/>
      <point x="494" y="655" type="line"/>
      <point x="494" y="736" type="line"/>
      <point x="173" y="736" type="line"/>
      <point x="131" y="735"/>
      <point x="100" y="729" type="qcurve"/>
      <point x="91" y="726"/>
      <point x="90" y="735" type="qcurve"/>
      <point x="85" y="753"/>
      <point x="70" y="766" type="qcurve"/>
      <point x="62" y="773"/>
      <point x="66" y="777" type="qcurve"/>
      <point x="70" y="780"/>
      <point x="77" y="776" type="qcurve"/>
      <point x="115" y="767"/>
      <point x="161" y="767" type="qcurve"/>
      <point x="494" y="767" type="line"/>
      <point x="491" y="821"/>
      <point x="490" y="855" type="qcurve"/>
      <point x="487" y="871"/>
      <point x="497" y="868" type="qcurve"/>
      <point x="554" y="848"/>
      <point x="573" y="838" type="qcurve"/>
      <point x="585" y="830"/>
      <point x="570" y="823" type="qcurve"/>
      <point x="552" y="815"/>
      <point x="548" y="806" type="qcurve"/>
      <point x="543" y="795"/>
      <point x="542" y="767" type="qcurve"/>
      <point x="818" y="767" type="line"/>
      <point x="832" y="768"/>
      <point x="848" y="786" type="qcurve"/>
      <point x="874" y="823" type="line"/>
      <point x="881" y="832"/>
      <point x="890" y="823" type="qcurve"/>
      <point x="961" y="760"/>
      <point x="960" y="745" type="qcurve"/>
      <point x="958" y="737"/>
      <point x="945" y="736" type="qcurve"/>
      <point x="542" y="736" type="line"/>
      <point x="542" y="655" type="line"/>
      <point x="734" y="655" type="line"/>
      <point x="740" y="655"/>
      <point x="743" y="659" type="qcurve"/>
      <point x="761" y="687" type="line"/>
      <point x="768" y="695"/>
      <point x="775" y="688" type="qcurve"/>
      <point x="804" y="669"/>
      <point x="832" y="647" type="qcurve"/>
      <point x="838" y="641"/>
      <point x="837" y="635" type="qcurve"/>
      <point x="834" y="629"/>
      <point x="824" y="628" type="qcurve"/>
      <point x="812" y="626"/>
      <point x="806" y="616" type="qcurve"/>
      <point x="802" y="607"/>
      <point x="802" y="594" type="qcurve"/>
      <point x="802" y="582" type="line"/>
      <point x="802" y="550"/>
      <point x="808" y="495" type="qcurve"/>
      <point x="810" y="483"/>
      <point x="801" y="479" type="qcurve"/>
      <point x="766" y="459"/>
      <point x="759" y="459" type="qcurve"/>
      <point x="754" y="460"/>
      <point x="754" y="470" type="qcurve"/>
      <point x="754" y="496" type="line"/>
      <point x="542" y="496" type="line"/>
      <point x="542" y="403" type="line"/>
      <point x="750" y="403" type="line"/>
      <point x="756" y="403"/>
      <point x="759" y="407" type="qcurve"/>
      <point x="777" y="435" type="line"/>
      <point x="784" y="443"/>
      <point x="791" y="436" type="qcurve"/>
      <point x="820" y="417"/>
      <point x="848" y="395" type="qcurve"/>
      <point x="854" y="389"/>
      <point x="853" y="383" type="qcurve"/>
      <point x="850" y="377"/>
      <point x="840" y="376" type="qcurve"/>
      <point x="828" y="374"/>
      <point x="822" y="364" type="qcurve"/>
      <point x="818" y="355"/>
      <point x="818" y="342" type="qcurve"/>
      <point x="818" y="275" type="line"/>
      <point x="858" y="275" type="line"/>
      <point x="864" y="275"/>
      <point x="870" y="282" type="qcurve"/>
      <point x="906" y="323" type="line"/>
      <point x="913" y="330"/>
      <point x="920" y="323" type="qcurve"/>
      <point x="946" y="297"/>
      <point x="964" y="275" type="qcurve"/>
      <point x="975" y="261"/>
      <point x="968" y="251" type="qcurve"/>
      <point x="963" y="245"/>
      <point x="950" y="244" type="qcurve"/>
      <point x="818" y="244" type="line"/>
      <point x="818" y="182" type="line"/>
      <point x="818" y="150"/>
      <point x="824" y="95" type="qcurve"/>
      <point x="826" y="83"/>
      <point x="817" y="79" type="qcurve"/>
      <point x="782" y="59"/>
      <point x="775" y="59" type="qcurve"/>
      <point x="770" y="60"/>
      <point x="770" y="70" type="qcurve"/>
      <point x="770" y="116" type="line"/>
      <point x="542" y="116" type="line"/>
      <point x="542" y="16" type="line"/>
      <point x="540" y="-21"/>
      <point x="524" y="-46" type="qcurve"/>
      <point x="485" y="-102"/>
      <point x="463" y="-102" type="qcurve"/>
      <point x="459" y="-101"/>
      <point x="456" y="-82" type="qcurve"/>
      <point x="450" y="-55"/>
      <point x="441" y="-45" type="qcurve"/>
      <point x="433" y="-31"/>
      <point x="381" y="-21" type="qcurve"/>
      <point x="365" y="-19"/>
      <point x="366" y="-6" type="qcurve"/>
      <point x="368" y="7"/>
      <point x="384" y="6" type="qcurve"/>
      <point x="463" y="-11"/>
      <point x="479" y="-2" type="qcurve"/>
      <point x="493" y="4"/>
      <point x="494" y="26" type="qcurve"/>
      <point x="494" y="116" type="line"/>
      <point x="257" y="116" type="line"/>
      <point x="215" y="115"/>
      <point x="184" y="109" type="qcurve"/>
      <point x="175" y="106"/>
      <point x="174" y="115" type="qcurve"/>
      <point x="169" y="133"/>
      <point x="154" y="146" type="qcurve"/>
      <point x="146" y="153"/>
      <point x="150" y="157" type="qcurve"/>
      <point x="154" y="160"/>
      <point x="161" y="156" type="qcurve"/>
      <point x="199" y="147"/>
      <point x="245" y="147" type="qcurve"/>
      <point x="494" y="147" type="line"/>
      <point x="494" y="244" type="line"/>
      <point x="161" y="244" type="line"/>
      <point x="119" y="243"/>
      <point x="88" y="237" type="qcurve"/>
      <point x="80" y="234"/>
      <point x="77" y="243" type="qcurve"/>
      <point x="73" y="261"/>
      <point x="58" y="273" type="qcurve"/>
      <point x="51" y="280"/>
      <point x="54" y="284" type="qcurve"/>
      <point x="58" y="287"/>
      <point x="65" y="283" type="qcurve"/>
      <point x="103" y="275"/>
      <point x="149" y="275" type="qcurve"/>
      <point x="494" y="275" type="line"/>
      <point x="494" y="372" type="line"/>
      <point x="265" y="372" type="line"/>
      <point x="223" y="371"/>
      <point x="192" y="365" type="qcurve"/>
      <point x="183" y="362"/>
      <point x="182" y="371" type="qcurve"/>
      <point x="177" y="389"/>
      <point x="162" y="402" type="qcurve"/>
      <point x="154" y="409"/>
      <point x="158" y="413" type="qcurve"/>
      <point x="162" y="416"/>
      <point x="169" y="412" type="qcurve"/>
      <point x="207" y="403"/>
      <point x="253" y="403" type="qcurve"/>
    </contour>
    <contour>
      <point x="542" y="372" type="line"/>
      <point x="542" y="275" type="line"/>
      <point x="770" y="275" type="line"/>
      <point x="770" y="372" type="line"/>
    </contour>
    <contour>
      <point x="542" y="244" type="line"/>
      <point x="542" y="147" type="line"/>
      <point x="770" y="147" type="line"/>
      <point x="770" y="244" type="line"/>
    </contour>
    <contour>
      <point x="494" y="624" type="line"/>
      <point x="274" y="624" type="line"/>
      <point x="274" y="527" type="line"/>
      <point x="494" y="527" type="line"/>
    </contour>
    <contour>
      <point x="542" y="527" type="line"/>
      <point x="754" y="527" type="line"/>
      <point x="754" y="624" type="line"/>
      <point x="542" y="624" type="line"/>
    </contour>
  </outline>
</glyph>
<glyph name="uni4EAC" format="2">
  <advance width="1024"/>
  <unicode hex="4EAC"/>
  <outline>
    <contour>
      <point x="842" y="716"/>
      <point x="858" y="734" type="qcurve"/>
      <point x="884" y="771" type="line"/>
      <point x="891" y="780"/>
      <point x="900" y="771" type="qcurve"/>
      <point x="971" y="708"/>
      <point x="970" y="693" type="qcurve"/>
      <point x="968" y="685"/>
      <point x="955" y="684" type="qcurve"/>
      <point x="171" y="684" type="line"/>
      <point x="129" y="683"/>
      <point x="98" y="677" type="qcurve"/>
      <point x="89" y="674"/>
      <point x="88" y="683" type="qcurve"/>
      <point x="83" y="701"/>
      <point x="68" y="714" type="qcurve"/>
      <point x="60" y="721"/>
      <point x="64" y="725" type="qcurve"/>
      <point x="68" y="728"/>
      <point x="75" y="724" type="qcurve"/>
      <point x="113" y="715"/>
      <point x="159" y="715" type="qcurve"/>
      <point x="529" y="715" type="line"/>
      <point x="529" y="717" type="line"/>
      <point x="514" y="789"/>
      <point x="451" y="855" type="qcurve"/>
      <point x="446" y="862"/>
      <point x="450" y="868" type="qcurve"/>
      <point x="454" y="874"/>
      <point x="466" y="867" type="qcurve"/>
      <point x="569" y="814"/>
      <point x="576" y="772" type="qcurve"/>
      <point x="580" y="753"/>
      <point x="565" y="723" type="qcurve"/>
      <point x="561" y="719"/>
      <point x="560" y="715" type="qcurve"/>
      <point x="828" y="715" type="line"/>
    </contour>
    <contour>
      <point x="559" y="-38"/>
      <point x="543" y="-57" type="qcurve"/>
      <point x="524" y="-78"/>
      <point x="485" y="-88" type="qcurve"/>
      <point x="474" y="-92"/>
      <point x="474" y="-83" type="qcurve"/>
      <point x="473" y="-55"/>
      <point x="463" y="-48" type="qcurve"/>
      <point x="442" y="-33"/>
      <point x="384" y="-17" type="qcurve"/>
      <point x="374" y="-15"/>
      <point x="375" y="-5" type="qcurve"/>
      <point x="376" y="3"/>
      <point x="394" y="3" type="qcurve"/>
      <point x="492" y="-3"/>
      <point x="498" y="3" type="qcurve"/>
      <point x="511" y="17"/>
      <point x="512" y="42" type="qcurve"/>
      <point x="512" y="320" type="line"/>
      <point x="312" y="320" type="line"/>
      <point x="312" y="285" type="line"/>
      <point x="311" y="277"/>
      <point x="307" y="276" type="qcurve"/>
      <point x="297" y="272"/>
      <point x="275" y="263" type="qcurve"/>
      <point x="260" y="257"/>
      <point x="261" y="267" type="qcurve"/>
      <point x="263" y="293"/>
      <point x="264" y="318" type="qcurve"/>
      <point x="264" y="544" type="line"/>
      <point x="263" y="570"/>
      <point x="262" y="589" type="qcurve"/>
      <point x="262" y="598"/>
      <point x="266" y="599" type="qcurve"/>
      <point x="270" y="602"/>
      <point x="279" y="593" type="qcurve"/>
      <point x="292" y="580"/>
      <point x="310" y="567" type="qcurve"/>
      <point x="728" y="567" type="line"/>
      <point x="734" y="567"/>
      <point x="737" y="571" type="qcurve"/>
      <point x="755" y="599" type="line"/>
      <point x="762" y="607"/>
      <point x="769" y="600" type="qcurve"/>
      <point x="798" y="581"/>
      <point x="826" y="559" type="qcurve"/>
      <point x="832" y="553"/>
      <point x="831" y="547" type="qcurve"/>
      <point x="828" y="541"/>
      <point x="818" y="540" type="qcurve"/>
      <point x="806" y="538"/>
      <point x="800" y="528" type="qcurve"/>
      <point x="796" y="519"/>
      <point x="796" y="506" type="qcurve"/>
      <point x="796" y="382" type="line"/>
      <point x="796" y="350"/>
      <point x="802" y="295" type="qcurve"/>
      <point x="804" y="283"/>
      <point x="795" y="279" type="qcurve"/>
      <point x="760" y="259"/>
      <point x="753" y="259" type="qcurve"/>
      <point x="748" y="260"/>
      <point x="748" y="270" type="qcurve"/>
      <point x="748" y="320" type="line"/>
      <point x="560" y="320" type="line"/>
      <point x="560" y="4" type="line"/>
    </contour>
    <contour>
      <point x="312" y="351" type="line"/>
      <point x="748" y="351" type="line"/>
      <point x="748" y="536" type="line"/>
      <point x="312" y="536" type="line"/>
    </contour>
    <contour>
      <point x="337" y="252"/>
      <point x="344" y="248" type="qcurve"/>
      <point x="381" y="221"/>
      <point x="408" y="197" type="qcurve"/>
      <point x="416" y="190"/>
      <point x="412" y="186" type="qcurve"/>
      <point x="409" y="182"/>
      <point x="394" y="183" type="qcurve"/>
      <point x="376" y="184"/>
      <point x="346" y="154" type="qcurve"/>
      <point x="213" y="17"/>
      <point x="71" y="-44" type="qcurve"/>
      <point x="59" y="-49"/>
      <point x="55" y="-42" type="qcurve"/>
      <point x="52" y="-33"/>
      <point x="61" y="-29" type="qcurve"/>
      <point x="236" y="78"/>
      <point x="332" y="243" type="qcurve"/>
    </contour>
    <contour>
      <point x="668" y="210"/>
      <point x="672" y="219" type="qcurve"/>
      <point x="677" y="227"/>
      <point x="689" y="220" type="qcurve"/>
      <point x="870" y="138"/>
      <point x="915" y="75" type="qcurve"/>
      <point x="935" y="47"/>
      <point x="931" y="22" type="qcurve"/>
      <point x="927" y="-2"/>
      <point x="921" y="-14" type="qcurve"/>
      <point x="915" y="-24"/>
      <point x="908" y="-24" type="qcurve"/>
      <point x="901" y="-24"/>
      <point x="895" y="-11" type="qcurve"/>
      <point x="847" y="91"/>
      <point x="676" y="205" type="qcurve"/>
    </contour>
  </outline>
</glyph>
<glyph name="uni4EAE" format="2">
  <advance width="1024"/>
  <unicode hex="4EAE"/>
  <outline>
    <contour>
      <point x="870" y="-9"/>
      <point x="877" y="-5" type="qcurve"/>
      <point x="909" y="13"/>
      <point x="924" y="151" type="qcurve"/>
      <point x="925" y="165"/>
      <point x="938" y="164" type="qcurve"/>
      <point x="951" y="162"/>
      <point x="950" y="147" type="qcurve"/>
      <point x="931" y="23"/>
      <point x="964" y="-1" type="qcurve"/>
      <point x="970" y="-5"/>
      <point x="966" y="-11" type="qcurve"/>
      <point x="943" y="-50"/>
      <point x="874" y="-53" type="qcurve"/>
      <point x="664" y="-53" type="line"/>
      <point x="621" y="-53"/>
      <point x="612" y="-41" type="qcurve"/>
      <point x="602" y="-29"/>
      <point x="602" y="-4" type="qcurve"/>
      <point x="602" y="216" type="line"/>
      <point x="394" y="216" type="line"/>
      <point x="394" y="210" type="line"/>
      <point x="393" y="147"/>
      <point x="377" y="92" type="qcurve"/>
      <point x="357" y="34"/>
      <point x="293" y="-6" type="qcurve"/>
      <point x="228" y="-45"/>
      <point x="80" y="-79" type="qcurve"/>
      <point x="62" y="-80"/>
      <point x="61" y="-67" type="qcurve"/>
      <point x="61" y="-52"/>
      <point x="77" y="-51" type="qcurve"/>
      <point x="193" y="-28"/>
      <point x="251" y="9" type="qcurve"/>
      <point x="346" y="75"/>
      <point x="346" y="210" type="qcurve"/>
      <point x="346" y="224" type="line"/>
      <point x="345" y="242"/>
      <point x="341" y="270" type="qcurve"/>
      <point x="339" y="282"/>
      <point x="343" y="285" type="qcurve"/>
      <point x="349" y="288"/>
      <point x="359" y="275" type="qcurve"/>
      <point x="371" y="263"/>
      <point x="395" y="247" type="qcurve"/>
      <point x="575" y="247" type="line"/>
      <point x="581" y="248"/>
      <point x="585" y="252" type="qcurve"/>
      <point x="608" y="278" type="line"/>
      <point x="614" y="286"/>
      <point x="621" y="280" type="qcurve"/>
      <point x="654" y="256"/>
      <point x="682" y="231" type="qcurve"/>
      <point x="691" y="223"/>
      <point x="681" y="220" type="qcurve"/>
      <point x="664" y="217"/>
      <point x="657" y="207" type="qcurve"/>
      <point x="650" y="197"/>
      <point x="650" y="178" type="qcurve"/>
      <point x="650" y="9" type="line"/>
      <point x="651" y="-3"/>
      <point x="652" y="-7" type="qcurve"/>
      <point x="654" y="-11"/>
      <point x="669" y="-11" type="qcurve"/>
      <point x="853" y="-11" type="line"/>
    </contour>
    <contour>
      <point x="812" y="744"/>
      <point x="828" y="762" type="qcurve"/>
      <point x="854" y="799" type="line"/>
      <point x="861" y="808"/>
      <point x="870" y="799" type="qcurve"/>
      <point x="941" y="736"/>
      <point x="940" y="721" type="qcurve"/>
      <point x="938" y="713"/>
      <point x="925" y="712" type="qcurve"/>
      <point x="185" y="712" type="line"/>
      <point x="143" y="711"/>
      <point x="112" y="705" type="qcurve"/>
      <point x="103" y="702"/>
      <point x="102" y="711" type="qcurve"/>
      <point x="97" y="729"/>
      <point x="82" y="742" type="qcurve"/>
      <point x="74" y="749"/>
      <point x="78" y="753" type="qcurve"/>
      <point x="82" y="756"/>
      <point x="89" y="752" type="qcurve"/>
      <point x="127" y="743"/>
      <point x="173" y="743" type="qcurve"/>
      <point x="506" y="743" type="line"/>
      <point x="478" y="825"/>
      <point x="454" y="852" type="qcurve"/>
      <point x="447" y="860"/>
      <point x="451" y="867" type="qcurve"/>
      <point x="458" y="875"/>
      <point x="470" y="865" type="qcurve"/>
      <point x="553" y="814"/>
      <point x="553" y="784" type="qcurve"/>
      <point x="550" y="764"/>
      <point x="531" y="743" type="qcurve"/>
      <point x="798" y="743" type="line"/>
    </contour>
    <contour>
      <point x="322" y="464" type="line"/>
      <point x="322" y="433" type="line"/>
      <point x="321" y="425"/>
      <point x="317" y="424" type="qcurve"/>
      <point x="307" y="420"/>
      <point x="285" y="411" type="qcurve"/>
      <point x="270" y="405"/>
      <point x="271" y="415" type="qcurve"/>
      <point x="273" y="441"/>
      <point x="274" y="466" type="qcurve"/>
      <point x="274" y="612" type="line"/>
      <point x="273" y="638"/>
      <point x="272" y="657" type="qcurve"/>
      <point x="272" y="666"/>
      <point x="276" y="667" type="qcurve"/>
      <point x="280" y="670"/>
      <point x="289" y="661" type="qcurve"/>
      <point x="302" y="648"/>
      <point x="320" y="635" type="qcurve"/>
      <point x="672" y="635" type="line"/>
      <point x="680" y="634"/>
      <point x="683" y="637" type="qcurve"/>
      <point x="701" y="659" type="line"/>
      <point x="709" y="671"/>
      <point x="718" y="662" type="qcurve"/>
      <point x="739" y="644"/>
      <point x="758" y="623" type="qcurve"/>
      <point x="764" y="616"/>
      <point x="763" y="612" type="qcurve"/>
      <point x="762" y="607"/>
      <point x="752" y="606" type="qcurve"/>
      <point x="744" y="605"/>
      <point x="741" y="599" type="qcurve"/>
      <point x="738" y="592"/>
      <point x="738" y="588" type="qcurve"/>
      <point x="738" y="476" type="line"/>
      <point x="738" y="465"/>
      <point x="742" y="444" type="qcurve"/>
      <point x="743" y="435"/>
      <point x="739" y="432" type="qcurve"/>
      <point x="703" y="413"/>
      <point x="696" y="413" type="qcurve"/>
      <point x="689" y="413"/>
      <point x="690" y="423" type="qcurve"/>
      <point x="690" y="464" type="line"/>
    </contour>
    <contour>
      <point x="322" y="495" type="line"/>
      <point x="690" y="495" type="line"/>
      <point x="690" y="604" type="line"/>
      <point x="322" y="604" type="line"/>
    </contour>
    <contour>
      <point x="832" y="384"/>
      <point x="836" y="388" type="qcurve"/>
      <point x="867" y="419" type="line"/>
      <point x="870" y="423"/>
      <point x="873" y="423" type="qcurve"/>
      <point x="888" y="422"/>
      <point x="948" y="359" type="qcurve"/>
      <point x="953" y="351"/>
      <point x="940" y="350" type="qcurve"/>
      <point x="885" y="345"/>
      <point x="816" y="249" type="qcurve"/>
      <point x="808" y="238"/>
      <point x="799" y="242" type="qcurve"/>
      <point x="791" y="247"/>
      <point x="798" y="260" type="qcurve"/>
      <point x="826" y="312"/>
      <point x="841" y="352" type="qcurve"/>
      <point x="159" y="352" type="line"/>
      <point x="153" y="283"/>
      <point x="117" y="244" type="qcurve"/>
      <point x="102" y="230"/>
      <point x="87" y="231" type="qcurve"/>
      <point x="73" y="233"/>
      <point x="66" y="242" type="qcurve"/>
      <point x="44" y="266"/>
      <point x="77" y="291" type="qcurve"/>
      <point x="129" y="331"/>
      <point x="141" y="424" type="qcurve"/>
      <point x="142" y="434"/>
      <point x="149" y="433" type="qcurve"/>
      <point x="157" y="433"/>
      <point x="158" y="423" type="qcurve"/>
      <point x="160" y="402"/>
      <point x="160" y="383" type="qcurve"/>
      <point x="823" y="383" type="line"/>
    </contour>
  </outline>
</glyph>
<glyph name="uni4EE3" format="2">
  <advance width="1024"/>
  <unicode hex="4EE3"/>
  <outline>
    <contour>
      <point x="284" y="607"/>
      <point x="299" y="597" type="qcurve"/>
      <point x="320" y="584"/>
      <point x="295" y="577" type="qcurve"/>
      <point x="281" y="572"/>
      <point x="278" y="565" type="qcurve"/>
      <point x="271" y="547"/>
      <point x="271" y="486" type="qcurve"/>
      <point x="271" y="147" type="line"/>
      <point x="271" y="29"/>
      <point x="275" y="-52" type="qcurve"/>
      <point x="273" y="-62"/>
      <point x="227" y="-89" type="qcurve"/>
      <point x="214" y="-96"/>
      <point x="215" y="-77" type="qcurve"/>
      <point x="222" y="56"/>
      <point x="223" y="147" type="qcurve"/>
      <point x="223" y="486" type="line"/>
      <point x="221" y="523"/>
      <point x="220" y="551" type="qcurve"/>
      <point x="139" y="420"/>
      <point x="66" y="327" type="qcurve"/>
      <point x="56" y="317"/>
      <point x="49" y="323" type="qcurve"/>
      <point x="41" y="330"/>
      <point x="50" y="340" type="qcurve"/>
      <point x="141" y="453"/>
      <point x="216" y="621" type="qcurve"/>
      <point x="289" y="786"/>
      <point x="293" y="841" type="qcurve"/>
      <point x="295" y="858"/>
      <point x="311" y="848" type="qcurve"/>
      <point x="375" y="809"/>
      <point x="375" y="800" type="qcurve"/>
      <point x="374" y="794"/>
      <point x="365" y="795" type="qcurve"/>
      <point x="355" y="797"/>
      <point x="345" y="788" type="qcurve"/>
      <point x="332" y="776"/>
      <point x="304" y="710" type="qcurve"/>
      <point x="281" y="664"/>
      <point x="256" y="615" type="qcurve"/>
    </contour>
    <contour>
      <point x="913" y="0"/>
      <point x="922" y="33" type="qcurve"/>
      <point x="938" y="83"/>
      <point x="951" y="153" type="qcurve"/>
      <point x="952" y="162"/>
      <point x="961" y="161" type="qcurve"/>
      <point x="971" y="160"/>
      <point x="970" y="150" type="qcurve"/>
      <point x="952" y="4"/>
      <point x="971" y="-32" type="qcurve"/>
      <point x="985" y="-55"/>
      <point x="973" y="-68" type="qcurve"/>
      <point x="962" y="-81"/>
      <point x="917" y="-68" type="qcurve"/>
      <point x="824" y="-45"/>
      <point x="751" y="19" type="qcurve"/>
      <point x="652" y="111"/>
      <point x="603" y="262" type="qcurve"/>
      <point x="576" y="352"/>
      <point x="564" y="517" type="qcurve"/>
      <point x="429" y="510" type="line"/>
      <point x="391" y="507"/>
      <point x="366" y="497" type="qcurve"/>
      <point x="359" y="492"/>
      <point x="355" y="504" type="qcurve"/>
      <point x="348" y="520"/>
      <point x="336" y="530" type="qcurve"/>
      <point x="327" y="538"/>
      <point x="328" y="542" type="qcurve"/>
      <point x="331" y="547"/>
      <point x="338" y="544" type="qcurve"/>
      <point x="366" y="541"/>
      <point x="409" y="545" type="qcurve"/>
      <point x="562" y="552" type="line"/>
      <point x="558" y="605"/>
      <point x="557" y="665" type="qcurve"/>
      <point x="555" y="784"/>
      <point x="543" y="848" type="qcurve"/>
      <point x="542" y="856"/>
      <point x="545" y="857" type="qcurve"/>
      <point x="547" y="859"/>
      <point x="559" y="856" type="qcurve"/>
      <point x="597" y="844"/>
      <point x="631" y="831" type="qcurve"/>
      <point x="640" y="827"/>
      <point x="640" y="823" type="qcurve"/>
      <point x="639" y="815"/>
      <point x="629" y="814" type="qcurve"/>
      <point x="608" y="809"/>
      <point x="602" y="802" type="qcurve"/>
      <point x="589" y="779"/>
      <point x="602" y="554" type="qcurve"/>
      <point x="824" y="566" type="line"/>
      <point x="837" y="566"/>
      <point x="841" y="572" type="qcurve"/>
      <point x="875" y="619" type="line"/>
      <point x="885" y="635"/>
      <point x="895" y="622" type="qcurve"/>
      <point x="924" y="593"/>
      <point x="952" y="562" type="qcurve"/>
      <point x="959" y="554"/>
      <point x="956" y="547" type="qcurve"/>
      <point x="954" y="539"/>
      <point x="935" y="538" type="qcurve"/>
      <point x="605" y="519" type="line"/>
      <point x="615" y="392"/>
      <point x="637" y="307" type="qcurve"/>
      <point x="698" y="65"/>
      <point x="860" y="1" type="qcurve"/>
      <point x="887" y="-8"/>
      <point x="900" y="-4" type="qcurve"/>
    </contour>
    <contour>
      <point x="696" y="817"/>
      <point x="700" y="824" type="qcurve"/>
      <point x="703" y="830"/>
      <point x="716" y="826" type="qcurve"/>
      <point x="844" y="787"/>
      <point x="862" y="738" type="qcurve"/>
      <point x="869" y="719"/>
      <point x="860" y="688" type="qcurve"/>
      <point x="854" y="661"/>
      <point x="842" y="660" type="qcurve"/>
      <point x="832" y="658"/>
      <point x="826" y="677" type="qcurve"/>
      <point x="790" y="754"/>
      <point x="703" y="812" type="qcurve"/>
    </contour>
  </outline>
</glyph>
<glyph name="uni4FCA" format="2">
  <advance width="1024"/>
  <unicode hex="4FCA"/>
  <outline>
    <contour>
      <point x="502" y="585"/>
      <point x="508" y="581" type="qcurve"/>
      <point x="536" y="567"/>
      <point x="576" y="540" type="qcurve"/>
      <point x="586" y="533"/>
      <point x="584" y="529" type="qcurve"/>
      <point x="580" y="524"/>
      <point x="564" y="525" type="qcurve"/>
      <point x="540" y="527"/>
      <point x="522" y="503" type="qcurve"/>
      <point x="418" y="389"/>
      <point x="306" y="323" type="qcurve"/>
      <point x="292" y="316"/>
      <point x="288" y="325" type="qcurve"/>
      <point x="284" y="334"/>
      <point x="292" y="340" type="qcurve"/>
      <point x="418" y="429"/>
      <point x="496" y="574" type="qcurve"/>
    </contour>
    <contour>
      <point x="552" y="470"/>
      <point x="558" y="466" type="qcurve"/>
      <point x="600" y="447"/>
      <point x="630" y="428" type="qcurve"/>
      <point x="640" y="423"/>
      <point x="636" y="417" type="qcurve"/>
      <point x="634" y="412"/>
      <point x="620" y="411" type="qcurve"/>
      <point x="606" y="411"/>
      <point x="600" y="405" type="qcurve"/>
      <point x="580" y="386"/>
      <point x="572" y="367" type="qcurve"/>
      <point x="740" y="367" type="line"/>
      <point x="748" y="367"/>
      <point x="752" y="371" type="qcurve"/>
      <point x="788" y="411" type="line"/>
      <point x="792" y="417"/>
      <point x="796" y="417" type="qcurve"/>
      <point x="808" y="416"/>
      <point x="860" y="352" type="qcurve"/>
      <point x="868" y="341"/>
      <point x="854" y="340" type="qcurve"/>
      <point x="816" y="337"/>
      <point x="790" y="268" type="qcurve"/>
      <point x="754" y="188"/>
      <point x="694" y="106" type="qcurve"/>
      <point x="756" y="61"/>
      <point x="822" y="34" type="qcurve"/>
      <point x="826" y="33"/>
      <point x="982" y="-12" type="qcurve"/>
      <point x="990" y="-14"/>
      <point x="990" y="-21" type="qcurve"/>
      <point x="988" y="-27"/>
      <point x="982" y="-27" type="qcurve"/>
      <point x="926" y="-22"/>
      <point x="904" y="-70" type="qcurve"/>
      <point x="900" y="-78"/>
      <point x="890" y="-74" type="qcurve"/>
      <point x="732" y="5"/>
      <point x="662" y="75" type="qcurve"/>
      <point x="508" y="-53"/>
      <point x="298" y="-83" type="qcurve"/>
      <point x="280" y="-86"/>
      <point x="278" y="-76" type="qcurve"/>
      <point x="278" y="-65"/>
      <point x="290" y="-64" type="qcurve"/>
      <point x="500" y="-15"/>
      <point x="632" y="108" type="qcurve"/>
      <point x="568" y="185"/>
      <point x="526" y="302" type="qcurve"/>
      <point x="436" y="182"/>
      <point x="320" y="103" type="qcurve"/>
      <point x="308" y="95"/>
      <point x="304" y="102" type="qcurve"/>
      <point x="298" y="110"/>
      <point x="308" y="116" type="qcurve"/>
      <point x="480" y="267"/>
      <point x="548" y="460" type="qcurve"/>
    </contour>
    <contour>
      <point x="550" y="336" type="line"/>
      <point x="546" y="331"/>
      <point x="542" y="325" type="qcurve"/>
      <point x="590" y="207"/>
      <point x="658" y="138" type="qcurve"/>
      <point x="718" y="207"/>
      <point x="760" y="336" type="qcurve"/>
    </contour>
    <contour>
      <point x="714" y="562"/>
      <point x="718" y="572" type="qcurve"/>
      <point x="720" y="582"/>
      <point x="736" y="575" type="qcurve"/>
      <point x="836" y="537"/>
      <point x="894" y="494" type="qcurve"/>
      <point x="936" y="465"/>
      <point x="940" y="444" type="qcurve"/>
      <point x="944" y="420"/>
      <point x="934" y="404" type="qcurve"/>
      <point x="924" y="386"/>
      <point x="918" y="385" type="qcurve"/>
      <point x="912" y="384"/>
      <point x="900" y="403" type="qcurve"/>
      <point x="816" y="516"/>
      <point x="724" y="558" type="qcurve"/>
    </contour>
    <contour>
      <point x="648" y="681"/>
      <point x="840" y="678" type="qcurve"/>
      <point x="802" y="724"/>
      <point x="720" y="772" type="qcurve"/>
      <point x="714" y="777"/>
      <point x="718" y="784" type="qcurve"/>
      <point x="720" y="790"/>
      <point x="734" y="786" type="qcurve"/>
      <point x="918" y="716"/>
      <point x="936" y="650" type="qcurve"/>
      <point x="942" y="631"/>
      <point x="934" y="600" type="qcurve"/>
      <point x="928" y="573"/>
      <point x="916" y="572" type="qcurve"/>
      <point x="906" y="570"/>
      <point x="900" y="589" type="qcurve"/>
      <point x="882" y="624"/>
      <point x="864" y="649" type="qcurve"/>
      <point x="612" y="643"/>
      <point x="386" y="597" type="qcurve"/>
      <point x="374" y="593"/>
      <point x="372" y="600" type="qcurve"/>
      <point x="366" y="620"/>
      <point x="354" y="636" type="qcurve"/>
      <point x="346" y="647"/>
      <point x="358" y="650" type="qcurve"/>
      <point x="376" y="658"/>
      <point x="392" y="667" type="qcurve"/>
      <point x="520" y="753"/>
      <point x="590" y="861" type="qcurve"/>
      <point x="592" y="868"/>
      <point x="600" y="865" type="qcurve"/>
      <point x="634" y="849"/>
      <point x="660" y="836" type="qcurve"/>
      <point x="668" y="832"/>
      <point x="666" y="826" type="qcurve"/>
      <point x="664" y="821"/>
      <point x="658" y="821" type="qcurve"/>
      <point x="624" y="817"/>
      <point x="546" y="738" type="qcurve"/>
      <point x="498" y="694"/>
      <point x="450" y="657" type="qcurve"/>
    </contour>
    <contour>
      <point x="236" y="802"/>
      <point x="238" y="854" type="qcurve"/>
      <point x="238" y="871"/>
      <point x="256" y="862" type="qcurve"/>
      <point x="294" y="841"/>
      <point x="310" y="831" type="qcurve"/>
      <point x="322" y="824"/>
      <point x="322" y="818" type="qcurve"/>
      <point x="322" y="812"/>
      <point x="312" y="813" type="qcurve"/>
      <point x="304" y="814"/>
      <point x="294" y="804" type="qcurve"/>
      <point x="280" y="793"/>
      <point x="258" y="730" type="qcurve"/>
      <point x="238" y="681"/>
      <point x="212" y="627" type="qcurve"/>
      <point x="242" y="619"/>
      <point x="256" y="609" type="qcurve"/>
      <point x="278" y="596"/>
      <point x="252" y="589" type="qcurve"/>
      <point x="238" y="584"/>
      <point x="236" y="577" type="qcurve"/>
      <point x="228" y="559"/>
      <point x="228" y="498" type="qcurve"/>
      <point x="228" y="147" type="line"/>
      <point x="228" y="29"/>
      <point x="232" y="-52" type="qcurve"/>
      <point x="230" y="-62"/>
      <point x="184" y="-89" type="qcurve"/>
      <point x="172" y="-96"/>
      <point x="172" y="-77" type="qcurve"/>
      <point x="180" y="56"/>
      <point x="180" y="147" type="qcurve"/>
      <point x="180" y="498" type="line"/>
      <point x="180" y="533"/>
      <point x="178" y="558" type="qcurve"/>
      <point x="172" y="546"/>
      <point x="166" y="533" type="qcurve"/>
      <point x="122" y="454"/>
      <point x="56" y="360" type="qcurve"/>
      <point x="46" y="349"/>
      <point x="38" y="355" type="qcurve"/>
      <point x="32" y="362"/>
      <point x="38" y="372" type="qcurve"/>
      <point x="118" y="484"/>
      <point x="178" y="644" type="qcurve"/>
    </contour>
  </outline>
</glyph>
<glyph name="uni4FDD" format="2">
  <advance width="1024"/>
  <unicode hex="4FDD"/>
  <outline>
    <contour>
      <point x="238" y="591"/>
      <point x="253" y="581" type="qcurve"/>
      <point x="274" y="568"/>
      <point x="249" y="561" type="qcurve"/>
      <point x="235" y="556"/>
      <point x="232" y="549" type="qcurve"/>
      <point x="225" y="531"/>
      <point x="225" y="470" type="qcurve"/>
      <point x="225" y="147" type="line"/>
      <point x="225" y="29"/>
      <point x="229" y="-52" type="qcurve"/>
      <point x="227" y="-62"/>
      <point x="181" y="-89" type="qcurve"/>
      <point x="168" y="-96"/>
      <point x="169" y="-77" type="qcurve"/>
      <point x="176" y="56"/>
      <point x="177" y="147" type="qcurve"/>
      <point x="177" y="470" type="line"/>
      <point x="176" y="507"/>
      <point x="175" y="532" type="qcurve"/>
      <point x="174" y="531"/>
      <point x="174" y="530" type="qcurve"/>
      <point x="128" y="450"/>
      <point x="56" y="356" type="qcurve"/>
      <point x="46" y="345"/>
      <point x="39" y="351" type="qcurve"/>
      <point x="31" y="358"/>
      <point x="40" y="368" type="qcurve"/>
      <point x="124" y="479"/>
      <point x="191" y="642" type="qcurve"/>
      <point x="257" y="803"/>
      <point x="258" y="855" type="qcurve"/>
      <point x="259" y="873"/>
      <point x="277" y="863" type="qcurve"/>
      <point x="315" y="842"/>
      <point x="330" y="830" type="qcurve"/>
      <point x="342" y="823"/>
      <point x="341" y="817" type="qcurve"/>
      <point x="341" y="811"/>
      <point x="332" y="812" type="qcurve"/>
      <point x="323" y="813"/>
      <point x="313" y="804" type="qcurve"/>
      <point x="300" y="793"/>
      <point x="275" y="729" type="qcurve"/>
      <point x="247" y="665"/>
      <point x="211" y="598" type="qcurve"/>
    </contour>
    <contour>
      <point x="619" y="309"/>
      <point x="623" y="322" type="qcurve"/>
      <point x="625" y="327"/>
      <point x="621" y="328" type="qcurve"/>
      <point x="615" y="330"/>
      <point x="614" y="326" type="qcurve"/>
      <point x="538" y="145"/>
      <point x="289" y="-33" type="qcurve"/>
      <point x="275" y="-41"/>
      <point x="269" y="-34" type="qcurve"/>
      <point x="261" y="-21"/>
      <point x="271" y="-14" type="qcurve"/>
      <point x="475" y="142"/>
      <point x="562" y="328" type="qcurve"/>
      <point x="372" y="328" type="line"/>
      <point x="330" y="327"/>
      <point x="299" y="321" type="qcurve"/>
      <point x="290" y="318"/>
      <point x="289" y="327" type="qcurve"/>
      <point x="284" y="345"/>
      <point x="269" y="358" type="qcurve"/>
      <point x="261" y="365"/>
      <point x="265" y="369" type="qcurve"/>
      <point x="269" y="372"/>
      <point x="276" y="368" type="qcurve"/>
      <point x="314" y="359"/>
      <point x="360" y="359" type="qcurve"/>
      <point x="613" y="359" type="line"/>
      <point x="613" y="520" type="line"/>
      <point x="477" y="520" type="line"/>
      <point x="476" y="488"/>
      <point x="472" y="482" type="qcurve"/>
      <point x="437" y="455"/>
      <point x="431" y="454" type="qcurve"/>
      <point x="423" y="455"/>
      <point x="424" y="474" type="qcurve"/>
      <point x="428" y="535"/>
      <point x="429" y="677" type="qcurve"/>
      <point x="429" y="757" type="line"/>
      <point x="428" y="793"/>
      <point x="424" y="839" type="qcurve"/>
      <point x="422" y="851"/>
      <point x="426" y="852" type="qcurve"/>
      <point x="429" y="853"/>
      <point x="436" y="846" type="qcurve"/>
      <point x="448" y="833"/>
      <point x="472" y="815" type="qcurve"/>
      <point x="778" y="815" type="line"/>
      <point x="790" y="815"/>
      <point x="797" y="822" type="qcurve"/>
      <point x="822" y="848" type="line"/>
      <point x="827" y="855"/>
      <point x="836" y="849" type="qcurve"/>
      <point x="867" y="826"/>
      <point x="889" y="807" type="qcurve"/>
      <point x="896" y="799"/>
      <point x="887" y="798" type="qcurve"/>
      <point x="870" y="795"/>
      <point x="861" y="786" type="qcurve"/>
      <point x="853" y="777"/>
      <point x="853" y="767" type="qcurve"/>
      <point x="853" y="667" type="line"/>
      <point x="854" y="599"/>
      <point x="861" y="500" type="qcurve"/>
      <point x="861" y="487"/>
      <point x="851" y="481" type="qcurve"/>
      <point x="806" y="455"/>
      <point x="802" y="456" type="qcurve"/>
      <point x="798" y="458"/>
      <point x="799" y="474" type="qcurve"/>
      <point x="800" y="495"/>
      <point x="801" y="520" type="qcurve"/>
      <point x="661" y="520" type="line"/>
      <point x="661" y="359" type="line"/>
      <point x="833" y="359" type="line"/>
      <point x="847" y="360"/>
      <point x="863" y="378" type="qcurve"/>
      <point x="889" y="415" type="line"/>
      <point x="896" y="424"/>
      <point x="905" y="415" type="qcurve"/>
      <point x="976" y="352"/>
      <point x="975" y="337" type="qcurve"/>
      <point x="973" y="329"/>
      <point x="960" y="328" type="qcurve"/>
      <point x="708" y="328" type="line"/>
      <point x="765" y="202"/>
      <point x="823" y="139" type="qcurve"/>
      <point x="911" y="46"/>
      <point x="984" y="31" type="qcurve"/>
      <point x="991" y="29"/>
      <point x="988" y="22" type="qcurve"/>
      <point x="985" y="15"/>
      <point x="972" y="16" type="qcurve"/>
      <point x="955" y="17"/>
      <point x="937" y="7" type="qcurve"/>
      <point x="921" y="-4"/>
      <point x="915" y="-20" type="qcurve"/>
      <point x="911" y="-26"/>
      <point x="904" y="-19" type="qcurve"/>
      <point x="814" y="61"/>
      <point x="771" y="133" type="qcurve"/>
      <point x="728" y="201"/>
      <point x="688" y="324" type="qcurve"/>
      <point x="687" y="327"/>
      <point x="686" y="328" type="qcurve"/>
      <point x="661" y="328" type="line"/>
      <point x="661" y="151" type="line"/>
      <point x="661" y="33"/>
      <point x="665" y="-46" type="qcurve"/>
      <point x="664" y="-55"/>
      <point x="619" y="-85" type="qcurve"/>
      <point x="605" y="-94"/>
      <point x="606" y="-73" type="qcurve"/>
      <point x="613" y="60"/>
      <point x="613" y="151" type="qcurve"/>
      <point x="613" y="290" type="line"/>
    </contour>
    <contour>
      <point x="477" y="551" type="line"/>
      <point x="803" y="551" type="line"/>
      <point x="804" y="590"/>
      <point x="805" y="638" type="qcurve"/>
      <point x="805" y="784" type="line"/>
      <point x="477" y="784" type="line"/>
    </contour>
  </outline>
</glyph>
<glyph name="uni5167" format="2">
  <advance width="1024"/>
  <unicode hex="5167"/>
  <outline>
    <contour>
      <point x="447" y="620" type="qcurve"/>
      <point x="185" y="620" type="line"/>
      <point x="185" y="141" type="line"/>
      <point x="184" y="26"/>
      <point x="185" y="-55" type="qcurve"/>
      <point x="184" y="-65"/>
      <point x="177" y="-68" type="qcurve"/>
      <point x="140" y="-85"/>
      <point x="133" y="-85" type="qcurve"/>
      <point x="129" y="-84"/>
      <point x="130" y="-65" type="qcurve"/>
      <point x="134" y="35"/>
      <point x="137" y="141" type="qcurve"/>
      <point x="137" y="597" type="line"/>
      <point x="136" y="629"/>
      <point x="130" y="675" type="qcurve"/>
      <point x="128" y="685"/>
      <point x="131" y="686" type="qcurve"/>
      <point x="135" y="688"/>
      <point x="145" y="678" type="qcurve"/>
      <point x="158" y="666"/>
      <point x="177" y="651" type="qcurve"/>
      <point x="456" y="651" type="line"/>
      <point x="465" y="681"/>
      <point x="462" y="712" type="qcurve"/>
      <point x="446" y="799"/>
      <point x="415" y="817" type="qcurve"/>
      <point x="397" y="827"/>
      <point x="356" y="811" type="qcurve"/>
      <point x="351" y="809"/>
      <point x="349" y="811" type="qcurve"/>
      <point x="347" y="813"/>
      <point x="349" y="819" type="qcurve"/>
      <point x="353" y="843"/>
      <point x="354" y="855" type="qcurve"/>
      <point x="354" y="862"/>
      <point x="358" y="861" type="qcurve"/>
      <point x="373" y="856"/>
      <point x="397" y="853" type="qcurve"/>
      <point x="415" y="851"/>
      <point x="430" y="846" type="qcurve"/>
      <point x="473" y="834"/>
      <point x="505" y="703" type="qcurve"/>
      <point x="514" y="676"/>
      <point x="523" y="651" type="qcurve"/>
      <point x="788" y="651" type="line"/>
      <point x="797" y="651"/>
      <point x="798" y="652" type="qcurve"/>
      <point x="823" y="685" type="line"/>
      <point x="825" y="689"/>
      <point x="829" y="689" type="qcurve"/>
      <point x="833" y="689"/>
      <point x="837" y="685" type="qcurve"/>
      <point x="868" y="660"/>
      <point x="892" y="635" type="qcurve"/>
      <point x="899" y="626"/>
      <point x="892" y="623" type="qcurve"/>
      <point x="859" y="607"/>
      <point x="856" y="603" type="qcurve"/>
      <point x="853" y="598"/>
      <point x="853" y="594" type="qcurve"/>
      <point x="853" y="3" type="line"/>
      <point x="853" y="-32"/>
      <point x="834" y="-54" type="qcurve"/>
      <point x="814" y="-78"/>
      <point x="789" y="-87" type="qcurve"/>
      <point x="778" y="-92"/>
      <point x="775" y="-88" type="qcurve"/>
      <point x="759" y="-65"/>
      <point x="725" y="-47" type="qcurve"/>
      <point x="699" y="-33"/>
      <point x="638" y="-23" type="qcurve"/>
      <point x="628" y="-20"/>
      <point x="629" y="-11" type="qcurve"/>
      <point x="629" y="-1"/>
      <point x="642" y="-2" type="qcurve"/>
      <point x="681" y="-4"/>
      <point x="733" y="-8" type="qcurve"/>
      <point x="786" y="-11"/>
      <point x="796" y="-4" type="qcurve"/>
      <point x="805" y="-1"/>
      <point x="805" y="17" type="qcurve"/>
      <point x="805" y="620" type="line"/>
      <point x="534" y="620" type="line"/>
      <point x="565" y="533"/>
      <point x="590" y="466" type="qcurve"/>
      <point x="683" y="307"/>
      <point x="782" y="248" type="qcurve"/>
      <point x="786" y="247"/>
      <point x="785" y="241" type="qcurve"/>
      <point x="784" y="236"/>
      <point x="778" y="236" type="qcurve"/>
      <point x="766" y="240"/>
      <point x="752" y="232" type="qcurve"/>
      <point x="721" y="225"/>
      <point x="719" y="218" type="qcurve"/>
      <point x="715" y="213"/>
      <point x="709" y="218" type="qcurve"/>
      <point x="627" y="301"/>
      <point x="571" y="418" type="qcurve"/>
      <point x="539" y="497"/>
      <point x="507" y="620" type="qcurve"/>
      <point x="491" y="620" type="line"/>
      <point x="475" y="566"/>
      <point x="433" y="471" type="qcurve"/>
      <point x="354" y="308"/>
      <point x="233" y="206" type="qcurve"/>
      <point x="223" y="196"/>
      <point x="218" y="208" type="qcurve"/>
      <point x="216" y="227"/>
      <point x="224" y="234" type="qcurve"/>
      <point x="371" y="366"/>
    </contour>
  </outline>
</glyph>
<glyph name="uni5178" format="2">
  <advance width="1024"/>
  <unicode hex="5178"/>
  <outline>
    <contour>
      <point x="860" y="239"/>
      <point x="866" y="246" type="qcurve"/>
      <point x="902" y="287" type="line"/>
      <point x="909" y="294"/>
      <point x="916" y="287" type="qcurve"/>
      <point x="942" y="261"/>
      <point x="960" y="239" type="qcurve"/>
      <point x="971" y="225"/>
      <point x="964" y="215" type="qcurve"/>
      <point x="959" y="209"/>
      <point x="946" y="208" type="qcurve"/>
      <point x="165" y="208" type="line"/>
      <point x="123" y="207"/>
      <point x="92" y="201" type="qcurve"/>
      <point x="84" y="198"/>
      <point x="81" y="207" type="qcurve"/>
      <point x="77" y="225"/>
      <point x="62" y="237" type="qcurve"/>
      <point x="55" y="244"/>
      <point x="58" y="248" type="qcurve"/>
      <point x="62" y="251"/>
      <point x="69" y="247" type="qcurve"/>
      <point x="107" y="239"/>
      <point x="153" y="239" type="qcurve"/>
      <point x="206" y="239" type="line"/>
      <point x="206" y="608" type="line"/>
      <point x="206" y="663"/>
      <point x="199" y="709" type="qcurve"/>
      <point x="198" y="721"/>
      <point x="202" y="722" type="qcurve"/>
      <point x="207" y="724"/>
      <point x="214" y="715" type="qcurve"/>
      <point x="224" y="703"/>
      <point x="243" y="687" type="qcurve"/>
      <point x="394" y="687" type="line"/>
      <point x="394" y="770" type="line"/>
      <point x="393" y="809"/>
      <point x="390" y="840" type="qcurve"/>
      <point x="389" y="856"/>
      <point x="399" y="853" type="qcurve"/>
      <point x="452" y="836"/>
      <point x="470" y="827" type="qcurve"/>
      <point x="484" y="818"/>
      <point x="468" y="811" type="qcurve"/>
      <point x="453" y="803"/>
      <point x="449" y="793" type="qcurve"/>
      <point x="442" y="780"/>
      <point x="442" y="770" type="qcurve"/>
      <point x="442" y="687" type="line"/>
      <point x="590" y="687" type="line"/>
      <point x="590" y="770" type="line"/>
      <point x="589" y="809"/>
      <point x="586" y="840" type="qcurve"/>
      <point x="585" y="856"/>
      <point x="595" y="853" type="qcurve"/>
      <point x="648" y="836"/>
      <point x="666" y="827" type="qcurve"/>
      <point x="680" y="818"/>
      <point x="664" y="811" type="qcurve"/>
      <point x="649" y="803"/>
      <point x="645" y="793" type="qcurve"/>
      <point x="638" y="780"/>
      <point x="638" y="770" type="qcurve"/>
      <point x="638" y="687" type="line"/>
      <point x="755" y="687" type="line"/>
      <point x="761" y="688"/>
      <point x="765" y="692" type="qcurve"/>
      <point x="788" y="718" type="line"/>
      <point x="794" y="726"/>
      <point x="801" y="720" type="qcurve"/>
      <point x="834" y="696"/>
      <point x="862" y="671" type="qcurve"/>
      <point x="871" y="663"/>
      <point x="861" y="660" type="qcurve"/>
      <point x="844" y="657"/>
      <point x="837" y="647" type="qcurve"/>
      <point x="830" y="637"/>
      <point x="830" y="618" type="qcurve"/>
      <point x="830" y="239" type="line"/>
      <point x="854" y="239" type="line"/>
    </contour>
    <contour>
      <point x="254" y="239" type="line"/>
      <point x="394" y="239" type="line"/>
      <point x="394" y="432" type="line"/>
      <point x="254" y="432" type="line"/>
    </contour>
    <contour>
      <point x="442" y="239" type="line"/>
      <point x="590" y="239" type="line"/>
      <point x="590" y="432" type="line"/>
      <point x="442" y="432" type="line"/>
    </contour>
    <contour>
      <point x="638" y="239" type="line"/>
      <point x="782" y="239" type="line"/>
      <point x="782" y="432" type="line"/>
      <point x="638" y="432" type="line"/>
    </contour>
    <contour>
      <point x="254" y="463" type="line"/>
      <point x="394" y="463" type="line"/>
      <point x="394" y="656" type="line"/>
      <point x="254" y="656" type="line"/>
    </contour>
    <contour>
      <point x="442" y="463" type="line"/>
      <point x="590" y="463" type="line"/>
      <point x="590" y="656" type="line"/>
      <point x="442" y="656" type="line"/>
    </contour>
    <contour>
      <point x="638" y="463" type="line"/>
      <point x="782" y="463" type="line"/>
      <point x="782" y="656" type="line"/>
      <point x="638" y="656" type="line"/>
    </contour>
    <contour>
      <point x="375" y="172"/>
      <point x="382" y="166" type="qcurve"/>
      <point x="416" y="135"/>
      <point x="440" y="110" type="qcurve"/>
      <point x="447" y="102"/>
      <point x="443" y="98" type="qcurve"/>
      <point x="438" y="93"/>
      <point x="425" y="97" type="qcurve"/>
      <point x="404" y="102"/>
      <point x="377" y="75" type="qcurve"/>
      <point x="240" y="-39"/>
      <point x="105" y="-82" type="qcurve"/>
      <point x="93" y="-87"/>
      <point x="90" y="-78" type="qcurve"/>
      <point x="87" y="-69"/>
      <point x="97" y="-65" type="qcurve"/>
      <point x="269" y="18"/>
      <point x="369" y="163" type="qcurve"/>
    </contour>
    <contour>
      <point x="614" y="130"/>
      <point x="618" y="139" type="qcurve"/>
      <point x="622" y="148"/>
      <point x="635" y="142" type="qcurve"/>
      <point x="832" y="74"/>
      <point x="883" y="13" type="qcurve"/>
      <point x="905" y="-13"/>
      <point x="904" y="-38" type="qcurve"/>
      <point x="902" y="-62"/>
      <point x="898" y="-74" type="qcurve"/>
      <point x="893" y="-85"/>
      <point x="886" y="-86" type="qcurve"/>
      <point x="878" y="-87"/>
      <point x="871" y="-74" type="qcurve"/>
      <point x="812" y="23"/>
      <point x="623" y="125" type="qcurve"/>
    </contour>
  </outline>
</glyph>
<glyph name="uni52D9" format="2">
  <advance width="1024"/>
  <unicode hex="52D9"/>
  <outline>
    <contour>
      <point x="648" y="248" type="line"/>
      <point x="634" y="174"/>
      <point x="615" y="128" type="qcurve"/>
      <point x="587" y="62"/>
      <point x="538" y="19" type="qcurve"/>
      <point x="478" y="-34"/>
      <point x="354" y="-77" type="qcurve"/>
      <point x="342" y="-80"/>
      <point x="338" y="-70" type="qcurve"/>
      <point x="335" y="-58"/>
      <point x="348" y="-54" type="qcurve"/>
      <point x="460" y="-7"/>
      <point x="517" y="57" type="qcurve"/>
      <point x="571" y="118"/>
      <point x="592" y="221" type="qcurve"/>
      <point x="594" y="235"/>
      <point x="597" y="248" type="qcurve"/>
      <point x="482" y="248" type="line"/>
      <point x="455" y="248"/>
      <point x="421" y="241" type="qcurve"/>
      <point x="416" y="240"/>
      <point x="415" y="243" type="qcurve"/>
      <point x="402" y="262"/>
      <point x="392" y="278" type="qcurve"/>
      <point x="386" y="288"/>
      <point x="399" y="285" type="qcurve"/>
      <point x="460" y="280"/>
      <point x="467" y="279" type="qcurve"/>
      <point x="602" y="279" type="line"/>
      <point x="609" y="338"/>
      <point x="608" y="387" type="qcurve"/>
      <point x="608" y="394"/>
      <point x="611" y="397" type="qcurve"/>
      <point x="614" y="399"/>
      <point x="621" y="398" type="qcurve"/>
      <point x="663" y="387"/>
      <point x="697" y="371" type="qcurve"/>
      <point x="704" y="368"/>
      <point x="703" y="364" type="qcurve"/>
      <point x="702" y="360"/>
      <point x="695" y="359" type="qcurve"/>
      <point x="669" y="352"/>
      <point x="665" y="348" type="qcurve"/>
      <point x="661" y="345"/>
      <point x="661" y="339" type="qcurve"/>
      <point x="657" y="307"/>
      <point x="653" y="279" type="qcurve"/>
      <point x="820" y="279" type="line"/>
      <point x="831" y="280"/>
      <point x="835" y="284" type="qcurve"/>
      <point x="858" y="316" type="line"/>
      <point x="864" y="326"/>
      <point x="873" y="316" type="qcurve"/>
      <point x="910" y="285"/>
      <point x="932" y="260" type="qcurve"/>
      <point x="937" y="254"/>
      <point x="930" y="250" type="qcurve"/>
      <point x="901" y="237"/>
      <point x="900" y="236" type="qcurve"/>
      <point x="898" y="234"/>
      <point x="898" y="230" type="qcurve"/>
      <point x="894" y="191"/>
      <point x="888" y="119" type="qcurve"/>
      <point x="881" y="52"/>
      <point x="874" y="13" type="qcurve"/>
      <point x="868" y="-16"/>
      <point x="855" y="-29" type="qcurve"/>
      <point x="823" y="-65"/>
      <point x="780" y="-81" type="qcurve"/>
      <point x="769" y="-88"/>
      <point x="765" y="-81" type="qcurve"/>
      <point x="757" y="-69"/>
      <point x="738" y="-56" type="qcurve"/>
      <point x="711" y="-36"/>
      <point x="632" y="-23" type="qcurve"/>
      <point x="617" y="-18"/>
      <point x="618" y="-11" type="qcurve"/>
      <point x="620" y="-3"/>
      <point x="632" y="-4" type="qcurve"/>
      <point x="736" y="-15"/>
      <point x="779" y="-11" type="qcurve"/>
      <point x="803" y="-9"/>
      <point x="813" y="3" type="qcurve"/>
      <point x="822" y="11"/>
      <point x="826" y="26" type="qcurve"/>
      <point x="835" y="51"/>
      <point x="839" y="120" type="qcurve"/>
      <point x="846" y="202"/>
      <point x="850" y="248" type="qcurve"/>
    </contour>
    <contour>
      <point x="827" y="696" type="qcurve"/>
      <point x="598" y="696" type="line"/>
      <point x="648" y="605"/>
      <point x="709" y="557" type="qcurve"/>
      <point x="713" y="555"/>
      <point x="714" y="552" type="qcurve"/>
      <point x="786" y="619"/>
    </contour>
    <contour>
      <point x="880" y="687" type="qcurve"/>
      <point x="825" y="595"/>
      <point x="748" y="529" type="qcurve"/>
      <point x="881" y="449"/>
      <point x="982" y="449" type="qcurve"/>
      <point x="990" y="449"/>
      <point x="990" y="439" type="qcurve"/>
      <point x="990" y="429"/>
      <point x="975" y="428" type="qcurve"/>
      <point x="932" y="425"/>
      <point x="914" y="386" type="qcurve"/>
      <point x="911" y="380"/>
      <point x="901" y="386" type="qcurve"/>
      <point x="797" y="421"/>
      <point x="713" y="500" type="qcurve"/>
      <point x="653" y="440"/>
      <point x="452" y="340" type="qcurve"/>
      <point x="437" y="333"/>
      <point x="433" y="342" type="qcurve"/>
      <point x="425" y="355"/>
      <point x="438" y="362" type="qcurve"/>
      <point x="560" y="426"/>
      <point x="684" y="525" type="qcurve"/>
      <point x="620" y="589"/>
      <point x="577" y="682" type="qcurve"/>
      <point x="561" y="659"/>
      <point x="545" y="634" type="qcurve"/>
      <point x="510" y="584"/>
      <point x="481" y="558" type="qcurve"/>
      <point x="471" y="548"/>
      <point x="464" y="555" type="qcurve"/>
      <point x="457" y="562"/>
      <point x="466" y="572" type="qcurve"/>
      <point x="513" y="628"/>
      <point x="551" y="721" type="qcurve"/>
      <point x="600" y="828"/>
      <point x="603" y="862" type="qcurve"/>
      <point x="606" y="879"/>
      <point x="622" y="869" type="qcurve"/>
      <point x="658" y="845"/>
      <point x="673" y="832" type="qcurve"/>
      <point x="684" y="824"/>
      <point x="683" y="818" type="qcurve"/>
      <point x="682" y="813"/>
      <point x="673" y="814" type="qcurve"/>
      <point x="664" y="816"/>
      <point x="654" y="807" type="qcurve"/>
      <point x="644" y="802"/>
      <point x="605" y="727" type="qcurve"/>
      <point x="816" y="727" type="line"/>
      <point x="826" y="728"/>
      <point x="830" y="732" type="qcurve"/>
      <point x="855" y="758" type="line"/>
      <point x="858" y="762"/>
      <point x="862" y="762" type="qcurve"/>
      <point x="866" y="762"/>
      <point x="870" y="758" type="qcurve"/>
      <point x="902" y="733"/>
      <point x="921" y="711" type="qcurve"/>
      <point x="927" y="703"/>
      <point x="914" y="699" type="qcurve"/>
      <point x="893" y="693"/>
    </contour>
    <contour>
      <point x="298" y="-34"/>
      <point x="279" y="-56" type="qcurve"/>
      <point x="259" y="-78"/>
      <point x="234" y="-85" type="qcurve"/>
      <point x="221" y="-89"/>
      <point x="217" y="-82" type="qcurve"/>
      <point x="208" y="-66"/>
      <point x="174" y="-50" type="qcurve"/>
      <point x="147" y="-37"/>
      <point x="86" y="-25" type="qcurve"/>
      <point x="74" y="-24"/>
      <point x="75" y="-14" type="qcurve"/>
      <point x="75" y="-4"/>
      <point x="88" y="-5" type="qcurve"/>
      <point x="129" y="-7"/>
      <point x="184" y="-11" type="qcurve"/>
      <point x="239" y="-14"/>
      <point x="249" y="-7" type="qcurve"/>
      <point x="252" y="-3"/>
      <point x="252" y="10" type="qcurve"/>
      <point x="252" y="376" type="line"/>
      <point x="260" y="410"/>
      <point x="267" y="441" type="qcurve"/>
      <point x="268" y="447"/>
      <point x="264" y="448" type="qcurve"/>
      <point x="257" y="449"/>
      <point x="256" y="445" type="qcurve"/>
      <point x="250" y="430"/>
      <point x="246" y="412" type="qcurve"/>
      <point x="245" y="411"/>
      <point x="245" y="410" type="qcurve"/>
      <point x="245" y="409" type="line"/>
      <point x="219" y="352"/>
      <point x="191" y="300" type="qcurve"/>
      <point x="132" y="200"/>
      <point x="53" y="98" type="qcurve"/>
      <point x="44" y="87"/>
      <point x="37" y="94" type="qcurve"/>
      <point x="30" y="100"/>
      <point x="40" y="112" type="qcurve"/>
      <point x="87" y="185"/>
      <point x="133" y="273" type="qcurve"/>
      <point x="191" y="383"/>
      <point x="222" y="480" type="qcurve"/>
      <point x="130" y="480" type="line"/>
      <point x="103" y="480"/>
      <point x="69" y="473" type="qcurve"/>
      <point x="64" y="472"/>
      <point x="63" y="475" type="qcurve"/>
      <point x="50" y="494"/>
      <point x="40" y="510" type="qcurve"/>
      <point x="34" y="520"/>
      <point x="47" y="517" type="qcurve"/>
      <point x="108" y="512"/>
      <point x="115" y="511" type="qcurve"/>
      <point x="271" y="511" type="line"/>
      <point x="268" y="516"/>
      <point x="267" y="522" type="qcurve"/>
      <point x="247" y="571"/>
      <point x="216" y="602" type="qcurve"/>
      <point x="189" y="633"/>
      <point x="144" y="664" type="qcurve"/>
      <point x="137" y="669"/>
      <point x="141" y="676" type="qcurve"/>
      <point x="144" y="682"/>
      <point x="157" y="678" type="qcurve"/>
      <point x="226" y="653"/>
      <point x="263" y="625" type="qcurve"/>
      <point x="322" y="702"/>
      <point x="374" y="772" type="qcurve"/>
      <point x="162" y="772" type="line"/>
      <point x="135" y="772"/>
      <point x="101" y="765" type="qcurve"/>
      <point x="96" y="764"/>
      <point x="95" y="767" type="qcurve"/>
      <point x="82" y="786"/>
      <point x="72" y="802" type="qcurve"/>
      <point x="66" y="812"/>
      <point x="79" y="809" type="qcurve"/>
      <point x="140" y="804"/>
      <point x="147" y="803" type="qcurve"/>
      <point x="378" y="803" type="line"/>
      <point x="388" y="803"/>
      <point x="392" y="809" type="qcurve"/>
      <point x="420" y="839" type="line"/>
      <point x="423" y="843"/>
      <point x="427" y="843" type="qcurve"/>
      <point x="431" y="843"/>
      <point x="434" y="839" type="qcurve"/>
      <point x="465" y="807"/>
      <point x="483" y="783" type="qcurve"/>
      <point x="491" y="771"/>
      <point x="476" y="770" type="qcurve"/>
      <point x="449" y="766"/>
      <point x="433" y="759" type="qcurve"/>
      <point x="409" y="747"/>
      <point x="378" y="716" type="qcurve"/>
      <point x="331" y="673"/>
      <point x="282" y="612" type="qcurve"/>
      <point x="300" y="598"/>
      <point x="304" y="582" type="qcurve"/>
      <point x="311" y="563"/>
      <point x="301" y="532" type="qcurve"/>
      <point x="296" y="518"/>
      <point x="292" y="511" type="qcurve"/>
      <point x="386" y="511" type="line"/>
      <point x="396" y="511"/>
      <point x="400" y="517" type="qcurve"/>
      <point x="428" y="547" type="line"/>
      <point x="431" y="551"/>
      <point x="435" y="551" type="qcurve"/>
      <point x="439" y="551"/>
      <point x="442" y="547" type="qcurve"/>
      <point x="473" y="515"/>
      <point x="491" y="491" type="qcurve"/>
      <point x="499" y="479"/>
      <point x="484" y="478" type="qcurve"/>
      <point x="457" y="474"/>
      <point x="441" y="467" type="qcurve"/>
      <point x="426" y="456"/>
      <point x="407" y="431" type="qcurve"/>
      <point x="379" y="396"/>
      <point x="348" y="345" type="qcurve"/>
      <point x="342" y="333"/>
      <point x="332" y="337" type="qcurve"/>
      <point x="323" y="342"/>
      <point x="330" y="358" type="qcurve"/>
      <point x="358" y="422"/>
      <point x="382" y="480" type="qcurve"/>
      <point x="300" y="480" type="line"/>
      <point x="300" y="-1" type="line"/>
    </contour>
  </outline>
</glyph>
<glyph name="uni540C" format="2">
  <advance width="1024"/>
  <unicode hex="540C"/>
  <outline>
    <contour>
      <point x="876" y="-28"/>
      <point x="858" y="-53" type="qcurve"/>
      <point x="840" y="-78"/>
      <point x="813" y="-88" type="qcurve"/>
      <point x="804" y="-93"/>
      <point x="800" y="-83" type="qcurve"/>
      <point x="791" y="-62"/>
      <point x="767" y="-46" type="qcurve"/>
      <point x="743" y="-30"/>
      <point x="694" y="-26" type="qcurve"/>
      <point x="682" y="-24"/>
      <point x="683" y="-14" type="qcurve"/>
      <point x="684" y="-5"/>
      <point x="697" y="-6" type="qcurve"/>
      <point x="815" y="-11"/>
      <point x="821" y="-8" type="qcurve"/>
      <point x="828" y="-4"/>
      <point x="828" y="17" type="qcurve"/>
      <point x="828" y="772" type="line"/>
      <point x="164" y="772" type="line"/>
      <point x="164" y="137" type="line"/>
      <point x="163" y="30"/>
      <point x="164" y="-45" type="qcurve"/>
      <point x="163" y="-60"/>
      <point x="126" y="-85" type="qcurve"/>
      <point x="118" y="-89"/>
      <point x="114" y="-89" type="qcurve"/>
      <point x="108" y="-88"/>
      <point x="109" y="-69" type="qcurve"/>
      <point x="113" y="31"/>
      <point x="116" y="137" type="qcurve"/>
      <point x="116" y="745" type="line"/>
      <point x="115" y="777"/>
      <point x="109" y="823" type="qcurve"/>
      <point x="107" y="833"/>
      <point x="110" y="834" type="qcurve"/>
      <point x="111" y="834"/>
      <point x="150" y="803" type="qcurve"/>
      <point x="811" y="803" type="line"/>
      <point x="820" y="803"/>
      <point x="821" y="804" type="qcurve"/>
      <point x="846" y="837" type="line"/>
      <point x="848" y="841"/>
      <point x="852" y="841" type="qcurve"/>
      <point x="856" y="841"/>
      <point x="860" y="837" type="qcurve"/>
      <point x="891" y="812"/>
      <point x="915" y="787" type="qcurve"/>
      <point x="922" y="779"/>
      <point x="906" y="773" type="qcurve"/>
      <point x="882" y="763"/>
      <point x="879" y="759" type="qcurve"/>
      <point x="876" y="753"/>
      <point x="876" y="746" type="qcurve"/>
      <point x="876" y="6" type="line"/>
    </contour>
    <contour>
      <point x="646" y="627"/>
      <point x="652" y="634" type="qcurve"/>
      <point x="688" y="675" type="line"/>
      <point x="695" y="682"/>
      <point x="702" y="675" type="qcurve"/>
      <point x="728" y="649"/>
      <point x="746" y="627" type="qcurve"/>
      <point x="757" y="613"/>
      <point x="750" y="603" type="qcurve"/>
      <point x="745" y="597"/>
      <point x="732" y="596" type="qcurve"/>
      <point x="339" y="596" type="line"/>
      <point x="297" y="595"/>
      <point x="266" y="589" type="qcurve"/>
      <point x="258" y="586"/>
      <point x="255" y="595" type="qcurve"/>
      <point x="251" y="613"/>
      <point x="236" y="625" type="qcurve"/>
      <point x="229" y="632"/>
      <point x="232" y="636" type="qcurve"/>
      <point x="236" y="639"/>
      <point x="243" y="635" type="qcurve"/>
      <point x="281" y="627"/>
      <point x="327" y="627" type="qcurve"/>
      <point x="640" y="627" type="line"/>
    </contour>
    <contour>
      <point x="368" y="204" type="line"/>
      <point x="368" y="137" type="line"/>
      <point x="367" y="129"/>
      <point x="363" y="128" type="qcurve"/>
      <point x="353" y="124"/>
      <point x="331" y="115" type="qcurve"/>
      <point x="316" y="109"/>
      <point x="317" y="119" type="qcurve"/>
      <point x="319" y="145"/>
      <point x="320" y="170" type="qcurve"/>
      <point x="320" y="440" type="line"/>
      <point x="319" y="466"/>
      <point x="318" y="485" type="qcurve"/>
      <point x="318" y="494"/>
      <point x="322" y="495" type="qcurve"/>
      <point x="326" y="498"/>
      <point x="335" y="489" type="qcurve"/>
      <point x="348" y="476"/>
      <point x="366" y="463" type="qcurve"/>
      <point x="588" y="463" type="line"/>
      <point x="594" y="463"/>
      <point x="597" y="467" type="qcurve"/>
      <point x="615" y="495" type="line"/>
      <point x="622" y="503"/>
      <point x="629" y="496" type="qcurve"/>
      <point x="658" y="477"/>
      <point x="686" y="455" type="qcurve"/>
      <point x="692" y="449"/>
      <point x="691" y="443" type="qcurve"/>
      <point x="688" y="437"/>
      <point x="678" y="436" type="qcurve"/>
      <point x="666" y="434"/>
      <point x="660" y="424" type="qcurve"/>
      <point x="656" y="415"/>
      <point x="656" y="402" type="qcurve"/>
      <point x="656" y="254" type="line"/>
      <point x="656" y="222"/>
      <point x="662" y="167" type="qcurve"/>
      <point x="664" y="155"/>
      <point x="655" y="151" type="qcurve"/>
      <point x="620" y="131"/>
      <point x="613" y="131" type="qcurve"/>
      <point x="608" y="132"/>
      <point x="608" y="142" type="qcurve"/>
      <point x="608" y="204" type="line"/>
    </contour>
    <contour>
      <point x="368" y="235" type="line"/>
      <point x="608" y="235" type="line"/>
      <point x="608" y="432" type="line"/>
      <point x="368" y="432" type="line"/>
    </contour>
  </outline>
</glyph>
<glyph name="uni5553" format="2">
  <advance width="1024"/>
  <unicode hex="5553"/>
  <outline>
    <contour>
      <point x="712" y="259"/>
      <point x="715" y="263" type="qcurve"/>
      <point x="733" y="291" type="line"/>
      <point x="740" y="299"/>
      <point x="747" y="292" type="qcurve"/>
      <point x="776" y="273"/>
      <point x="804" y="251" type="qcurve"/>
      <point x="813" y="243"/>
      <point x="812" y="239" type="qcurve"/>
      <point x="810" y="234"/>
      <point x="803" y="230" type="qcurve"/>
      <point x="777" y="218"/>
      <point x="776" y="211" type="qcurve"/>
      <point x="774" y="205"/>
      <point x="774" y="198" type="qcurve"/>
      <point x="774" y="34" type="line"/>
      <point x="774" y="-2"/>
      <point x="780" y="-63" type="qcurve"/>
      <point x="781" y="-74"/>
      <point x="775" y="-75" type="qcurve"/>
      <point x="732" y="-90"/>
      <point x="728" y="-89" type="qcurve"/>
      <point x="726" y="-88"/>
      <point x="726" y="-78" type="qcurve"/>
      <point x="726" y="-4" type="line"/>
      <point x="294" y="-4" type="line"/>
      <point x="294" y="-63" type="line"/>
      <point x="293" y="-71"/>
      <point x="289" y="-72" type="qcurve"/>
      <point x="279" y="-76"/>
      <point x="257" y="-85" type="qcurve"/>
      <point x="242" y="-91"/>
      <point x="243" y="-81" type="qcurve"/>
      <point x="245" y="-55"/>
      <point x="246" y="-30" type="qcurve"/>
      <point x="246" y="236" type="line"/>
      <point x="245" y="262"/>
      <point x="244" y="281" type="qcurve"/>
      <point x="244" y="290"/>
      <point x="248" y="291" type="qcurve"/>
      <point x="252" y="294"/>
      <point x="261" y="285" type="qcurve"/>
      <point x="274" y="272"/>
      <point x="292" y="259" type="qcurve"/>
      <point x="706" y="259" type="line"/>
    </contour>
    <contour>
      <point x="294" y="228" type="line"/>
      <point x="294" y="27" type="line"/>
      <point x="726" y="27" type="line"/>
      <point x="726" y="228" type="line"/>
    </contour>
    <contour>
      <point x="240" y="854"/>
      <point x="244" y="860" type="qcurve"/>
      <point x="250" y="865"/>
      <point x="260" y="858" type="qcurve"/>
      <point x="306" y="833"/>
      <point x="328" y="811" type="qcurve"/>
      <point x="344" y="796"/>
      <point x="345" y="783" type="qcurve"/>
      <point x="347" y="763"/>
      <point x="331" y="735" type="qcurve"/>
      <point x="319" y="712"/>
      <point x="307" y="713" type="qcurve"/>
      <point x="296" y="714"/>
      <point x="295" y="733" type="qcurve"/>
      <point x="291" y="769"/>
      <point x="278" y="794" type="qcurve"/>
      <point x="266" y="819"/>
      <point x="244" y="847" type="qcurve"/>
    </contour>
    <contour>
      <point x="412" y="707"/>
      <point x="415" y="711" type="qcurve"/>
      <point x="433" y="739" type="line"/>
      <point x="440" y="747"/>
      <point x="447" y="740" type="qcurve"/>
      <point x="476" y="721"/>
      <point x="504" y="699" type="qcurve"/>
      <point x="513" y="691"/>
      <point x="512" y="687" type="qcurve"/>
      <point x="510" y="682"/>
      <point x="503" y="678" type="qcurve"/>
      <point x="477" y="666"/>
      <point x="476" y="659" type="qcurve"/>
      <point x="474" y="653"/>
      <point x="474" y="646" type="qcurve"/>
      <point x="474" y="562" type="line"/>
      <point x="474" y="526"/>
      <point x="480" y="465" type="qcurve"/>
      <point x="481" y="454"/>
      <point x="475" y="453" type="qcurve"/>
      <point x="432" y="438"/>
      <point x="428" y="439" type="qcurve"/>
      <point x="426" y="440"/>
      <point x="426" y="450" type="qcurve"/>
      <point x="426" y="488" type="line"/>
      <point x="182" y="488" type="line"/>
      <point x="180" y="448"/>
      <point x="176" y="412" type="qcurve"/>
      <point x="165" y="325"/>
      <point x="134" y="258" type="qcurve"/>
      <point x="103" y="190"/>
      <point x="60" y="147" type="qcurve"/>
      <point x="51" y="139"/>
      <point x="44" y="146" type="qcurve"/>
      <point x="36" y="155"/>
      <point x="45" y="165" type="qcurve"/>
      <point x="81" y="215"/>
      <point x="102" y="276" type="qcurve"/>
      <point x="123" y="339"/>
      <point x="130" y="426" type="qcurve"/>
      <point x="138" y="506"/>
      <point x="138" y="594" type="qcurve"/>
      <point x="138" y="673" type="line"/>
      <point x="138" y="715"/>
      <point x="134" y="742" type="qcurve"/>
      <point x="131" y="755"/>
      <point x="137" y="756" type="qcurve"/>
      <point x="142" y="758"/>
      <point x="149" y="748" type="qcurve"/>
      <point x="165" y="726"/>
      <point x="187" y="707" type="qcurve"/>
      <point x="406" y="707" type="line"/>
    </contour>
    <contour>
      <point x="186" y="676" type="line"/>
      <point x="186" y="594" type="line"/>
      <point x="185" y="556"/>
      <point x="184" y="519" type="qcurve"/>
      <point x="426" y="519" type="line"/>
      <point x="426" y="676" type="line"/>
    </contour>
    <contour>
      <point x="398" y="281"/>
      <point x="397" y="294" type="qcurve"/>
      <point x="395" y="308"/>
      <point x="411" y="312" type="qcurve"/>
      <point x="515" y="337"/>
      <point x="588" y="374" type="qcurve"/>
      <point x="649" y="407"/>
      <point x="688" y="444" type="qcurve"/>
      <point x="669" y="468"/>
      <point x="654" y="493" type="qcurve"/>
      <point x="625" y="541"/>
      <point x="604" y="622" type="qcurve"/>
      <point x="601" y="617"/>
      <point x="598" y="610" type="qcurve"/>
      <point x="568" y="554"/>
      <point x="520" y="488" type="qcurve"/>
      <point x="511" y="477"/>
      <point x="504" y="483" type="qcurve"/>
      <point x="497" y="490"/>
      <point x="504" y="500" type="qcurve"/>
      <point x="558" y="583"/>
      <point x="595" y="698" type="qcurve"/>
      <point x="632" y="813"/>
      <point x="631" y="849" type="qcurve"/>
      <point x="631" y="867"/>
      <point x="649" y="858" type="qcurve"/>
      <point x="688" y="838"/>
      <point x="704" y="828" type="qcurve"/>
      <point x="716" y="821"/>
      <point x="716" y="815" type="qcurve"/>
      <point x="716" y="811"/>
      <point x="703" y="808" type="qcurve"/>
      <point x="693" y="806"/>
      <point x="687" y="800" type="qcurve"/>
      <point x="678" y="793"/>
      <point x="662" y="748" type="qcurve"/>
      <point x="652" y="729"/>
      <point x="645" y="707" type="qcurve"/>
      <point x="830" y="707" type="line"/>
      <point x="843" y="707"/>
      <point x="853" y="719" type="qcurve"/>
      <point x="888" y="760" type="line"/>
      <point x="897" y="768"/>
      <point x="904" y="761" type="qcurve"/>
      <point x="930" y="733"/>
      <point x="949" y="708" type="qcurve"/>
      <point x="960" y="693"/>
      <point x="957" y="684" type="qcurve"/>
      <point x="954" y="677"/>
      <point x="939" y="676" type="qcurve"/>
      <point x="855" y="676" type="line"/>
      <point x="825" y="562"/>
      <point x="770" y="478" type="qcurve"/>
      <point x="759" y="463"/>
      <point x="747" y="448" type="qcurve"/>
      <point x="774" y="425"/>
      <point x="807" y="406" type="qcurve"/>
      <point x="867" y="369"/>
      <point x="954" y="344" type="qcurve"/>
      <point x="969" y="340"/>
      <point x="979" y="336" type="qcurve"/>
      <point x="985" y="334"/>
      <point x="984" y="327" type="qcurve"/>
      <point x="983" y="320"/>
      <point x="977" y="320" type="qcurve"/>
      <point x="956" y="318"/>
      <point x="934" y="308" type="qcurve"/>
      <point x="910" y="298"/>
      <point x="897" y="283" type="qcurve"/>
      <point x="891" y="276"/>
      <point x="881" y="282" type="qcurve"/>
      <point x="779" y="346"/>
      <point x="730" y="395" type="qcurve"/>
      <point x="721" y="405"/>
      <point x="714" y="412" type="qcurve"/>
      <point x="677" y="377"/>
      <point x="632" y="355" type="qcurve"/>
      <point x="540" y="308"/>
      <point x="416" y="283" type="qcurve"/>
    </contour>
    <contour>
      <point x="771" y="555"/>
      <point x="801" y="676" type="qcurve"/>
      <point x="631" y="676" type="line"/>
      <point x="624" y="665"/>
      <point x="620" y="653" type="qcurve"/>
      <point x="651" y="556"/>
      <point x="699" y="498" type="qcurve"/>
      <point x="707" y="487"/>
      <point x="716" y="477" type="qcurve"/>
      <point x="716" y="478"/>
      <point x="717" y="478" type="qcurve"/>
    </contour>
  </outline>
</glyph>
<glyph name="uni55E3" format="2">
  <advance width="1024"/>
  <unicode hex="55E3"/>
  <outline>
    <contour>
      <point x="168" y="604" type="line"/>
      <point x="168" y="565" type="line"/>
      <point x="167" y="557"/>
      <point x="163" y="556" type="qcurve"/>
      <point x="153" y="552"/>
      <point x="131" y="543" type="qcurve"/>
      <point x="116" y="537"/>
      <point x="117" y="547" type="qcurve"/>
      <point x="119" y="573"/>
      <point x="120" y="598" type="qcurve"/>
      <point x="120" y="776" type="line"/>
      <point x="119" y="802"/>
      <point x="118" y="821" type="qcurve"/>
      <point x="118" y="830"/>
      <point x="122" y="831" type="qcurve"/>
      <point x="126" y="834"/>
      <point x="135" y="825" type="qcurve"/>
      <point x="148" y="812"/>
      <point x="166" y="799" type="qcurve"/>
      <point x="380" y="799" type="line"/>
      <point x="386" y="799"/>
      <point x="389" y="803" type="qcurve"/>
      <point x="407" y="831" type="line"/>
      <point x="414" y="839"/>
      <point x="421" y="832" type="qcurve"/>
      <point x="450" y="813"/>
      <point x="478" y="791" type="qcurve"/>
      <point x="484" y="785"/>
      <point x="483" y="779" type="qcurve"/>
      <point x="480" y="773"/>
      <point x="470" y="772" type="qcurve"/>
      <point x="458" y="770"/>
      <point x="452" y="760" type="qcurve"/>
      <point x="448" y="751"/>
      <point x="448" y="738" type="qcurve"/>
      <point x="448" y="674" type="line"/>
      <point x="448" y="642"/>
      <point x="454" y="587" type="qcurve"/>
      <point x="456" y="575"/>
      <point x="447" y="571" type="qcurve"/>
      <point x="412" y="551"/>
      <point x="405" y="551" type="qcurve"/>
      <point x="400" y="552"/>
      <point x="400" y="562" type="qcurve"/>
      <point x="400" y="604" type="line"/>
    </contour>
    <contour>
      <point x="168" y="635" type="line"/>
      <point x="400" y="635" type="line"/>
      <point x="400" y="768" type="line"/>
      <point x="168" y="768" type="line"/>
    </contour>
    <contour>
      <point x="359" y="247" type="line"/>
      <point x="358" y="129"/>
      <point x="362" y="48" type="qcurve"/>
      <point x="361" y="39"/>
      <point x="319" y="12" type="qcurve"/>
      <point x="307" y="4"/>
      <point x="308" y="23" type="qcurve"/>
      <point x="314" y="156"/>
      <point x="314" y="247" type="qcurve"/>
      <point x="314" y="260" type="line"/>
      <point x="235" y="260" type="line"/>
      <point x="235" y="215" type="line"/>
      <point x="234" y="97"/>
      <point x="238" y="16" type="qcurve"/>
      <point x="237" y="7"/>
      <point x="195" y="-20" type="qcurve"/>
      <point x="183" y="-28"/>
      <point x="184" y="-9" type="qcurve"/>
      <point x="190" y="124"/>
      <point x="190" y="215" type="qcurve"/>
      <point x="190" y="260" type="line"/>
      <point x="108" y="260" type="line"/>
      <point x="108" y="133" type="line"/>
      <point x="107" y="-56"/>
      <point x="103" y="-62" type="qcurve"/>
      <point x="68" y="-89"/>
      <point x="62" y="-90" type="qcurve"/>
      <point x="54" y="-89"/>
      <point x="55" y="-70" type="qcurve"/>
      <point x="59" y="-9"/>
      <point x="60" y="133" type="qcurve"/>
      <point x="60" y="429" type="line"/>
      <point x="59" y="465"/>
      <point x="55" y="511" type="qcurve"/>
      <point x="53" y="523"/>
      <point x="57" y="524" type="qcurve"/>
      <point x="60" y="525"/>
      <point x="67" y="518" type="qcurve"/>
      <point x="79" y="505"/>
      <point x="103" y="487" type="qcurve"/>
      <point x="418" y="487" type="line"/>
      <point x="426" y="487"/>
      <point x="430" y="491" type="qcurve"/>
      <point x="456" y="526" type="line"/>
      <point x="464" y="534"/>
      <point x="471" y="527" type="qcurve"/>
      <point x="503" y="500"/>
      <point x="518" y="475" type="qcurve"/>
      <point x="525" y="465"/>
      <point x="518" y="464" type="qcurve"/>
      <point x="508" y="462"/>
      <point x="502" y="455" type="qcurve"/>
      <point x="496" y="448"/>
      <point x="496" y="432" type="qcurve"/>
      <point x="496" y="-9" type="line"/>
      <point x="496" y="-38"/>
      <point x="480" y="-57" type="qcurve"/>
      <point x="465" y="-76"/>
      <point x="426" y="-88" type="qcurve"/>
      <point x="415" y="-91"/>
      <point x="415" y="-85" type="qcurve"/>
      <point x="413" y="-63"/>
      <point x="406" y="-53" type="qcurve"/>
      <point x="398" y="-41"/>
      <point x="349" y="-26" type="qcurve"/>
      <point x="339" y="-24"/>
      <point x="340" y="-12" type="qcurve"/>
      <point x="343" y="-1"/>
      <point x="355" y="-4" type="qcurve"/>
      <point x="429" y="-22"/>
      <point x="439" y="-16" type="qcurve"/>
      <point x="448" y="-10"/>
      <point x="448" y="5" type="qcurve"/>
      <point x="448" y="260" type="line"/>
      <point x="359" y="260" type="line"/>
    </contour>
    <contour>
      <point x="314" y="456" type="line"/>
      <point x="235" y="456" type="line"/>
      <point x="235" y="291" type="line"/>
      <point x="314" y="291" type="line"/>
    </contour>
    <contour>
      <point x="359" y="291" type="line"/>
      <point x="448" y="291" type="line"/>
      <point x="448" y="456" type="line"/>
      <point x="359" y="456" type="line"/>
    </contour>
    <contour>
      <point x="190" y="456" type="line"/>
      <point x="108" y="456" type="line"/>
      <point x="108" y="291" type="line"/>
      <point x="190" y="291" type="line"/>
    </contour>
    <contour>
      <point x="732" y="631"/>
      <point x="738" y="638" type="qcurve"/>
      <point x="774" y="679" type="line"/>
      <point x="781" y="686"/>
      <point x="788" y="679" type="qcurve"/>
      <point x="814" y="653"/>
      <point x="832" y="631" type="qcurve"/>
      <point x="843" y="617"/>
      <point x="836" y="607" type="qcurve"/>
      <point x="831" y="601"/>
      <point x="818" y="600" type="qcurve"/>
      <point x="609" y="600" type="line"/>
      <point x="567" y="599"/>
      <point x="536" y="593" type="qcurve"/>
      <point x="528" y="590"/>
      <point x="525" y="599" type="qcurve"/>
      <point x="521" y="617"/>
      <point x="506" y="629" type="qcurve"/>
      <point x="499" y="636"/>
      <point x="502" y="640" type="qcurve"/>
      <point x="506" y="643"/>
      <point x="513" y="639" type="qcurve"/>
      <point x="551" y="631"/>
      <point x="597" y="631" type="qcurve"/>
      <point x="726" y="631" type="line"/>
    </contour>
    <contour>
      <point x="626" y="192" type="line"/>
      <point x="626" y="113" type="line"/>
      <point x="625" y="105"/>
      <point x="621" y="104" type="qcurve"/>
      <point x="611" y="100"/>
      <point x="589" y="91" type="qcurve"/>
      <point x="574" y="85"/>
      <point x="575" y="95" type="qcurve"/>
      <point x="577" y="121"/>
      <point x="578" y="146" type="qcurve"/>
      <point x="578" y="452" type="line"/>
      <point x="577" y="478"/>
      <point x="576" y="497" type="qcurve"/>
      <point x="576" y="506"/>
      <point x="580" y="507" type="qcurve"/>
      <point x="584" y="510"/>
      <point x="593" y="501" type="qcurve"/>
      <point x="606" y="488"/>
      <point x="624" y="475" type="qcurve"/>
      <point x="730" y="475" type="line"/>
      <point x="736" y="475"/>
      <point x="739" y="479" type="qcurve"/>
      <point x="757" y="507" type="line"/>
      <point x="764" y="515"/>
      <point x="771" y="508" type="qcurve"/>
      <point x="800" y="489"/>
      <point x="828" y="467" type="qcurve"/>
      <point x="834" y="461"/>
      <point x="833" y="455" type="qcurve"/>
      <point x="830" y="449"/>
      <point x="820" y="448" type="qcurve"/>
      <point x="808" y="446"/>
      <point x="802" y="436" type="qcurve"/>
      <point x="798" y="427"/>
      <point x="798" y="414" type="qcurve"/>
      <point x="798" y="258" type="line"/>
      <point x="798" y="226"/>
      <point x="804" y="171" type="qcurve"/>
      <point x="806" y="159"/>
      <point x="797" y="155" type="qcurve"/>
      <point x="762" y="135"/>
      <point x="755" y="135" type="qcurve"/>
      <point x="750" y="136"/>
      <point x="750" y="146" type="qcurve"/>
      <point x="750" y="192" type="line"/>
    </contour>
    <contour>
      <point x="626" y="223" type="line"/>
      <point x="750" y="223" type="line"/>
      <point x="750" y="444" type="line"/>
      <point x="626" y="444" type="line"/>
    </contour>
    <contour>
      <point x="865" y="791" type="line"/>
      <point x="874" y="791"/>
      <point x="875" y="792" type="qcurve"/>
      <point x="900" y="825" type="line"/>
      <point x="902" y="829"/>
      <point x="906" y="829" type="qcurve"/>
      <point x="910" y="829"/>
      <point x="914" y="825" type="qcurve"/>
      <point x="945" y="800"/>
      <point x="969" y="775" type="qcurve"/>
      <point x="976" y="767"/>
      <point x="960" y="761" type="qcurve"/>
      <point x="936" y="751"/>
      <point x="933" y="747" type="qcurve"/>
      <point x="930" y="741"/>
      <point x="930" y="734" type="qcurve"/>
      <point x="930" y="10" type="line"/>
      <point x="930" y="-24"/>
      <point x="912" y="-49" type="qcurve"/>
      <point x="894" y="-74"/>
      <point x="867" y="-84" type="qcurve"/>
      <point x="858" y="-88"/>
      <point x="854" y="-79" type="qcurve"/>
      <point x="845" y="-58"/>
      <point x="823" y="-42" type="qcurve"/>
      <point x="801" y="-26"/>
      <point x="752" y="-22" type="qcurve"/>
      <point x="740" y="-20"/>
      <point x="741" y="-10" type="qcurve"/>
      <point x="742" y="-1"/>
      <point x="755" y="-2" type="qcurve"/>
      <point x="869" y="-7"/>
      <point x="875" y="-4" type="qcurve"/>
      <point x="882" y="0"/>
      <point x="882" y="21" type="qcurve"/>
      <point x="882" y="760" type="line"/>
      <point x="623" y="760" type="line"/>
      <point x="581" y="759"/>
      <point x="550" y="753" type="qcurve"/>
      <point x="541" y="750"/>
      <point x="540" y="759" type="qcurve"/>
      <point x="535" y="777"/>
      <point x="520" y="790" type="qcurve"/>
      <point x="512" y="797"/>
      <point x="516" y="801" type="qcurve"/>
      <point x="520" y="804"/>
      <point x="527" y="800" type="qcurve"/>
      <point x="565" y="791"/>
      <point x="611" y="791" type="qcurve"/>
    </contour>
  </outline>
</glyph>
<glyph name="uni570B" format="2">
  <advance width="1024"/>
  <unicode hex="570B"/>
  <outline>
    <contour>
      <point x="249" y="502"/>
      <point x="248" y="521" type="qcurve"/>
      <point x="248" y="530"/>
      <point x="252" y="531" type="qcurve"/>
      <point x="256" y="534"/>
      <point x="265" y="525" type="qcurve"/>
      <point x="278" y="512"/>
      <point x="296" y="499" type="qcurve"/>
      <point x="396" y="499" type="line"/>
      <point x="404" y="498"/>
      <point x="407" y="501" type="qcurve"/>
      <point x="425" y="523" type="line"/>
      <point x="433" y="535"/>
      <point x="442" y="526" type="qcurve"/>
      <point x="463" y="508"/>
      <point x="482" y="487" type="qcurve"/>
      <point x="488" y="479"/>
      <point x="488" y="478" type="qcurve"/>
      <point x="488" y="477"/>
      <point x="484" y="474" type="qcurve"/>
      <point x="464" y="463"/>
      <point x="463" y="459" type="qcurve"/>
      <point x="462" y="455"/>
      <point x="462" y="452" type="qcurve"/>
      <point x="462" y="344" type="line"/>
      <point x="462" y="333"/>
      <point x="466" y="312" type="qcurve"/>
      <point x="466" y="303"/>
      <point x="462" y="300" type="qcurve"/>
      <point x="427" y="281"/>
      <point x="420" y="281" type="qcurve"/>
      <point x="413" y="281"/>
      <point x="414" y="291" type="qcurve"/>
      <point x="414" y="316" type="line"/>
      <point x="298" y="316" type="line"/>
      <point x="298" y="281" type="line"/>
      <point x="297" y="273"/>
      <point x="293" y="272" type="qcurve"/>
      <point x="283" y="268"/>
      <point x="261" y="259" type="qcurve"/>
      <point x="246" y="253"/>
      <point x="247" y="263" type="qcurve"/>
      <point x="249" y="289"/>
      <point x="250" y="314" type="qcurve"/>
      <point x="250" y="476" type="line"/>
    </contour>
    <contour>
      <point x="298" y="347" type="line"/>
      <point x="414" y="347" type="line"/>
      <point x="414" y="468" type="line"/>
      <point x="298" y="468" type="line"/>
    </contour>
    <contour>
      <point x="254" y="190"/>
      <point x="324" y="209" type="qcurve"/>
      <point x="427" y="237"/>
      <point x="508" y="261" type="qcurve"/>
      <point x="522" y="266"/>
      <point x="525" y="257" type="qcurve"/>
      <point x="527" y="246"/>
      <point x="512" y="240" type="qcurve"/>
      <point x="383" y="183"/>
      <point x="298" y="153" type="qcurve"/>
      <point x="278" y="144"/>
      <point x="244" y="116" type="qcurve"/>
      <point x="239" y="112"/>
      <point x="235" y="111" type="qcurve"/>
      <point x="231" y="110"/>
      <point x="227" y="119" type="qcurve"/>
      <point x="215" y="144"/>
      <point x="193" y="163" type="qcurve"/>
      <point x="180" y="173"/>
      <point x="181" y="176" type="qcurve"/>
      <point x="183" y="180"/>
      <point x="193" y="181" type="qcurve"/>
    </contour>
    <contour>
      <point x="526" y="694"/>
      <point x="520" y="734" type="qcurve"/>
      <point x="519" y="742"/>
      <point x="522" y="745" type="qcurve"/>
      <point x="524" y="746"/>
      <point x="530" y="745" type="qcurve"/>
      <point x="561" y="734"/>
      <point x="597" y="719" type="qcurve"/>
      <point x="605" y="716"/>
      <point x="605" y="712" type="qcurve"/>
      <point x="605" y="708"/>
      <point x="602" y="707" type="qcurve"/>
      <point x="596" y="704"/>
      <point x="586" y="698" type="qcurve"/>
      <point x="577" y="693"/>
      <point x="577" y="677" type="qcurve"/>
      <point x="576" y="650"/>
      <point x="577" y="623" type="qcurve"/>
      <point x="680" y="623" type="line"/>
      <point x="694" y="624"/>
      <point x="698" y="625" type="qcurve"/>
      <point x="704" y="628"/>
      <point x="710" y="632" type="qcurve"/>
      <point x="730" y="651" type="line"/>
      <point x="735" y="657"/>
      <point x="741" y="651" type="qcurve"/>
      <point x="774" y="632"/>
      <point x="799" y="614" type="qcurve"/>
      <point x="811" y="607"/>
      <point x="810" y="601" type="qcurve"/>
      <point x="809" y="593"/>
      <point x="793" y="592" type="qcurve"/>
      <point x="577" y="592" type="line"/>
      <point x="580" y="490"/>
      <point x="590" y="414" type="qcurve"/>
      <point x="596" y="353"/>
      <point x="611" y="308" type="qcurve"/>
      <point x="623" y="328"/>
      <point x="636" y="349" type="qcurve"/>
      <point x="688" y="440"/>
      <point x="704" y="501" type="qcurve"/>
      <point x="706" y="510"/>
      <point x="709" y="511" type="qcurve"/>
      <point x="713" y="513"/>
      <point x="717" y="510" type="qcurve"/>
      <point x="742" y="494"/>
      <point x="776" y="472" type="qcurve"/>
      <point x="783" y="466"/>
      <point x="782" y="462" type="qcurve"/>
      <point x="780" y="458"/>
      <point x="774" y="457" type="qcurve"/>
      <point x="743" y="450"/>
      <point x="739" y="446" type="qcurve"/>
      <point x="737" y="444"/>
      <point x="718" y="408" type="qcurve"/>
      <point x="672" y="318"/>
      <point x="630" y="260" type="qcurve"/>
      <point x="660" y="204"/>
      <point x="712" y="162" type="qcurve"/>
      <point x="731" y="148"/>
      <point x="738" y="152" type="qcurve"/>
      <point x="749" y="161"/>
      <point x="753" y="222" type="qcurve"/>
      <point x="755" y="252"/>
      <point x="758" y="280" type="qcurve"/>
      <point x="760" y="294"/>
      <point x="772" y="293" type="qcurve"/>
      <point x="783" y="292"/>
      <point x="782" y="276" type="qcurve"/>
      <point x="775" y="223"/>
      <point x="776" y="171" type="qcurve"/>
      <point x="778" y="122"/>
      <point x="791" y="89" type="qcurve"/>
      <point x="797" y="76"/>
      <point x="788" y="69" type="qcurve"/>
      <point x="780" y="62"/>
      <point x="749" y="80" type="qcurve"/>
      <point x="672" y="126"/>
      <point x="629" y="181" type="qcurve"/>
      <point x="613" y="201"/>
      <point x="600" y="223" type="qcurve"/>
      <point x="598" y="221"/>
      <point x="597" y="218" type="qcurve"/>
      <point x="530" y="147"/>
      <point x="391" y="65" type="qcurve"/>
      <point x="371" y="53"/>
      <point x="365" y="63" type="qcurve"/>
      <point x="360" y="75"/>
      <point x="370" y="82" type="qcurve"/>
      <point x="477" y="152"/>
      <point x="531" y="204" type="qcurve"/>
      <point x="555" y="231"/>
      <point x="580" y="262" type="qcurve"/>
      <point x="571" y="285"/>
      <point x="564" y="307" type="qcurve"/>
      <point x="538" y="392"/>
      <point x="534" y="551" type="qcurve"/>
      <point x="532" y="573"/>
      <point x="532" y="592" type="qcurve"/>
      <point x="296" y="592" type="line"/>
      <point x="269" y="592"/>
      <point x="235" y="585" type="qcurve"/>
      <point x="230" y="584"/>
      <point x="229" y="587" type="qcurve"/>
      <point x="216" y="607"/>
      <point x="206" y="623" type="qcurve"/>
      <point x="200" y="633"/>
      <point x="213" y="630" type="qcurve"/>
      <point x="274" y="624"/>
      <point x="281" y="623" type="qcurve"/>
      <point x="530" y="623" type="line"/>
    </contour>
    <contour>
      <point x="627" y="728"/>
      <point x="631" y="735" type="qcurve"/>
      <point x="635" y="744"/>
      <point x="648" y="737" type="qcurve"/>
      <point x="683" y="726"/>
      <point x="704" y="713" type="qcurve"/>
      <point x="719" y="703"/>
      <point x="720" y="696" type="qcurve"/>
      <point x="724" y="673"/>
      <point x="712" y="660" type="qcurve"/>
      <point x="700" y="645"/>
      <point x="694" y="644" type="qcurve"/>
      <point x="688" y="643"/>
      <point x="679" y="661" type="qcurve"/>
      <point x="671" y="681"/>
      <point x="661" y="694" type="qcurve"/>
      <point x="649" y="712"/>
      <point x="636" y="722" type="qcurve"/>
    </contour>
    <contour>
      <point x="823" y="807"/>
      <point x="830" y="814" type="qcurve"/>
      <point x="855" y="840" type="line"/>
      <point x="860" y="847"/>
      <point x="869" y="841" type="qcurve"/>
      <point x="900" y="818"/>
      <point x="922" y="799" type="qcurve"/>
      <point x="929" y="792"/>
      <point x="923" y="789" type="qcurve"/>
      <point x="894" y="768"/>
      <point x="891" y="765" type="qcurve"/>
      <point x="886" y="762"/>
      <point x="886" y="759" type="qcurve"/>
      <point x="886" y="119" type="line"/>
      <point x="884" y="47"/>
      <point x="890" y="-59" type="qcurve"/>
      <point x="891" y="-67"/>
      <point x="884" y="-68" type="qcurve"/>
      <point x="864" y="-78"/>
      <point x="845" y="-85" type="qcurve"/>
      <point x="838" y="-88"/>
      <point x="838" y="-73" type="qcurve"/>
      <point x="838" y="-12" type="line"/>
      <point x="153" y="-12" type="line"/>
      <point x="153" y="-34"/>
      <point x="154" y="-55" type="qcurve"/>
      <point x="153" y="-65"/>
      <point x="146" y="-68" type="qcurve"/>
      <point x="109" y="-85"/>
      <point x="102" y="-85" type="qcurve"/>
      <point x="98" y="-84"/>
      <point x="99" y="-65" type="qcurve"/>
      <point x="103" y="35"/>
      <point x="106" y="141" type="qcurve"/>
      <point x="106" y="749" type="line"/>
      <point x="105" y="781"/>
      <point x="99" y="827" type="qcurve"/>
      <point x="97" y="837"/>
      <point x="100" y="838" type="qcurve"/>
      <point x="104" y="840"/>
      <point x="114" y="830" type="qcurve"/>
      <point x="124" y="820"/>
      <point x="140" y="807" type="qcurve"/>
      <point x="811" y="807" type="line"/>
    </contour>
    <contour>
      <point x="838" y="776" type="line"/>
      <point x="154" y="776" type="line"/>
      <point x="154" y="141" type="line"/>
      <point x="153" y="74"/>
      <point x="153" y="19" type="qcurve"/>
      <point x="838" y="19" type="line"/>
    </contour>
  </outline>
</glyph>
<glyph name="uni5831" format="2">
  <advance width="1024"/>
  <unicode hex="5831"/>
  <outline>
    <contour>
      <point x="100" y="548"/>
      <point x="66" y="541" type="qcurve"/>
      <point x="61" y="540"/>
      <point x="60" y="543" type="qcurve"/>
      <point x="47" y="562"/>
      <point x="37" y="578" type="qcurve"/>
      <point x="31" y="588"/>
      <point x="44" y="585" type="qcurve"/>
      <point x="105" y="580"/>
      <point x="112" y="579" type="qcurve"/>
      <point x="245" y="579" type="line"/>
      <point x="245" y="704" type="line"/>
      <point x="155" y="704" type="line"/>
      <point x="128" y="704"/>
      <point x="94" y="697" type="qcurve"/>
      <point x="89" y="696"/>
      <point x="88" y="699" type="qcurve"/>
      <point x="75" y="718"/>
      <point x="65" y="734" type="qcurve"/>
      <point x="59" y="744"/>
      <point x="72" y="741" type="qcurve"/>
      <point x="133" y="736"/>
      <point x="140" y="735" type="qcurve"/>
      <point x="245" y="735" type="line"/>
      <point x="245" y="774" type="line"/>
      <point x="244" y="813"/>
      <point x="241" y="844" type="qcurve"/>
      <point x="240" y="860"/>
      <point x="250" y="857" type="qcurve"/>
      <point x="304" y="840"/>
      <point x="326" y="828" type="qcurve"/>
      <point x="335" y="823"/>
      <point x="326" y="817" type="qcurve"/>
      <point x="304" y="801"/>
      <point x="300" y="797" type="qcurve"/>
      <point x="293" y="790"/>
      <point x="293" y="774" type="qcurve"/>
      <point x="293" y="735" type="line"/>
      <point x="393" y="735" type="line"/>
      <point x="399" y="735"/>
      <point x="405" y="742" type="qcurve"/>
      <point x="441" y="783" type="line"/>
      <point x="448" y="790"/>
      <point x="455" y="783" type="qcurve"/>
      <point x="481" y="757"/>
      <point x="499" y="735" type="qcurve"/>
      <point x="510" y="721"/>
      <point x="503" y="711" type="qcurve"/>
      <point x="498" y="705"/>
      <point x="485" y="704" type="qcurve"/>
      <point x="293" y="704" type="line"/>
      <point x="293" y="579" type="line"/>
      <point x="413" y="579" type="line"/>
      <point x="419" y="579"/>
      <point x="425" y="586" type="qcurve"/>
      <point x="461" y="627" type="line"/>
      <point x="468" y="634"/>
      <point x="475" y="627" type="qcurve"/>
      <point x="501" y="601"/>
      <point x="519" y="579" type="qcurve"/>
      <point x="530" y="565"/>
      <point x="523" y="555" type="qcurve"/>
      <point x="518" y="549"/>
      <point x="505" y="548" type="qcurve"/>
      <point x="127" y="548" type="line"/>
    </contour>
    <contour>
      <point x="119" y="514"/>
      <point x="123" y="520" type="qcurve"/>
      <point x="128" y="523"/>
      <point x="138" y="516" type="qcurve"/>
      <point x="182" y="485"/>
      <point x="204" y="458" type="qcurve"/>
      <point x="218" y="440"/>
      <point x="219" y="427" type="qcurve"/>
      <point x="218" y="408"/>
      <point x="202" y="383" type="qcurve"/>
      <point x="187" y="363"/>
      <point x="177" y="364" type="qcurve"/>
      <point x="168" y="366"/>
      <point x="168" y="384" type="qcurve"/>
      <point x="167" y="422"/>
      <point x="155" y="450" type="qcurve"/>
      <point x="144" y="477"/>
      <point x="122" y="508" type="qcurve"/>
    </contour>
    <contour>
      <point x="245" y="324" type="line"/>
      <point x="159" y="324" type="line"/>
      <point x="132" y="324"/>
      <point x="98" y="317" type="qcurve"/>
      <point x="93" y="316"/>
      <point x="92" y="319" type="qcurve"/>
      <point x="79" y="338"/>
      <point x="69" y="354" type="qcurve"/>
      <point x="63" y="364"/>
      <point x="76" y="361" type="qcurve"/>
      <point x="137" y="356"/>
      <point x="144" y="355" type="qcurve"/>
      <point x="301" y="355" type="line"/>
      <point x="303" y="359"/>
      <point x="306" y="363" type="qcurve"/>
      <point x="329" y="405"/>
      <point x="341" y="441" type="qcurve"/>
      <point x="355" y="483"/>
      <point x="362" y="526" type="qcurve"/>
      <point x="364" y="533"/>
      <point x="367" y="534" type="qcurve"/>
      <point x="370" y="536"/>
      <point x="376" y="533" type="qcurve"/>
      <point x="404" y="520"/>
      <point x="438" y="498" type="qcurve"/>
      <point x="442" y="496"/>
      <point x="441" y="493" type="qcurve"/>
      <point x="441" y="490"/>
      <point x="437" y="489" type="qcurve"/>
      <point x="398" y="462"/>
      <point x="391" y="449" type="qcurve"/>
      <point x="389" y="447"/>
      <point x="380" y="429" type="qcurve"/>
      <point x="363" y="400"/>
      <point x="332" y="355" type="qcurve"/>
      <point x="397" y="355" type="line"/>
      <point x="403" y="355"/>
      <point x="409" y="362" type="qcurve"/>
      <point x="445" y="403" type="line"/>
      <point x="452" y="410"/>
      <point x="459" y="403" type="qcurve"/>
      <point x="485" y="377"/>
      <point x="503" y="355" type="qcurve"/>
      <point x="514" y="341"/>
      <point x="507" y="331" type="qcurve"/>
      <point x="502" y="325"/>
      <point x="489" y="324" type="qcurve"/>
      <point x="293" y="324" type="line"/>
      <point x="293" y="191" type="line"/>
      <point x="421" y="191" type="line"/>
      <point x="427" y="191"/>
      <point x="433" y="198" type="qcurve"/>
      <point x="469" y="239" type="line"/>
      <point x="476" y="246"/>
      <point x="483" y="239" type="qcurve"/>
      <point x="509" y="213"/>
      <point x="527" y="191" type="qcurve"/>
      <point x="538" y="177"/>
      <point x="531" y="167" type="qcurve"/>
      <point x="526" y="161"/>
      <point x="513" y="160" type="qcurve"/>
      <point x="293" y="160" type="line"/>
      <point x="293" y="151" type="line"/>
      <point x="293" y="26"/>
      <point x="297" y="-59" type="qcurve"/>
      <point x="297" y="-68"/>
      <point x="290" y="-69" type="qcurve"/>
      <point x="246" y="-87" type="line"/>
      <point x="237" y="-89"/>
      <point x="238" y="-73" type="qcurve"/>
      <point x="244" y="60"/>
      <point x="245" y="151" type="qcurve"/>
      <point x="245" y="160" type="line"/>
      <point x="127" y="160" type="line"/>
      <point x="100" y="160"/>
      <point x="66" y="153" type="qcurve"/>
      <point x="61" y="152"/>
      <point x="60" y="155" type="qcurve"/>
      <point x="47" y="174"/>
      <point x="37" y="190" type="qcurve"/>
      <point x="31" y="200"/>
      <point x="44" y="197" type="qcurve"/>
      <point x="105" y="192"/>
      <point x="112" y="191" type="qcurve"/>
      <point x="245" y="191" type="line"/>
    </contour>
    <contour>
      <point x="548" y="769"/>
      <point x="542" y="815" type="qcurve"/>
      <point x="540" y="825"/>
      <point x="543" y="826" type="qcurve"/>
      <point x="547" y="828"/>
      <point x="557" y="818" type="qcurve"/>
      <point x="570" y="806"/>
      <point x="589" y="791" type="qcurve"/>
      <point x="801" y="791" type="line"/>
      <point x="812" y="792"/>
      <point x="816" y="796" type="qcurve"/>
      <point x="839" y="828" type="line"/>
      <point x="845" y="838"/>
      <point x="854" y="828" type="qcurve"/>
      <point x="891" y="798"/>
      <point x="913" y="774" type="qcurve"/>
      <point x="919" y="767"/>
      <point x="912" y="764" type="qcurve"/>
      <point x="883" y="749"/>
      <point x="882" y="748" type="qcurve"/>
      <point x="880" y="747"/>
      <point x="880" y="744" type="qcurve"/>
      <point x="878" y="713"/>
      <point x="875" y="658" type="qcurve"/>
      <point x="870" y="607"/>
      <point x="866" y="576" type="qcurve"/>
      <point x="862" y="554"/>
      <point x="852" y="544" type="qcurve"/>
      <point x="820" y="508"/>
      <point x="777" y="490" type="qcurve"/>
      <point x="769" y="485"/>
      <point x="766" y="491" type="qcurve"/>
      <point x="759" y="502"/>
      <point x="746" y="512" type="qcurve"/>
      <point x="726" y="529"/>
      <point x="665" y="545" type="qcurve"/>
      <point x="650" y="550"/>
      <point x="651" y="557" type="qcurve"/>
      <point x="652" y="566"/>
      <point x="665" y="565" type="qcurve"/>
      <point x="748" y="558"/>
      <point x="782" y="562" type="qcurve"/>
      <point x="801" y="565"/>
      <point x="810" y="575" type="qcurve"/>
      <point x="816" y="582"/>
      <point x="819" y="592" type="qcurve"/>
      <point x="825" y="612"/>
      <point x="826" y="664" type="qcurve"/>
      <point x="830" y="726"/>
      <point x="831" y="760" type="qcurve"/>
      <point x="597" y="760" type="line"/>
      <point x="597" y="435" type="line"/>
      <point x="849" y="435" type="line"/>
      <point x="857" y="435"/>
      <point x="861" y="442" type="qcurve"/>
      <point x="883" y="467" type="line"/>
      <point x="886" y="472"/>
      <point x="889" y="472" type="qcurve"/>
      <point x="893" y="471"/>
      <point x="897" y="467" type="qcurve"/>
      <point x="928" y="441"/>
      <point x="946" y="417" type="qcurve"/>
      <point x="950" y="412"/>
      <point x="949" y="412" type="qcurve"/>
      <point x="912" y="399"/>
      <point x="908" y="395" type="qcurve"/>
      <point x="902" y="389"/>
      <point x="901" y="382" type="qcurve"/>
      <point x="859" y="211"/>
      <point x="792" y="109" type="qcurve"/>
      <point x="791" y="109"/>
      <point x="791" y="108" type="qcurve"/>
      <point x="818" y="73"/>
      <point x="851" y="48" type="qcurve"/>
      <point x="916" y="-4"/>
      <point x="976" y="-17" type="qcurve"/>
      <point x="991" y="-21"/>
      <point x="990" y="-27" type="qcurve"/>
      <point x="987" y="-34"/>
      <point x="980" y="-35" type="qcurve"/>
      <point x="965" y="-39"/>
      <point x="952" y="-49" type="qcurve"/>
      <point x="936" y="-61"/>
      <point x="929" y="-73" type="qcurve"/>
      <point x="924" y="-79"/>
      <point x="908" y="-69" type="qcurve"/>
      <point x="817" y="-6"/>
      <point x="765" y="72" type="qcurve"/>
      <point x="708" y="0"/>
      <point x="612" y="-76" type="qcurve"/>
      <point x="598" y="-86"/>
      <point x="591" y="-76" type="qcurve"/>
      <point x="589" y="-76" type="line"/>
      <point x="552" y="-93"/>
      <point x="545" y="-93" type="qcurve"/>
      <point x="541" y="-92"/>
      <point x="542" y="-73" type="qcurve"/>
      <point x="546" y="27"/>
      <point x="549" y="133" type="qcurve"/>
      <point x="549" y="737" type="line"/>
    </contour>
    <contour>
      <point x="689" y="210"/>
      <point x="655" y="402" type="qcurve"/>
      <point x="654" y="404" type="line"/>
      <point x="597" y="404" type="line"/>
      <point x="597" y="133" type="line"/>
      <point x="596" y="26"/>
      <point x="596" y="-53" type="qcurve"/>
      <point x="646" y="-11"/>
      <point x="694" y="44" type="qcurve"/>
      <point x="721" y="78"/>
      <point x="743" y="109" type="qcurve"/>
    </contour>
    <contour>
      <point x="710" y="248"/>
      <point x="753" y="166" type="qcurve"/>
      <point x="758" y="155"/>
      <point x="765" y="145" type="qcurve"/>
      <point x="776" y="165"/>
      <point x="786" y="183" type="qcurve"/>
      <point x="823" y="262"/>
      <point x="853" y="404" type="qcurve"/>
      <point x="672" y="404" type="line"/>
    </contour>
  </outline>
</glyph>
<glyph name="uni5927" format="2">
  <advance width="1024"/>
  <unicode hex="5927"/>
  <outline>
    <contour>
      <point x="520" y="483" type="qcurve"/>
      <point x="518" y="495"/>
      <point x="518" y="503" type="qcurve"/>
      <point x="517" y="509"/>
      <point x="513" y="508" type="qcurve"/>
      <point x="508" y="507"/>
      <point x="508" y="503" type="qcurve"/>
      <point x="509" y="493"/>
      <point x="510" y="481" type="qcurve"/>
      <point x="481" y="296"/>
      <point x="397" y="172" type="qcurve"/>
      <point x="301" y="36"/>
      <point x="70" y="-72" type="qcurve"/>
      <point x="55" y="-78"/>
      <point x="52" y="-71" type="qcurve"/>
      <point x="47" y="-60"/>
      <point x="57" y="-56" type="qcurve"/>
      <point x="141" y="-13"/>
      <point x="207" y="33" type="qcurve"/>
      <point x="434" y="204"/>
      <point x="470" y="552" type="qcurve"/>
      <point x="168" y="552" type="line"/>
      <point x="126" y="551"/>
      <point x="95" y="545" type="qcurve"/>
      <point x="86" y="542"/>
      <point x="85" y="551" type="qcurve"/>
      <point x="80" y="569"/>
      <point x="65" y="582" type="qcurve"/>
      <point x="57" y="589"/>
      <point x="61" y="593" type="qcurve"/>
      <point x="65" y="596"/>
      <point x="72" y="592" type="qcurve"/>
      <point x="110" y="583"/>
      <point x="156" y="583" type="qcurve"/>
      <point x="473" y="583" type="line"/>
      <point x="477" y="629"/>
      <point x="477" y="675" type="qcurve"/>
      <point x="477" y="755" type="line"/>
      <point x="476" y="791"/>
      <point x="469" y="845" type="qcurve"/>
      <point x="467" y="858"/>
      <point x="471" y="861" type="qcurve"/>
      <point x="474" y="864"/>
      <point x="483" y="860" type="qcurve"/>
      <point x="526" y="842"/>
      <point x="557" y="826" type="qcurve"/>
      <point x="564" y="821"/>
      <point x="564" y="817" type="qcurve"/>
      <point x="564" y="810"/>
      <point x="558" y="809" type="qcurve"/>
      <point x="543" y="804"/>
      <point x="536" y="791" type="qcurve"/>
      <point x="528" y="776"/>
      <point x="525" y="755" type="qcurve"/>
      <point x="525" y="675" type="line"/>
      <point x="525" y="629"/>
      <point x="522" y="583" type="qcurve"/>
      <point x="817" y="583" type="line"/>
      <point x="831" y="584"/>
      <point x="847" y="602" type="qcurve"/>
      <point x="873" y="639" type="line"/>
      <point x="880" y="648"/>
      <point x="889" y="639" type="qcurve"/>
      <point x="960" y="576"/>
      <point x="959" y="561" type="qcurve"/>
      <point x="957" y="553"/>
      <point x="944" y="552" type="qcurve"/>
      <point x="528" y="552" type="line"/>
      <point x="557" y="448"/>
      <point x="603" y="336" type="qcurve"/>
      <point x="641" y="246"/>
      <point x="701" y="167" type="qcurve"/>
      <point x="826" y="15"/>
      <point x="970" y="-13" type="qcurve"/>
      <point x="977" y="-16"/>
      <point x="974" y="-25" type="qcurve"/>
      <point x="973" y="-33"/>
      <point x="961" y="-32" type="qcurve"/>
      <point x="918" y="-28"/>
      <point x="891" y="-67" type="qcurve"/>
      <point x="887" y="-72"/>
      <point x="878" y="-65" type="qcurve"/>
      <point x="828" y="-32"/>
      <point x="789" y="-1" type="qcurve"/>
      <point x="610" y="141"/>
    </contour>
  </outline>
</glyph>
<glyph name="uni592E" format="2">
  <advance width="1024"/>
  <unicode hex="592E"/>
  <outline>
    <contour>
      <point x="484" y="718" type="line"/>
      <point x="484" y="797"/>
      <point x="480" y="846" type="qcurve"/>
      <point x="480" y="862"/>
      <point x="490" y="859" type="qcurve"/>
      <point x="543" y="841"/>
      <point x="562" y="832" type="qcurve"/>
      <point x="575" y="822"/>
      <point x="559" y="815" type="qcurve"/>
      <point x="543" y="807"/>
      <point x="539" y="797" type="qcurve"/>
      <point x="532" y="779"/>
      <point x="532" y="718" type="qcurve"/>
      <point x="532" y="663" type="line"/>
      <point x="729" y="663" type="line"/>
      <point x="735" y="664"/>
      <point x="739" y="668" type="qcurve"/>
      <point x="762" y="694" type="line"/>
      <point x="768" y="702"/>
      <point x="775" y="696" type="qcurve"/>
      <point x="808" y="672"/>
      <point x="836" y="647" type="qcurve"/>
      <point x="845" y="639"/>
      <point x="835" y="636" type="qcurve"/>
      <point x="818" y="633"/>
      <point x="811" y="623" type="qcurve"/>
      <point x="804" y="613"/>
      <point x="804" y="594" type="qcurve"/>
      <point x="804" y="343" type="line"/>
      <point x="852" y="343" type="line"/>
      <point x="858" y="343"/>
      <point x="864" y="350" type="qcurve"/>
      <point x="900" y="391" type="line"/>
      <point x="907" y="398"/>
      <point x="914" y="391" type="qcurve"/>
      <point x="940" y="365"/>
      <point x="958" y="343" type="qcurve"/>
      <point x="969" y="329"/>
      <point x="962" y="319" type="qcurve"/>
      <point x="957" y="313"/>
      <point x="944" y="312" type="qcurve"/>
      <point x="571" y="312" type="line"/>
      <point x="611" y="210"/>
      <point x="663" y="150" type="qcurve"/>
      <point x="682" y="129"/>
      <point x="706" y="108" type="qcurve"/>
      <point x="824" y="12"/>
      <point x="971" y="-9" type="qcurve"/>
      <point x="978" y="-12"/>
      <point x="977" y="-19" type="qcurve"/>
      <point x="976" y="-25"/>
      <point x="970" y="-24" type="qcurve"/>
      <point x="912" y="-20"/>
      <point x="891" y="-65" type="qcurve"/>
      <point x="886" y="-74"/>
      <point x="876" y="-68" type="qcurve"/>
      <point x="838" y="-47"/>
      <point x="807" y="-28" type="qcurve"/>
      <point x="608" y="96"/>
      <point x="547" y="312" type="qcurve"/>
      <point x="506" y="312" type="line"/>
      <point x="481" y="209"/>
      <point x="408" y="116" type="qcurve"/>
      <point x="299" y="-2"/>
      <point x="68" y="-80" type="qcurve"/>
      <point x="55" y="-85"/>
      <point x="52" y="-76" type="qcurve"/>
      <point x="50" y="-67"/>
      <point x="60" y="-63" type="qcurve"/>
      <point x="203" y="-5"/>
      <point x="285" y="56" type="qcurve"/>
      <point x="411" y="144"/>
      <point x="459" y="312" type="qcurve"/>
      <point x="155" y="312" type="line"/>
      <point x="113" y="311"/>
      <point x="82" y="305" type="qcurve"/>
      <point x="74" y="302"/>
      <point x="71" y="311" type="qcurve"/>
      <point x="67" y="329"/>
      <point x="52" y="341" type="qcurve"/>
      <point x="45" y="348"/>
      <point x="48" y="352" type="qcurve"/>
      <point x="52" y="355"/>
      <point x="59" y="351" type="qcurve"/>
      <point x="97" y="343"/>
      <point x="143" y="343" type="qcurve"/>
      <point x="220" y="343" type="line"/>
      <point x="220" y="588" type="line"/>
      <point x="220" y="643"/>
      <point x="213" y="689" type="qcurve"/>
      <point x="212" y="701"/>
      <point x="216" y="702" type="qcurve"/>
      <point x="221" y="704"/>
      <point x="228" y="695" type="qcurve"/>
      <point x="238" y="682"/>
      <point x="262" y="663" type="qcurve"/>
      <point x="484" y="663" type="line"/>
    </contour>
    <contour>
      <point x="484" y="632" type="line"/>
      <point x="268" y="632" type="line"/>
      <point x="268" y="343" type="line"/>
      <point x="466" y="343" type="line"/>
      <point x="484" y="470"/>
      <point x="484" y="593" type="qcurve"/>
    </contour>
    <contour>
      <point x="532" y="445"/>
      <point x="513" y="343" type="qcurve"/>
      <point x="756" y="343" type="line"/>
      <point x="756" y="632" type="line"/>
      <point x="532" y="632" type="line"/>
      <point x="532" y="593" type="line"/>
    </contour>
  </outline>
</glyph>
<glyph name="uni5BE7" format="2">
  <advance width="1024"/>
  <unicode hex="5BE7"/>
  <outline>
    <contour>
      <point x="228" y="667"/>
      <point x="238" y="666" type="qcurve"/>
      <point x="247" y="664"/>
      <point x="246" y="651" type="qcurve"/>
      <point x="235" y="572"/>
      <point x="220" y="541" type="qcurve"/>
      <point x="205" y="511"/>
      <point x="180" y="495" type="qcurve"/>
      <point x="161" y="486"/>
      <point x="151" y="487" type="qcurve"/>
      <point x="139" y="490"/>
      <point x="133" y="499" type="qcurve"/>
      <point x="127" y="510"/>
      <point x="128" y="520" type="qcurve"/>
      <point x="132" y="531"/>
      <point x="148" y="543" type="qcurve"/>
      <point x="183" y="567"/>
      <point x="199" y="592" type="qcurve"/>
      <point x="219" y="621"/>
      <point x="226" y="655" type="qcurve"/>
    </contour>
    <contour>
      <point x="484" y="698"/>
      <point x="488" y="704" type="qcurve"/>
      <point x="492" y="710"/>
      <point x="504" y="703" type="qcurve"/>
      <point x="546" y="686"/>
      <point x="568" y="667" type="qcurve"/>
      <point x="583" y="656"/>
      <point x="586" y="644" type="qcurve"/>
      <point x="588" y="625"/>
      <point x="575" y="595" type="qcurve"/>
      <point x="564" y="571"/>
      <point x="552" y="571" type="qcurve"/>
      <point x="542" y="572"/>
      <point x="539" y="591" type="qcurve"/>
      <point x="535" y="623"/>
      <point x="522" y="645" type="qcurve"/>
      <point x="510" y="666"/>
      <point x="489" y="691" type="qcurve"/>
    </contour>
    <contour>
      <point x="125" y="264"/>
      <point x="91" y="257" type="qcurve"/>
      <point x="86" y="256"/>
      <point x="85" y="259" type="qcurve"/>
      <point x="72" y="279"/>
      <point x="62" y="295" type="qcurve"/>
      <point x="56" y="305"/>
      <point x="69" y="302" type="qcurve"/>
      <point x="130" y="296"/>
      <point x="137" y="295" type="qcurve"/>
      <point x="206" y="295" type="line"/>
      <point x="206" y="376" type="line"/>
      <point x="206" y="431"/>
      <point x="199" y="477" type="qcurve"/>
      <point x="198" y="489"/>
      <point x="202" y="490" type="qcurve"/>
      <point x="207" y="492"/>
      <point x="214" y="483" type="qcurve"/>
      <point x="224" y="470"/>
      <point x="248" y="451" type="qcurve"/>
      <point x="723" y="451" type="line"/>
      <point x="729" y="452"/>
      <point x="733" y="456" type="qcurve"/>
      <point x="756" y="482" type="line"/>
      <point x="762" y="490"/>
      <point x="769" y="484" type="qcurve"/>
      <point x="802" y="460"/>
      <point x="830" y="435" type="qcurve"/>
      <point x="837" y="430"/>
      <point x="831" y="426" type="qcurve"/>
      <point x="802" y="407"/>
      <point x="801" y="404" type="qcurve"/>
      <point x="798" y="398"/>
      <point x="798" y="382" type="qcurve"/>
      <point x="798" y="295" type="line"/>
      <point x="822" y="295" type="line"/>
      <point x="834" y="295"/>
      <point x="838" y="299" type="qcurve"/>
      <point x="843" y="304"/>
      <point x="852" y="314" type="qcurve"/>
      <point x="878" y="351" type="line"/>
      <point x="885" y="360"/>
      <point x="894" y="351" type="qcurve"/>
      <point x="925" y="323"/>
      <point x="955" y="292" type="qcurve"/>
      <point x="965" y="282"/>
      <point x="964" y="273" type="qcurve"/>
      <point x="962" y="265"/>
      <point x="949" y="264" type="qcurve"/>
      <point x="152" y="264" type="line"/>
    </contour>
    <contour>
      <point x="434" y="420" type="line"/>
      <point x="434" y="295" type="line"/>
      <point x="570" y="295" type="line"/>
      <point x="570" y="420" type="line"/>
    </contour>
    <contour>
      <point x="254" y="420" type="line"/>
      <point x="254" y="295" type="line"/>
      <point x="386" y="295" type="line"/>
      <point x="386" y="420" type="line"/>
    </contour>
    <contour>
      <point x="618" y="295" type="line"/>
      <point x="750" y="295" type="line"/>
      <point x="750" y="420" type="line"/>
      <point x="618" y="420" type="line"/>
    </contour>
    <contour>
      <point x="766" y="187"/>
      <point x="770" y="190" type="qcurve"/>
      <point x="776" y="194"/>
      <point x="783" y="203" type="qcurve"/>
      <point x="807" y="238" type="line"/>
      <point x="815" y="247"/>
      <point x="822" y="238" type="qcurve"/>
      <point x="851" y="212"/>
      <point x="879" y="184" type="qcurve"/>
      <point x="890" y="172"/>
      <point x="889" y="165" type="qcurve"/>
      <point x="887" y="157"/>
      <point x="874" y="156" type="qcurve"/>
      <point x="550" y="156" type="line"/>
      <point x="550" y="-1" type="line"/>
      <point x="548" y="-34"/>
      <point x="529" y="-56" type="qcurve"/>
      <point x="509" y="-78"/>
      <point x="484" y="-85" type="qcurve"/>
      <point x="474" y="-88"/>
      <point x="470" y="-81" type="qcurve"/>
      <point x="463" y="-68"/>
      <point x="435" y="-52" type="qcurve"/>
      <point x="412" y="-39"/>
      <point x="360" y="-26" type="qcurve"/>
      <point x="348" y="-24"/>
      <point x="349" y="-14" type="qcurve"/>
      <point x="350" y="-5"/>
      <point x="363" y="-6" type="qcurve"/>
      <point x="398" y="-7"/>
      <point x="444" y="-10" type="qcurve"/>
      <point x="489" y="-13"/>
      <point x="499" y="-7" type="qcurve"/>
      <point x="502" y="-3"/>
      <point x="502" y="10" type="qcurve"/>
      <point x="502" y="156" type="line"/>
      <point x="228" y="156" type="line"/>
      <point x="201" y="156"/>
      <point x="167" y="149" type="qcurve"/>
      <point x="162" y="148"/>
      <point x="161" y="151" type="qcurve"/>
      <point x="148" y="171"/>
      <point x="138" y="187" type="qcurve"/>
      <point x="132" y="197"/>
      <point x="145" y="194" type="qcurve"/>
      <point x="206" y="188"/>
      <point x="213" y="187" type="qcurve"/>
      <point x="754" y="187" type="line"/>
    </contour>
    <contour>
      <point x="150" y="721"/>
      <point x="149" y="709" type="qcurve"/>
      <point x="140" y="665"/>
      <point x="121" y="643" type="qcurve"/>
      <point x="106" y="628"/>
      <point x="91" y="629" type="qcurve"/>
      <point x="77" y="631"/>
      <point x="70" y="638" type="qcurve"/>
      <point x="63" y="646"/>
      <point x="63" y="661" type="qcurve"/>
      <point x="64" y="675"/>
      <point x="79" y="687" type="qcurve"/>
      <point x="100" y="704"/>
      <point x="113" y="732" type="qcurve"/>
      <point x="125" y="761"/>
      <point x="129" y="804" type="qcurve"/>
      <point x="130" y="813"/>
      <point x="137" y="813" type="qcurve"/>
      <point x="145" y="814"/>
      <point x="146" y="804" type="qcurve"/>
      <point x="150" y="782"/>
      <point x="151" y="763" type="qcurve"/>
      <point x="508" y="763" type="line"/>
      <point x="500" y="794"/>
      <point x="484" y="816" type="qcurve"/>
      <point x="470" y="838"/>
      <point x="446" y="860" type="qcurve"/>
      <point x="439" y="866"/>
      <point x="443" y="872" type="qcurve"/>
      <point x="447" y="879"/>
      <point x="459" y="873" type="qcurve"/>
      <point x="504" y="859"/>
      <point x="529" y="843" type="qcurve"/>
      <point x="545" y="833"/>
      <point x="549" y="821" type="qcurve"/>
      <point x="553" y="802"/>
      <point x="543" y="772" type="qcurve"/>
      <point x="540" y="767"/>
      <point x="539" y="763" type="qcurve"/>
      <point x="828" y="763" type="line"/>
      <point x="835" y="764"/>
      <point x="839" y="768" type="qcurve"/>
      <point x="875" y="801" type="line"/>
      <point x="879" y="806"/>
      <point x="883" y="806" type="qcurve"/>
      <point x="888" y="805"/>
      <point x="892" y="801" type="qcurve"/>
      <point x="929" y="769"/>
      <point x="956" y="744" type="qcurve"/>
      <point x="963" y="735"/>
      <point x="950" y="734" type="qcurve"/>
      <point x="917" y="731"/>
      <point x="889" y="718" type="qcurve"/>
      <point x="863" y="707"/>
      <point x="812" y="647" type="qcurve"/>
      <point x="838" y="631"/>
      <point x="857" y="615" type="qcurve"/>
      <point x="879" y="596"/>
      <point x="883" y="577" type="qcurve"/>
      <point x="888" y="558"/>
      <point x="875" y="527" type="qcurve"/>
      <point x="866" y="503"/>
      <point x="854" y="502" type="qcurve"/>
      <point x="844" y="502"/>
      <point x="840" y="521" type="qcurve"/>
      <point x="826" y="567"/>
      <point x="802" y="600" type="qcurve"/>
      <point x="778" y="630"/>
      <point x="741" y="664" type="qcurve"/>
      <point x="735" y="670"/>
      <point x="739" y="676" type="qcurve"/>
      <point x="743" y="682"/>
      <point x="756" y="676" type="qcurve"/>
      <point x="776" y="668"/>
      <point x="792" y="658" type="qcurve"/>
      <point x="794" y="660" type="line"/>
      <point x="816" y="698"/>
      <point x="832" y="732" type="qcurve"/>
      <point x="151" y="732" type="line"/>
    </contour>
    <contour>
      <point x="380" y="505" type="line"/>
      <point x="361" y="505"/>
      <point x="345" y="521" type="qcurve"/>
      <point x="330" y="536"/>
      <point x="330" y="578" type="qcurve"/>
      <point x="330" y="618" type="line"/>
      <point x="329" y="671"/>
      <point x="325" y="696" type="qcurve"/>
      <point x="324" y="701"/>
      <point x="327" y="704" type="qcurve"/>
      <point x="330" y="707"/>
      <point x="339" y="704" type="qcurve"/>
      <point x="367" y="690"/>
      <point x="388" y="678" type="qcurve"/>
      <point x="397" y="672"/>
      <point x="397" y="669" type="qcurve"/>
      <point x="396" y="664"/>
      <point x="389" y="657" type="qcurve"/>
      <point x="379" y="648"/>
      <point x="378" y="620" type="qcurve"/>
      <point x="378" y="580" type="line"/>
      <point x="379" y="566"/>
      <point x="385" y="559" type="qcurve"/>
      <point x="392" y="550"/>
      <point x="404" y="550" type="qcurve"/>
      <point x="628" y="550" type="line"/>
      <point x="645" y="551"/>
      <point x="652" y="555" type="qcurve"/>
      <point x="659" y="558"/>
      <point x="666" y="574" type="qcurve"/>
      <point x="679" y="604"/>
      <point x="694" y="671" type="qcurve"/>
      <point x="696" y="682"/>
      <point x="705" y="681" type="qcurve"/>
      <point x="714" y="679"/>
      <point x="713" y="669" type="qcurve"/>
      <point x="712" y="611"/>
      <point x="719" y="586" type="qcurve"/>
      <point x="724" y="571"/>
      <point x="733" y="567" type="qcurve"/>
      <point x="735" y="565"/>
      <point x="734" y="561" type="qcurve"/>
      <point x="724" y="533"/>
      <point x="708" y="521" type="qcurve"/>
      <point x="687" y="505"/>
      <point x="656" y="505" type="qcurve"/>
    </contour>
  </outline>
</glyph>
<glyph name="uni5C07" format="2">
  <advance width="1024"/>
  <unicode hex="5C07"/>
  <outline>
    <contour>
      <point x="350" y="22"/>
      <point x="354" y="-63" type="qcurve"/>
      <point x="354" y="-72"/>
      <point x="347" y="-73" type="qcurve"/>
      <point x="303" y="-91" type="line"/>
      <point x="294" y="-93"/>
      <point x="295" y="-77" type="qcurve"/>
      <point x="301" y="56"/>
      <point x="302" y="147" type="qcurve"/>
      <point x="302" y="316" type="line"/>
      <point x="182" y="316" type="line"/>
      <point x="182" y="256" type="line"/>
      <point x="182" y="181"/>
      <point x="170" y="120" type="qcurve"/>
      <point x="157" y="54"/>
      <point x="132" y="5" type="qcurve"/>
      <point x="105" y="-48"/>
      <point x="66" y="-78" type="qcurve"/>
      <point x="49" y="-91"/>
      <point x="43" y="-78" type="qcurve"/>
      <point x="36" y="-65"/>
      <point x="52" y="-52" type="qcurve"/>
      <point x="82" y="-16"/>
      <point x="98" y="23" type="qcurve"/>
      <point x="117" y="73"/>
      <point x="126" y="137" type="qcurve"/>
      <point x="133" y="195"/>
      <point x="132" y="256" type="qcurve"/>
      <point x="132" y="316" type="line"/>
      <point x="105" y="316"/>
      <point x="71" y="309" type="qcurve"/>
      <point x="66" y="308"/>
      <point x="65" y="311" type="qcurve"/>
      <point x="52" y="330"/>
      <point x="42" y="346" type="qcurve"/>
      <point x="36" y="356"/>
      <point x="49" y="353" type="qcurve"/>
      <point x="110" y="348"/>
      <point x="117" y="347" type="qcurve"/>
      <point x="302" y="347" type="line"/>
      <point x="302" y="516" type="line"/>
      <point x="161" y="516" type="line"/>
      <point x="144" y="502"/>
      <point x="138" y="486" type="qcurve"/>
      <point x="135" y="478"/>
      <point x="128" y="482" type="qcurve"/>
      <point x="103" y="505"/>
      <point x="87" y="512" type="qcurve"/>
      <point x="77" y="517"/>
      <point x="86" y="526" type="qcurve"/>
      <point x="97" y="538"/>
      <point x="101" y="545" type="qcurve"/>
      <point x="105" y="553"/>
      <point x="106" y="572" type="qcurve"/>
      <point x="106" y="716" type="line"/>
      <point x="105" y="767"/>
      <point x="101" y="798" type="qcurve"/>
      <point x="100" y="815"/>
      <point x="110" y="811" type="qcurve"/>
      <point x="166" y="791"/>
      <point x="184" y="781" type="qcurve"/>
      <point x="197" y="772"/>
      <point x="190" y="768" type="qcurve"/>
      <point x="160" y="749"/>
      <point x="157" y="746" type="qcurve"/>
      <point x="154" y="741"/>
      <point x="154" y="716" type="qcurve"/>
      <point x="154" y="547" type="line"/>
      <point x="302" y="547" type="line"/>
      <point x="302" y="714" type="line"/>
      <point x="301" y="794"/>
      <point x="297" y="842" type="qcurve"/>
      <point x="296" y="860"/>
      <point x="306" y="856" type="qcurve"/>
      <point x="362" y="838"/>
      <point x="383" y="826" type="qcurve"/>
      <point x="394" y="818"/>
      <point x="384" y="814" type="qcurve"/>
      <point x="353" y="797"/>
      <point x="352" y="793" type="qcurve"/>
      <point x="350" y="789"/>
      <point x="350" y="714" type="qcurve"/>
      <point x="350" y="147" type="line"/>
    </contour>
    <contour>
      <point x="442" y="347"/>
      <point x="438" y="357" type="qcurve"/>
      <point x="435" y="365"/>
      <point x="450" y="372" type="qcurve"/>
      <point x="556" y="427"/>
      <point x="666" y="511" type="qcurve"/>
      <point x="760" y="584"/>
      <point x="840" y="697" type="qcurve"/>
      <point x="842" y="700"/>
      <point x="841" y="703" type="qcurve"/>
      <point x="839" y="705"/>
      <point x="835" y="704" type="qcurve"/>
      <point x="597" y="704" type="line"/>
      <point x="583" y="688"/>
      <point x="573" y="673" type="qcurve"/>
      <point x="628" y="651"/>
      <point x="659" y="629" type="qcurve"/>
      <point x="681" y="611"/>
      <point x="684" y="601" type="qcurve"/>
      <point x="686" y="577"/>
      <point x="676" y="564" type="qcurve"/>
      <point x="664" y="549"/>
      <point x="658" y="548" type="qcurve"/>
      <point x="653" y="547"/>
      <point x="643" y="565" type="qcurve"/>
      <point x="626" y="594"/>
      <point x="607" y="616" type="qcurve"/>
      <point x="583" y="644"/>
      <point x="561" y="657" type="qcurve"/>
      <point x="550" y="643"/>
      <point x="540" y="631" type="qcurve"/>
      <point x="519" y="608"/>
      <point x="495" y="586" type="qcurve"/>
      <point x="496" y="586"/>
      <point x="497" y="585" type="qcurve"/>
      <point x="539" y="554"/>
      <point x="561" y="526" type="qcurve"/>
      <point x="577" y="507"/>
      <point x="577" y="497" type="qcurve"/>
      <point x="573" y="473"/>
      <point x="560" y="463" type="qcurve"/>
      <point x="544" y="452"/>
      <point x="538" y="452" type="qcurve"/>
      <point x="532" y="454"/>
      <point x="528" y="473" type="qcurve"/>
      <point x="520" y="503"/>
      <point x="510" y="525" type="qcurve"/>
      <point x="497" y="554"/>
      <point x="481" y="573" type="qcurve"/>
      <point x="480" y="574"/>
      <point x="453" y="551"/>
      <point x="420" y="527" type="qcurve"/>
      <point x="407" y="519"/>
      <point x="401" y="526" type="qcurve"/>
      <point x="395" y="536"/>
      <point x="405" y="543" type="qcurve"/>
      <point x="488" y="614"/>
      <point x="543" y="692" type="qcurve"/>
      <point x="591" y="761"/>
      <point x="624" y="854" type="qcurve"/>
      <point x="628" y="863"/>
      <point x="635" y="859" type="qcurve"/>
      <point x="670" y="842"/>
      <point x="692" y="829" type="qcurve"/>
      <point x="702" y="822"/>
      <point x="701" y="818" type="qcurve"/>
      <point x="698" y="814"/>
      <point x="694" y="813" type="qcurve"/>
      <point x="673" y="811"/>
      <point x="666" y="804" type="qcurve"/>
      <point x="660" y="799"/>
      <point x="644" y="774" type="qcurve"/>
      <point x="629" y="754"/>
      <point x="619" y="735" type="qcurve"/>
      <point x="833" y="735" type="line"/>
      <point x="850" y="734"/>
      <point x="854" y="735" type="qcurve"/>
      <point x="877" y="753" type="line"/>
      <point x="885" y="760"/>
      <point x="892" y="753" type="qcurve"/>
      <point x="917" y="734"/>
      <point x="939" y="710" type="qcurve"/>
      <point x="944" y="703"/>
      <point x="943" y="699" type="qcurve"/>
      <point x="940" y="695"/>
      <point x="931" y="696" type="qcurve"/>
      <point x="919" y="697"/>
      <point x="906" y="691" type="qcurve"/>
      <point x="894" y="681"/>
      <point x="864" y="644" type="qcurve"/>
      <point x="782" y="542"/>
      <point x="688" y="478" type="qcurve"/>
      <point x="581" y="405"/>
      <point x="458" y="353" type="qcurve"/>
    </contour>
    <contour>
      <point x="770" y="362" type="line"/>
      <point x="769" y="442"/>
      <point x="765" y="490" type="qcurve"/>
      <point x="764" y="508"/>
      <point x="774" y="504" type="qcurve"/>
      <point x="830" y="486"/>
      <point x="851" y="474" type="qcurve"/>
      <point x="862" y="466"/>
      <point x="852" y="462" type="qcurve"/>
      <point x="821" y="445"/>
      <point x="820" y="441" type="qcurve"/>
      <point x="818" y="437"/>
      <point x="818" y="362" type="qcurve"/>
      <point x="818" y="323" type="line"/>
      <point x="850" y="323" type="line"/>
      <point x="862" y="323"/>
      <point x="866" y="326" type="qcurve"/>
      <point x="872" y="330"/>
      <point x="879" y="339" type="qcurve"/>
      <point x="903" y="374" type="line"/>
      <point x="911" y="383"/>
      <point x="918" y="374" type="qcurve"/>
      <point x="947" y="348"/>
      <point x="975" y="320" type="qcurve"/>
      <point x="986" y="308"/>
      <point x="985" y="301" type="qcurve"/>
      <point x="983" y="293"/>
      <point x="970" y="292" type="qcurve"/>
      <point x="818" y="292" type="line"/>
      <point x="818" y="-1" type="line"/>
      <point x="816" y="-34"/>
      <point x="797" y="-56" type="qcurve"/>
      <point x="777" y="-78"/>
      <point x="752" y="-85" type="qcurve"/>
      <point x="741" y="-92"/>
      <point x="735" y="-80" type="qcurve"/>
      <point x="726" y="-65"/>
      <point x="695" y="-50" type="qcurve"/>
      <point x="660" y="-32"/>
      <point x="596" y="-25" type="qcurve"/>
      <point x="584" y="-23"/>
      <point x="585" y="-13" type="qcurve"/>
      <point x="585" y="-5"/>
      <point x="598" y="-5" type="qcurve"/>
      <point x="640" y="-7"/>
      <point x="698" y="-11" type="qcurve"/>
      <point x="755" y="-14"/>
      <point x="767" y="-7" type="qcurve"/>
      <point x="770" y="-3"/>
      <point x="770" y="10" type="qcurve"/>
      <point x="770" y="292" type="line"/>
      <point x="464" y="292" type="line"/>
      <point x="437" y="292"/>
      <point x="403" y="285" type="qcurve"/>
      <point x="398" y="284"/>
      <point x="397" y="287" type="qcurve"/>
      <point x="384" y="307"/>
      <point x="374" y="323" type="qcurve"/>
      <point x="368" y="333"/>
      <point x="381" y="330" type="qcurve"/>
      <point x="442" y="324"/>
      <point x="449" y="323" type="qcurve"/>
      <point x="770" y="323" type="line"/>
    </contour>
    <contour>
      <point x="480" y="250"/>
      <point x="484" y="256" type="qcurve"/>
      <point x="490" y="261"/>
      <point x="500" y="252" type="qcurve"/>
      <point x="556" y="211"/>
      <point x="583" y="175" type="qcurve"/>
      <point x="601" y="153"/>
      <point x="601" y="134" type="qcurve"/>
      <point x="601" y="114"/>
      <point x="583" y="87" type="qcurve"/>
      <point x="569" y="66"/>
      <point x="557" y="67" type="qcurve"/>
      <point x="547" y="69"/>
      <point x="547" y="88" type="qcurve"/>
      <point x="543" y="135"/>
      <point x="527" y="171" type="qcurve"/>
      <point x="511" y="203"/>
      <point x="483" y="243" type="qcurve"/>
    </contour>
  </outline>
</glyph>
<glyph name="uni5C40" format="2">
  <advance width="1024"/>
  <unicode hex="5C40"/>
  <outline>
    <contour>
      <point x="853" y="-64"/>
      <point x="808" y="-82" type="qcurve"/>
      <point x="800" y="-87"/>
      <point x="799" y="-80" type="qcurve"/>
      <point x="789" y="-35"/>
      <point x="696" y="-23" type="qcurve"/>
      <point x="681" y="-21"/>
      <point x="682" y="-11" type="qcurve"/>
      <point x="684" y="-1"/>
      <point x="696" y="-4" type="qcurve"/>
      <point x="825" y="-14"/>
      <point x="840" y="2" type="qcurve"/>
      <point x="856" y="16"/>
      <point x="863" y="43" type="qcurve"/>
      <point x="873" y="89"/>
      <point x="877" y="210" type="qcurve"/>
      <point x="882" y="355"/>
      <point x="886" y="436" type="qcurve"/>
      <point x="267" y="436" type="line"/>
      <point x="259" y="263"/>
      <point x="241" y="182" type="qcurve"/>
      <point x="200" y="35"/>
      <point x="77" y="-71" type="qcurve"/>
      <point x="64" y="-81"/>
      <point x="57" y="-71" type="qcurve"/>
      <point x="50" y="-60"/>
      <point x="60" y="-53" type="qcurve"/>
      <point x="127" y="18"/>
      <point x="160" y="85" type="qcurve"/>
      <point x="225" y="221"/>
      <point x="225" y="614" type="qcurve"/>
      <point x="225" y="735" type="line"/>
      <point x="224" y="773"/>
      <point x="215" y="813" type="qcurve"/>
      <point x="214" y="821"/>
      <point x="218" y="824" type="qcurve"/>
      <point x="223" y="825"/>
      <point x="230" y="818" type="qcurve"/>
      <point x="244" y="804"/>
      <point x="266" y="791" type="qcurve"/>
      <point x="768" y="791" type="line"/>
      <point x="774" y="791"/>
      <point x="777" y="795" type="qcurve"/>
      <point x="795" y="823" type="line"/>
      <point x="802" y="831"/>
      <point x="809" y="824" type="qcurve"/>
      <point x="838" y="805"/>
      <point x="866" y="783" type="qcurve"/>
      <point x="872" y="777"/>
      <point x="871" y="771" type="qcurve"/>
      <point x="868" y="765"/>
      <point x="858" y="764" type="qcurve"/>
      <point x="846" y="762"/>
      <point x="840" y="752" type="qcurve"/>
      <point x="836" y="743"/>
      <point x="836" y="730" type="qcurve"/>
      <point x="836" y="662" type="line"/>
      <point x="836" y="630"/>
      <point x="842" y="575" type="qcurve"/>
      <point x="844" y="563"/>
      <point x="835" y="559" type="qcurve"/>
      <point x="800" y="539"/>
      <point x="793" y="539" type="qcurve"/>
      <point x="788" y="540"/>
      <point x="788" y="550" type="qcurve"/>
      <point x="788" y="596" type="line"/>
      <point x="272" y="596" type="line"/>
      <point x="271" y="528"/>
      <point x="268" y="467" type="qcurve"/>
      <point x="856" y="467" type="line"/>
      <point x="867" y="468"/>
      <point x="871" y="472" type="qcurve"/>
      <point x="894" y="504" type="line"/>
      <point x="900" y="514"/>
      <point x="909" y="504" type="qcurve"/>
      <point x="946" y="473"/>
      <point x="968" y="451" type="qcurve"/>
      <point x="973" y="444"/>
      <point x="966" y="441" type="qcurve"/>
      <point x="950" y="436"/>
      <point x="944" y="430" type="qcurve"/>
      <point x="932" y="427"/>
      <point x="926" y="225" type="qcurve"/>
      <point x="923" y="165"/>
      <point x="920" y="117" type="qcurve"/>
      <point x="911" y="5"/>
      <point x="884" y="-28" type="qcurve"/>
    </contour>
    <contour>
      <point x="273" y="760" type="line"/>
      <point x="273" y="659" type="line"/>
      <point x="273" y="643"/>
      <point x="272" y="627" type="qcurve"/>
      <point x="788" y="627" type="line"/>
      <point x="788" y="760" type="line"/>
    </contour>
    <contour>
      <point x="424" y="136" type="line"/>
      <point x="424" y="69" type="line"/>
      <point x="423" y="61"/>
      <point x="419" y="60" type="qcurve"/>
      <point x="409" y="56"/>
      <point x="387" y="47" type="qcurve"/>
      <point x="372" y="41"/>
      <point x="373" y="51" type="qcurve"/>
      <point x="375" y="77"/>
      <point x="376" y="102" type="qcurve"/>
      <point x="376" y="304" type="line"/>
      <point x="375" y="330"/>
      <point x="374" y="349" type="qcurve"/>
      <point x="374" y="358"/>
      <point x="378" y="359" type="qcurve"/>
      <point x="382" y="362"/>
      <point x="391" y="353" type="qcurve"/>
      <point x="404" y="340"/>
      <point x="422" y="327" type="qcurve"/>
      <point x="640" y="327" type="line"/>
      <point x="646" y="327"/>
      <point x="649" y="331" type="qcurve"/>
      <point x="667" y="359" type="line"/>
      <point x="674" y="367"/>
      <point x="681" y="360" type="qcurve"/>
      <point x="710" y="341"/>
      <point x="738" y="319" type="qcurve"/>
      <point x="744" y="313"/>
      <point x="743" y="307" type="qcurve"/>
      <point x="740" y="301"/>
      <point x="730" y="300" type="qcurve"/>
      <point x="718" y="298"/>
      <point x="712" y="288" type="qcurve"/>
      <point x="708" y="279"/>
      <point x="708" y="266" type="qcurve"/>
      <point x="708" y="202" type="line"/>
      <point x="708" y="170"/>
      <point x="714" y="115" type="qcurve"/>
      <point x="716" y="103"/>
      <point x="707" y="99" type="qcurve"/>
      <point x="672" y="79"/>
      <point x="665" y="79" type="qcurve"/>
      <point x="660" y="80"/>
      <point x="660" y="90" type="qcurve"/>
      <point x="660" y="136" type="line"/>
    </contour>
    <contour>
      <point x="424" y="167" type="line"/>
      <point x="660" y="167" type="line"/>
      <point x="660" y="296" type="line"/>
      <point x="424" y="296" type="line"/>
    </contour>
  </outline>
</glyph>
<glyph name="uni5E16" format="2">
  <advance width="1024"/>
  <unicode hex="5E16"/>
  <outline>
    <contour>
      <point x="400" y="190"/>
      <point x="384" y="172" type="qcurve"/>
      <point x="368" y="156"/>
      <point x="344" y="149" type="qcurve"/>
      <point x="334" y="148"/>
      <point x="335" y="152" type="qcurve"/>
      <point x="339" y="187"/>
      <point x="281" y="200" type="qcurve"/>
      <point x="266" y="203"/>
      <point x="267" y="218" type="qcurve"/>
      <point x="271" y="229"/>
      <point x="287" y="226" type="qcurve"/>
      <point x="340" y="220"/>
      <point x="347" y="223" type="qcurve"/>
      <point x="353" y="228"/>
      <point x="353" y="235" type="qcurve"/>
      <point x="353" y="636" type="line"/>
      <point x="257" y="636" type="line"/>
      <point x="257" y="151" type="line"/>
      <point x="257" y="34"/>
      <point x="261" y="-45" type="qcurve"/>
      <point x="262" y="-53"/>
      <point x="256" y="-57" type="qcurve"/>
      <point x="214" y="-84" type="line"/>
      <point x="201" y="-94"/>
      <point x="202" y="-73" type="qcurve"/>
      <point x="208" y="60"/>
      <point x="209" y="151" type="qcurve"/>
      <point x="209" y="636" type="line"/>
      <point x="117" y="636" type="line"/>
      <point x="117" y="353" type="line"/>
      <point x="116" y="164"/>
      <point x="112" y="158" type="qcurve"/>
      <point x="77" y="131"/>
      <point x="71" y="130" type="qcurve"/>
      <point x="63" y="131"/>
      <point x="64" y="150" type="qcurve"/>
      <point x="68" y="211"/>
      <point x="69" y="353" type="qcurve"/>
      <point x="69" y="609" type="line"/>
      <point x="68" y="645"/>
      <point x="64" y="691" type="qcurve"/>
      <point x="62" y="703"/>
      <point x="66" y="704" type="qcurve"/>
      <point x="69" y="705"/>
      <point x="76" y="698" type="qcurve"/>
      <point x="88" y="685"/>
      <point x="112" y="667" type="qcurve"/>
      <point x="209" y="667" type="line"/>
      <point x="209" y="714" type="line"/>
      <point x="208" y="794"/>
      <point x="204" y="842" type="qcurve"/>
      <point x="202" y="859"/>
      <point x="214" y="855" type="qcurve"/>
      <point x="268" y="838"/>
      <point x="286" y="828" type="qcurve"/>
      <point x="300" y="821"/>
      <point x="284" y="812" type="qcurve"/>
      <point x="268" y="804"/>
      <point x="264" y="794" type="qcurve"/>
      <point x="257" y="775"/>
      <point x="257" y="714" type="qcurve"/>
      <point x="257" y="667" type="line"/>
      <point x="326" y="667" type="line"/>
      <point x="332" y="668"/>
      <point x="336" y="672" type="qcurve"/>
      <point x="359" y="698" type="line"/>
      <point x="365" y="706"/>
      <point x="372" y="700" type="qcurve"/>
      <point x="405" y="676"/>
      <point x="433" y="651" type="qcurve"/>
      <point x="442" y="643"/>
      <point x="432" y="640" type="qcurve"/>
      <point x="415" y="637"/>
      <point x="408" y="627" type="qcurve"/>
      <point x="401" y="617"/>
      <point x="401" y="598" type="qcurve"/>
      <point x="401" y="218" type="line"/>
    </contour>
    <contour>
      <point x="528" y="32" type="line"/>
      <point x="528" y="-14"/>
      <point x="529" y="-53" type="qcurve"/>
      <point x="528" y="-68"/>
      <point x="491" y="-93" type="qcurve"/>
      <point x="483" y="-97"/>
      <point x="479" y="-97" type="qcurve"/>
      <point x="473" y="-96"/>
      <point x="474" y="-77" type="qcurve"/>
      <point x="478" y="23"/>
      <point x="481" y="129" type="qcurve"/>
      <point x="481" y="309" type="line"/>
      <point x="480" y="341"/>
      <point x="474" y="387" type="qcurve"/>
      <point x="472" y="397"/>
      <point x="475" y="398" type="qcurve"/>
      <point x="476" y="398"/>
      <point x="515" y="367" type="qcurve"/>
      <point x="633" y="367" type="line"/>
      <point x="633" y="778" type="line"/>
      <point x="632" y="817"/>
      <point x="629" y="848" type="qcurve"/>
      <point x="628" y="864"/>
      <point x="638" y="861" type="qcurve"/>
      <point x="691" y="844"/>
      <point x="709" y="835" type="qcurve"/>
      <point x="723" y="826"/>
      <point x="707" y="819" type="qcurve"/>
      <point x="692" y="811"/>
      <point x="688" y="801" type="qcurve"/>
      <point x="681" y="788"/>
      <point x="681" y="778" type="qcurve"/>
      <point x="681" y="631" type="line"/>
      <point x="833" y="631" type="line"/>
      <point x="846" y="631"/>
      <point x="856" y="643" type="qcurve"/>
      <point x="891" y="684" type="line"/>
      <point x="900" y="692"/>
      <point x="907" y="685" type="qcurve"/>
      <point x="933" y="657"/>
      <point x="952" y="632" type="qcurve"/>
      <point x="963" y="617"/>
      <point x="960" y="608" type="qcurve"/>
      <point x="957" y="601"/>
      <point x="942" y="600" type="qcurve"/>
      <point x="681" y="600" type="line"/>
      <point x="681" y="367" type="line"/>
      <point x="794" y="367" type="line"/>
      <point x="806" y="367"/>
      <point x="813" y="374" type="qcurve"/>
      <point x="838" y="400" type="line"/>
      <point x="843" y="407"/>
      <point x="852" y="401" type="qcurve"/>
      <point x="883" y="378"/>
      <point x="905" y="359" type="qcurve"/>
      <point x="912" y="351"/>
      <point x="903" y="350" type="qcurve"/>
      <point x="886" y="347"/>
      <point x="877" y="338" type="qcurve"/>
      <point x="869" y="329"/>
      <point x="869" y="319" type="qcurve"/>
      <point x="869" y="119" type="line"/>
      <point x="870" y="51"/>
      <point x="877" y="-48" type="qcurve"/>
      <point x="877" y="-61"/>
      <point x="867" y="-67" type="qcurve"/>
      <point x="822" y="-93"/>
      <point x="818" y="-92" type="qcurve"/>
      <point x="814" y="-90"/>
      <point x="815" y="-74" type="qcurve"/>
      <point x="818" y="-32"/>
      <point x="819" y="32" type="qcurve"/>
    </contour>
    <contour>
      <point x="528" y="94"/>
      <point x="528" y="63" type="qcurve"/>
      <point x="820" y="63" type="line"/>
      <point x="820" y="77"/>
      <point x="821" y="90" type="qcurve"/>
      <point x="821" y="336" type="line"/>
      <point x="529" y="336" type="line"/>
      <point x="529" y="129" type="line"/>
    </contour>
  </outline>
</glyph>
<glyph name="uni5FB7" format="2">
  <advance width="1024"/>
  <unicode hex="5FB7"/>
  <outline>
    <contour>
      <point x="439" y="408" type="line"/>
      <point x="439" y="373" type="line"/>
      <point x="438" y="365"/>
      <point x="434" y="364" type="qcurve"/>
      <point x="424" y="360"/>
      <point x="402" y="351" type="qcurve"/>
      <point x="387" y="345"/>
      <point x="388" y="355" type="qcurve"/>
      <point x="390" y="381"/>
      <point x="391" y="406" type="qcurve"/>
      <point x="391" y="608" type="line"/>
      <point x="390" y="634"/>
      <point x="389" y="653" type="qcurve"/>
      <point x="389" y="662"/>
      <point x="393" y="663" type="qcurve"/>
      <point x="397" y="666"/>
      <point x="406" y="657" type="qcurve"/>
      <point x="419" y="644"/>
      <point x="437" y="631" type="qcurve"/>
      <point x="560" y="631" type="line"/>
      <point x="571" y="681"/>
      <point x="581" y="724" type="qcurve"/>
      <point x="422" y="724" type="line"/>
      <point x="380" y="723"/>
      <point x="349" y="717" type="qcurve"/>
      <point x="341" y="714"/>
      <point x="338" y="723" type="qcurve"/>
      <point x="334" y="741"/>
      <point x="319" y="753" type="qcurve"/>
      <point x="312" y="760"/>
      <point x="315" y="764" type="qcurve"/>
      <point x="319" y="767"/>
      <point x="326" y="763" type="qcurve"/>
      <point x="364" y="755"/>
      <point x="410" y="755" type="qcurve"/>
      <point x="587" y="755" type="line"/>
      <point x="598" y="809"/>
      <point x="602" y="858" type="qcurve"/>
      <point x="603" y="866"/>
      <point x="606" y="869" type="qcurve"/>
      <point x="610" y="870"/>
      <point x="617" y="866" type="qcurve"/>
      <point x="644" y="851"/>
      <point x="672" y="830" type="qcurve"/>
      <point x="679" y="823"/>
      <point x="678" y="819" type="qcurve"/>
      <point x="677" y="814"/>
      <point x="670" y="813" type="qcurve"/>
      <point x="660" y="812"/>
      <point x="651" y="802" type="qcurve"/>
      <point x="643" y="792"/>
      <point x="634" y="755" type="qcurve"/>
      <point x="859" y="755" type="line"/>
      <point x="865" y="755"/>
      <point x="871" y="762" type="qcurve"/>
      <point x="907" y="803" type="line"/>
      <point x="914" y="810"/>
      <point x="921" y="803" type="qcurve"/>
      <point x="947" y="777"/>
      <point x="965" y="755" type="qcurve"/>
      <point x="976" y="741"/>
      <point x="969" y="731" type="qcurve"/>
      <point x="964" y="725"/>
      <point x="951" y="724" type="qcurve"/>
      <point x="627" y="724" type="line"/>
      <point x="616" y="680"/>
      <point x="607" y="631" type="qcurve"/>
      <point x="819" y="631" type="line"/>
      <point x="825" y="631"/>
      <point x="828" y="635" type="qcurve"/>
      <point x="846" y="663" type="line"/>
      <point x="853" y="671"/>
      <point x="860" y="664" type="qcurve"/>
      <point x="889" y="645"/>
      <point x="917" y="623" type="qcurve"/>
      <point x="923" y="617"/>
      <point x="922" y="611" type="qcurve"/>
      <point x="919" y="605"/>
      <point x="909" y="604" type="qcurve"/>
      <point x="897" y="602"/>
      <point x="891" y="592" type="qcurve"/>
      <point x="887" y="583"/>
      <point x="887" y="570" type="qcurve"/>
      <point x="887" y="482" type="line"/>
      <point x="887" y="450"/>
      <point x="893" y="395" type="qcurve"/>
      <point x="895" y="383"/>
      <point x="886" y="379" type="qcurve"/>
      <point x="851" y="359"/>
      <point x="844" y="359" type="qcurve"/>
      <point x="839" y="360"/>
      <point x="839" y="370" type="qcurve"/>
      <point x="839" y="408" type="line"/>
    </contour>
    <contour>
      <point x="439" y="439" type="line"/>
      <point x="537" y="439" type="line"/>
      <point x="537" y="600" type="line"/>
      <point x="439" y="600" type="line"/>
    </contour>
    <contour>
      <point x="582" y="439" type="line"/>
      <point x="685" y="439" type="line"/>
      <point x="685" y="600" type="line"/>
      <point x="582" y="600" type="line"/>
    </contour>
    <contour>
      <point x="730" y="439" type="line"/>
      <point x="839" y="439" type="line"/>
      <point x="839" y="600" type="line"/>
      <point x="730" y="600" type="line"/>
    </contour>
    <contour>
      <point x="877" y="319"/>
      <point x="883" y="326" type="qcurve"/>
      <point x="919" y="367" type="line"/>
      <point x="926" y="374"/>
      <point x="933" y="367" type="qcurve"/>
      <point x="959" y="341"/>
      <point x="977" y="319" type="qcurve"/>
      <point x="988" y="305"/>
      <point x="981" y="295" type="qcurve"/>
      <point x="976" y="289"/>
      <point x="963" y="288" type="qcurve"/>
      <point x="390" y="288" type="line"/>
      <point x="348" y="287"/>
      <point x="317" y="281" type="qcurve"/>
      <point x="309" y="278"/>
      <point x="306" y="287" type="qcurve"/>
      <point x="302" y="305"/>
      <point x="287" y="317" type="qcurve"/>
      <point x="280" y="324"/>
      <point x="283" y="328" type="qcurve"/>
      <point x="287" y="331"/>
      <point x="294" y="327" type="qcurve"/>
      <point x="332" y="319"/>
      <point x="378" y="319" type="qcurve"/>
      <point x="871" y="319" type="line"/>
    </contour>
    <contour>
      <point x="371" y="201"/>
      <point x="378" y="201" type="qcurve"/>
      <point x="386" y="202"/>
      <point x="387" y="192" type="qcurve"/>
      <point x="407" y="55"/>
      <point x="350" y="-8" type="qcurve"/>
      <point x="335" y="-24"/>
      <point x="320" y="-23" type="qcurve"/>
      <point x="306" y="-21"/>
      <point x="299" y="-14" type="qcurve"/>
      <point x="276" y="11"/>
      <point x="307" y="35" type="qcurve"/>
      <point x="364" y="86"/>
      <point x="370" y="191" type="qcurve"/>
    </contour>
    <contour>
      <point x="598" y="256"/>
      <point x="605" y="263" type="qcurve"/>
      <point x="613" y="271"/>
      <point x="623" y="259" type="qcurve"/>
      <point x="716" y="176"/>
      <point x="713" y="142" type="qcurve"/>
      <point x="709" y="117"/>
      <point x="693" y="107" type="qcurve"/>
      <point x="676" y="96"/>
      <point x="669" y="97" type="qcurve"/>
      <point x="663" y="98"/>
      <point x="660" y="120" type="qcurve"/>
      <point x="641" y="203"/>
      <point x="605" y="248" type="qcurve"/>
    </contour>
    <contour>
      <point x="830" y="220"/>
      <point x="837" y="227" type="qcurve"/>
      <point x="843" y="234"/>
      <point x="855" y="224" type="qcurve"/>
      <point x="987" y="110"/>
      <point x="984" y="59" type="qcurve"/>
      <point x="981" y="33"/>
      <point x="965" y="23" type="qcurve"/>
      <point x="948" y="11"/>
      <point x="942" y="12" type="qcurve"/>
      <point x="935" y="13"/>
      <point x="931" y="34" type="qcurve"/>
      <point x="902" y="140"/>
      <point x="838" y="212" type="qcurve"/>
    </contour>
    <contour>
      <point x="737" y="-16"/>
      <point x="753" y="0" type="qcurve"/>
      <point x="773" y="15"/>
      <point x="785" y="82" type="qcurve"/>
      <point x="789" y="106"/>
      <point x="793" y="131" type="qcurve"/>
      <point x="795" y="145"/>
      <point x="805" y="144" type="qcurve"/>
      <point x="816" y="143"/>
      <point x="815" y="130" type="qcurve"/>
      <point x="814" y="53"/>
      <point x="824" y="34" type="qcurve"/>
      <point x="831" y="17"/>
      <point x="840" y="13" type="qcurve"/>
      <point x="847" y="9"/>
      <point x="840" y="2" type="qcurve"/>
      <point x="782" y="-64"/>
      <point x="692" y="-64" type="qcurve"/>
      <point x="577" y="-64" type="line"/>
      <point x="524" y="-64"/>
      <point x="503" y="-40" type="qcurve"/>
      <point x="479" y="-15"/>
      <point x="479" y="28" type="qcurve"/>
      <point x="479" y="86" type="line"/>
      <point x="479" y="164"/>
      <point x="475" y="212" type="qcurve"/>
      <point x="474" y="228"/>
      <point x="484" y="225" type="qcurve"/>
      <point x="537" y="207"/>
      <point x="556" y="200" type="qcurve"/>
      <point x="569" y="192"/>
      <point x="553" y="183" type="qcurve"/>
      <point x="538" y="174"/>
      <point x="534" y="165" type="qcurve"/>
      <point x="527" y="147"/>
      <point x="527" y="86" type="qcurve"/>
      <point x="527" y="39" type="line"/>
      <point x="528" y="11"/>
      <point x="541" y="-2" type="qcurve"/>
      <point x="554" y="-16"/>
      <point x="578" y="-16" type="qcurve"/>
      <point x="708" y="-16" type="line"/>
    </contour>
    <contour>
      <point x="271" y="872"/>
      <point x="275" y="873" type="qcurve"/>
      <point x="283" y="873"/>
      <point x="334" y="816" type="qcurve"/>
      <point x="344" y="805"/>
      <point x="340" y="801" type="qcurve"/>
      <point x="337" y="796"/>
      <point x="331" y="799" type="qcurve"/>
      <point x="297" y="808"/>
      <point x="255" y="760" type="qcurve"/>
      <point x="193" y="695"/>
      <point x="73" y="608" type="qcurve"/>
      <point x="61" y="599"/>
      <point x="52" y="609" type="qcurve"/>
      <point x="44" y="620"/>
      <point x="59" y="630" type="qcurve"/>
      <point x="181" y="730"/>
      <point x="268" y="866" type="qcurve"/>
    </contour>
    <contour>
      <point x="263" y="488"/>
      <point x="275" y="481" type="qcurve"/>
      <point x="296" y="468"/>
      <point x="271" y="461" type="qcurve"/>
      <point x="257" y="456"/>
      <point x="254" y="449" type="qcurve"/>
      <point x="247" y="431"/>
      <point x="247" y="370" type="qcurve"/>
      <point x="247" y="151" type="line"/>
      <point x="247" y="33"/>
      <point x="251" y="-48" type="qcurve"/>
      <point x="249" y="-58"/>
      <point x="203" y="-85" type="qcurve"/>
      <point x="190" y="-92"/>
      <point x="191" y="-73" type="qcurve"/>
      <point x="198" y="60"/>
      <point x="199" y="151" type="qcurve"/>
      <point x="199" y="370" type="line"/>
      <point x="197" y="411"/>
      <point x="196" y="439" type="qcurve"/>
      <point x="141" y="374"/>
      <point x="65" y="295" type="qcurve"/>
      <point x="54" y="283"/>
      <point x="44" y="292" type="qcurve"/>
      <point x="35" y="302"/>
      <point x="48" y="315" type="qcurve"/>
      <point x="193" y="471"/>
      <point x="280" y="660" type="qcurve"/>
      <point x="282" y="667"/>
      <point x="285" y="668" type="qcurve"/>
      <point x="292" y="670"/>
      <point x="353" y="622" type="qcurve"/>
      <point x="365" y="611"/>
      <point x="362" y="607" type="qcurve"/>
      <point x="359" y="602"/>
      <point x="352" y="603" type="qcurve"/>
      <point x="335" y="607"/>
      <point x="319" y="595" type="qcurve"/>
      <point x="307" y="587"/>
      <point x="241" y="496" type="qcurve"/>
    </contour>
  </outline>
</glyph>
<glyph name="uni606D" format="2">
  <advance width="1024"/>
  <unicode hex="606D"/>
  <outline>
    <contour>
      <point x="643" y="450"/>
      <point x="653" y="435" type="qcurve"/>
      <point x="798" y="241"/>
      <point x="981" y="226" type="qcurve"/>
      <point x="987" y="225"/>
      <point x="987" y="218" type="qcurve"/>
      <point x="986" y="210"/>
      <point x="973" y="210" type="qcurve"/>
      <point x="957" y="211"/>
      <point x="938" y="202" type="qcurve"/>
      <point x="918" y="192"/>
      <point x="905" y="170" type="qcurve"/>
      <point x="902" y="164"/>
      <point x="890" y="171" type="qcurve"/>
      <point x="685" y="299"/>
      <point x="612" y="464" type="qcurve"/>
      <point x="411" y="464" type="line"/>
      <point x="302" y="270"/>
      <point x="62" y="114" type="qcurve"/>
      <point x="48" y="107"/>
      <point x="42" y="114" type="qcurve"/>
      <point x="33" y="127"/>
      <point x="45" y="134" type="qcurve"/>
      <point x="156" y="212"/>
      <point x="217" y="276" type="qcurve"/>
      <point x="303" y="370"/>
      <point x="352" y="464" type="qcurve"/>
      <point x="153" y="464" type="line"/>
      <point x="111" y="463"/>
      <point x="80" y="457" type="qcurve"/>
      <point x="71" y="454"/>
      <point x="70" y="463" type="qcurve"/>
      <point x="65" y="481"/>
      <point x="50" y="494" type="qcurve"/>
      <point x="42" y="501"/>
      <point x="46" y="505" type="qcurve"/>
      <point x="50" y="508"/>
      <point x="57" y="504" type="qcurve"/>
      <point x="95" y="495"/>
      <point x="141" y="495" type="qcurve"/>
      <point x="346" y="495" type="line"/>
      <point x="346" y="664" type="line"/>
      <point x="229" y="664" type="line"/>
      <point x="187" y="663"/>
      <point x="156" y="657" type="qcurve"/>
      <point x="147" y="654"/>
      <point x="146" y="663" type="qcurve"/>
      <point x="141" y="681"/>
      <point x="126" y="694" type="qcurve"/>
      <point x="118" y="701"/>
      <point x="122" y="705" type="qcurve"/>
      <point x="126" y="708"/>
      <point x="133" y="704" type="qcurve"/>
      <point x="171" y="695"/>
      <point x="217" y="695" type="qcurve"/>
      <point x="346" y="695" type="line"/>
      <point x="346" y="774" type="line"/>
      <point x="345" y="813"/>
      <point x="342" y="844" type="qcurve"/>
      <point x="341" y="860"/>
      <point x="351" y="857" type="qcurve"/>
      <point x="404" y="840"/>
      <point x="422" y="831" type="qcurve"/>
      <point x="436" y="822"/>
      <point x="420" y="815" type="qcurve"/>
      <point x="405" y="807"/>
      <point x="401" y="797" type="qcurve"/>
      <point x="394" y="784"/>
      <point x="394" y="774" type="qcurve"/>
      <point x="394" y="695" type="line"/>
      <point x="614" y="695" type="line"/>
      <point x="614" y="774" type="line"/>
      <point x="613" y="813"/>
      <point x="610" y="844" type="qcurve"/>
      <point x="609" y="860"/>
      <point x="619" y="857" type="qcurve"/>
      <point x="672" y="840"/>
      <point x="690" y="831" type="qcurve"/>
      <point x="704" y="822"/>
      <point x="688" y="815" type="qcurve"/>
      <point x="673" y="807"/>
      <point x="669" y="797" type="qcurve"/>
      <point x="662" y="784"/>
      <point x="662" y="774" type="qcurve"/>
      <point x="662" y="695" type="line"/>
      <point x="774" y="695" type="line"/>
      <point x="790" y="696"/>
      <point x="803" y="711" type="qcurve"/>
      <point x="827" y="746" type="line"/>
      <point x="835" y="755"/>
      <point x="842" y="746" type="qcurve"/>
      <point x="910" y="685"/>
      <point x="909" y="673" type="qcurve"/>
      <point x="907" y="665"/>
      <point x="894" y="664" type="qcurve"/>
      <point x="662" y="664" type="line"/>
      <point x="662" y="495" type="line"/>
      <point x="826" y="495" type="line"/>
      <point x="840" y="496"/>
      <point x="856" y="514" type="qcurve"/>
      <point x="882" y="551" type="line"/>
      <point x="889" y="560"/>
      <point x="898" y="551" type="qcurve"/>
      <point x="969" y="488"/>
      <point x="968" y="473" type="qcurve"/>
      <point x="966" y="465"/>
      <point x="953" y="464" type="qcurve"/>
      <point x="634" y="464" type="line"/>
    </contour>
    <contour>
      <point x="614" y="495" type="line"/>
      <point x="614" y="664" type="line"/>
      <point x="394" y="664" type="line"/>
      <point x="394" y="495" type="line"/>
    </contour>
    <contour>
      <point x="500" y="-9"/>
      <point x="484" y="-34" type="qcurve"/>
      <point x="459" y="-71"/>
      <point x="434" y="-84" type="qcurve"/>
      <point x="426" y="-91"/>
      <point x="422" y="-91" type="qcurve"/>
      <point x="419" y="-89"/>
      <point x="413" y="-70" type="qcurve"/>
      <point x="406" y="-41"/>
      <point x="396" y="-31" type="qcurve"/>
      <point x="386" y="-18"/>
      <point x="329" y="-9" type="qcurve"/>
      <point x="313" y="-7"/>
      <point x="314" y="6" type="qcurve"/>
      <point x="316" y="19"/>
      <point x="331" y="18" type="qcurve"/>
      <point x="421" y="3"/>
      <point x="439" y="10" type="qcurve"/>
      <point x="453" y="16"/>
      <point x="454" y="38" type="qcurve"/>
      <point x="454" y="246" type="line"/>
      <point x="453" y="326"/>
      <point x="450" y="375" type="qcurve"/>
      <point x="447" y="391"/>
      <point x="457" y="388" type="qcurve"/>
      <point x="514" y="368"/>
      <point x="533" y="358" type="qcurve"/>
      <point x="545" y="350"/>
      <point x="530" y="343" type="qcurve"/>
      <point x="512" y="335"/>
      <point x="508" y="326" type="qcurve"/>
      <point x="502" y="307"/>
      <point x="502" y="246" type="qcurve"/>
      <point x="502" y="28" type="line"/>
    </contour>
    <contour>
      <point x="298" y="210"/>
      <point x="305" y="209" type="qcurve"/>
      <point x="313" y="208"/>
      <point x="312" y="198" type="qcurve"/>
      <point x="311" y="61"/>
      <point x="242" y="6" type="qcurve"/>
      <point x="223" y="-7"/>
      <point x="210" y="-3" type="qcurve"/>
      <point x="196" y="0"/>
      <point x="190" y="9" type="qcurve"/>
      <point x="173" y="36"/>
      <point x="206" y="57" type="qcurve"/>
      <point x="271" y="93"/>
      <point x="296" y="201" type="qcurve"/>
    </contour>
    <contour>
      <point x="574" y="198"/>
      <point x="580" y="204" type="qcurve"/>
      <point x="586" y="208"/>
      <point x="596" y="199" type="qcurve"/>
      <point x="699" y="107"/>
      <point x="696" y="56" type="qcurve"/>
      <point x="694" y="36"/>
      <point x="675" y="11" type="qcurve"/>
      <point x="659" y="-10"/>
      <point x="647" y="-7" type="qcurve"/>
      <point x="638" y="-4"/>
      <point x="639" y="15" type="qcurve"/>
      <point x="636" y="98"/>
      <point x="579" y="191" type="qcurve"/>
    </contour>
    <contour>
      <point x="732" y="198"/>
      <point x="736" y="204" type="qcurve"/>
      <point x="742" y="208"/>
      <point x="752" y="201" type="qcurve"/>
      <point x="884" y="107"/>
      <point x="887" y="47" type="qcurve"/>
      <point x="887" y="27"/>
      <point x="871" y="-1" type="qcurve"/>
      <point x="858" y="-23"/>
      <point x="846" y="-22" type="qcurve"/>
      <point x="836" y="-21"/>
      <point x="835" y="-2" type="qcurve"/>
      <point x="817" y="98"/>
      <point x="736" y="191" type="qcurve"/>
    </contour>
  </outline>
</glyph>
<glyph name="uni6240" format="2">
  <advance width="1024"/>
  <unicode hex="6240"/>
  <outline>
    <contour>
      <point x="193" y="348" type="line"/>
      <point x="189" y="307"/>
      <point x="189" y="268" type="qcurve"/>
      <point x="187" y="69"/>
      <point x="66" y="-78" type="qcurve"/>
      <point x="53" y="-89"/>
      <point x="46" y="-79" type="qcurve"/>
      <point x="38" y="-68"/>
      <point x="48" y="-61" type="qcurve"/>
      <point x="75" y="-17"/>
      <point x="94" y="23" type="qcurve"/>
      <point x="150" y="155"/>
      <point x="150" y="542" type="qcurve"/>
      <point x="150" y="711" type="line"/>
      <point x="149" y="749"/>
      <point x="140" y="789" type="qcurve"/>
      <point x="139" y="797"/>
      <point x="143" y="800" type="qcurve"/>
      <point x="148" y="801"/>
      <point x="155" y="794" type="qcurve"/>
      <point x="171" y="778"/>
      <point x="199" y="762" type="qcurve"/>
      <point x="372" y="819"/>
      <point x="438" y="861" type="qcurve"/>
      <point x="449" y="869"/>
      <point x="453" y="862" type="qcurve"/>
      <point x="475" y="831"/>
      <point x="503" y="807" type="qcurve"/>
      <point x="512" y="798"/>
      <point x="509" y="794" type="qcurve"/>
      <point x="506" y="789"/>
      <point x="493" y="792" type="qcurve"/>
      <point x="453" y="797"/>
      <point x="363" y="773" type="qcurve"/>
      <point x="276" y="750"/>
      <point x="198" y="740" type="qcurve"/>
      <point x="198" y="599" type="line"/>
      <point x="363" y="599" type="line"/>
      <point x="371" y="598"/>
      <point x="374" y="601" type="qcurve"/>
      <point x="392" y="623" type="line"/>
      <point x="400" y="635"/>
      <point x="409" y="626" type="qcurve"/>
      <point x="430" y="608"/>
      <point x="449" y="587" type="qcurve"/>
      <point x="455" y="580"/>
      <point x="454" y="576" type="qcurve"/>
      <point x="453" y="571"/>
      <point x="443" y="570" type="qcurve"/>
      <point x="435" y="569"/>
      <point x="432" y="563" type="qcurve"/>
      <point x="429" y="556"/>
      <point x="429" y="552" type="qcurve"/>
      <point x="429" y="344" type="line"/>
      <point x="429" y="333"/>
      <point x="433" y="312" type="qcurve"/>
      <point x="434" y="303"/>
      <point x="430" y="300" type="qcurve"/>
      <point x="394" y="281"/>
      <point x="387" y="281" type="qcurve"/>
      <point x="380" y="281"/>
      <point x="381" y="291" type="qcurve"/>
      <point x="381" y="348" type="line"/>
    </contour>
    <contour>
      <point x="197" y="464"/>
      <point x="194" y="379" type="qcurve"/>
      <point x="381" y="379" type="line"/>
      <point x="381" y="568" type="line"/>
      <point x="197" y="568" type="line"/>
    </contour>
    <contour>
      <point x="825" y="151" type="line"/>
      <point x="825" y="33"/>
      <point x="829" y="-46" type="qcurve"/>
      <point x="828" y="-55"/>
      <point x="783" y="-85" type="qcurve"/>
      <point x="769" y="-94"/>
      <point x="770" y="-73" type="qcurve"/>
      <point x="777" y="60"/>
      <point x="777" y="151" type="qcurve"/>
      <point x="777" y="492" type="line"/>
      <point x="592" y="492" type="line"/>
      <point x="588" y="355"/>
      <point x="570" y="255" type="qcurve"/>
      <point x="551" y="142"/>
      <point x="481" y="70" type="qcurve"/>
      <point x="402" y="-12"/>
      <point x="254" y="-79" type="qcurve"/>
      <point x="238" y="-86"/>
      <point x="234" y="-74" type="qcurve"/>
      <point x="231" y="-62"/>
      <point x="241" y="-58" type="qcurve"/>
      <point x="364" y="6"/>
      <point x="427" y="67" type="qcurve"/>
      <point x="496" y="137"/>
      <point x="521" y="249" type="qcurve"/>
      <point x="546" y="358"/>
      <point x="546" y="542" type="qcurve"/>
      <point x="546" y="711" type="line"/>
      <point x="545" y="749"/>
      <point x="536" y="789" type="qcurve"/>
      <point x="535" y="797"/>
      <point x="539" y="800" type="qcurve"/>
      <point x="544" y="801"/>
      <point x="551" y="794" type="qcurve"/>
      <point x="567" y="778"/>
      <point x="595" y="762" type="qcurve"/>
      <point x="801" y="815"/>
      <point x="891" y="863" type="qcurve"/>
      <point x="903" y="870"/>
      <point x="907" y="863" type="qcurve"/>
      <point x="926" y="831"/>
      <point x="954" y="806" type="qcurve"/>
      <point x="962" y="798"/>
      <point x="959" y="792" type="qcurve"/>
      <point x="956" y="788"/>
      <point x="943" y="791" type="qcurve"/>
      <point x="899" y="799"/>
      <point x="794" y="774" type="qcurve"/>
      <point x="688" y="749"/>
      <point x="594" y="739" type="qcurve"/>
      <point x="594" y="587" type="line"/>
      <point x="594" y="554"/>
      <point x="593" y="523" type="qcurve"/>
      <point x="841" y="523" type="line"/>
      <point x="855" y="525" type="line"/>
      <point x="867" y="537" type="line"/>
      <point x="897" y="579" type="line"/>
      <point x="904" y="588"/>
      <point x="913" y="579" type="qcurve"/>
      <point x="984" y="516"/>
      <point x="983" y="501" type="qcurve"/>
      <point x="981" y="493"/>
      <point x="968" y="492" type="qcurve"/>
      <point x="825" y="492" type="line"/>
    </contour>
  </outline>
</glyph>
<glyph name="uni660E" format="2">
  <advance width="1024"/>
  <unicode hex="660E"/>
  <outline>
    <contour>
      <point x="157" y="264" type="line"/>
      <point x="157" y="218"/>
      <point x="158" y="179" type="qcurve"/>
      <point x="157" y="164"/>
      <point x="120" y="139" type="qcurve"/>
      <point x="112" y="135"/>
      <point x="108" y="135" type="qcurve"/>
      <point x="102" y="136"/>
      <point x="103" y="155" type="qcurve"/>
      <point x="107" y="255"/>
      <point x="110" y="361" type="qcurve"/>
      <point x="110" y="709" type="line"/>
      <point x="109" y="741"/>
      <point x="103" y="787" type="qcurve"/>
      <point x="101" y="797"/>
      <point x="104" y="798" type="qcurve"/>
      <point x="105" y="798"/>
      <point x="144" y="767" type="qcurve"/>
      <point x="327" y="767" type="line"/>
      <point x="339" y="767"/>
      <point x="346" y="774" type="qcurve"/>
      <point x="371" y="800" type="line"/>
      <point x="376" y="807"/>
      <point x="385" y="801" type="qcurve"/>
      <point x="416" y="778"/>
      <point x="438" y="759" type="qcurve"/>
      <point x="445" y="751"/>
      <point x="436" y="750" type="qcurve"/>
      <point x="419" y="747"/>
      <point x="410" y="738" type="qcurve"/>
      <point x="402" y="729"/>
      <point x="402" y="719" type="qcurve"/>
      <point x="402" y="391" type="line"/>
      <point x="403" y="323"/>
      <point x="410" y="224" type="qcurve"/>
      <point x="410" y="211"/>
      <point x="400" y="205" type="qcurve"/>
      <point x="355" y="179"/>
      <point x="351" y="180" type="qcurve"/>
      <point x="347" y="182"/>
      <point x="348" y="198" type="qcurve"/>
      <point x="350" y="227"/>
      <point x="351" y="264" type="qcurve"/>
    </contour>
    <contour>
      <point x="157" y="326"/>
      <point x="157" y="295" type="qcurve"/>
      <point x="352" y="295" type="line"/>
      <point x="353" y="326"/>
      <point x="354" y="362" type="qcurve"/>
      <point x="354" y="508" type="line"/>
      <point x="158" y="508" type="line"/>
      <point x="158" y="361" type="line"/>
    </contour>
    <contour>
      <point x="158" y="539" type="line"/>
      <point x="354" y="539" type="line"/>
      <point x="354" y="736" type="line"/>
      <point x="158" y="736" type="line"/>
    </contour>
    <contour>
      <point x="585" y="292" type="line"/>
      <point x="581" y="256"/>
      <point x="575" y="225" type="qcurve"/>
      <point x="555" y="119"/>
      <point x="485" y="52" type="qcurve"/>
      <point x="403" y="-26"/>
      <point x="255" y="-87" type="qcurve"/>
      <point x="239" y="-94"/>
      <point x="235" y="-82" type="qcurve"/>
      <point x="232" y="-70"/>
      <point x="242" y="-66" type="qcurve"/>
      <point x="367" y="-8"/>
      <point x="430" y="49" type="qcurve"/>
      <point x="499" y="114"/>
      <point x="526" y="219" type="qcurve"/>
      <point x="551" y="319"/>
      <point x="551" y="490" type="qcurve"/>
      <point x="551" y="751" type="line"/>
      <point x="550" y="789"/>
      <point x="541" y="829" type="qcurve"/>
      <point x="540" y="837"/>
      <point x="544" y="840" type="qcurve"/>
      <point x="549" y="841"/>
      <point x="556" y="834" type="qcurve"/>
      <point x="570" y="820"/>
      <point x="592" y="807" type="qcurve"/>
      <point x="817" y="807" type="line"/>
      <point x="826" y="807"/>
      <point x="827" y="808" type="qcurve"/>
      <point x="852" y="841" type="line"/>
      <point x="854" y="845"/>
      <point x="858" y="845" type="qcurve"/>
      <point x="862" y="845"/>
      <point x="866" y="841" type="qcurve"/>
      <point x="897" y="816"/>
      <point x="921" y="791" type="qcurve"/>
      <point x="928" y="783"/>
      <point x="912" y="777" type="qcurve"/>
      <point x="888" y="767"/>
      <point x="885" y="763" type="qcurve"/>
      <point x="882" y="757"/>
      <point x="882" y="750" type="qcurve"/>
      <point x="882" y="14" type="line"/>
      <point x="882" y="-20"/>
      <point x="864" y="-45" type="qcurve"/>
      <point x="846" y="-70"/>
      <point x="819" y="-80" type="qcurve"/>
      <point x="810" y="-84"/>
      <point x="806" y="-75" type="qcurve"/>
      <point x="797" y="-54"/>
      <point x="775" y="-38" type="qcurve"/>
      <point x="753" y="-22"/>
      <point x="704" y="-18" type="qcurve"/>
      <point x="692" y="-16"/>
      <point x="693" y="-6" type="qcurve"/>
      <point x="694" y="3"/>
      <point x="707" y="2" type="qcurve"/>
      <point x="821" y="-3"/>
      <point x="827" y="0" type="qcurve"/>
      <point x="834" y="4"/>
      <point x="834" y="25" type="qcurve"/>
      <point x="834" y="292" type="line"/>
    </contour>
    <contour>
      <point x="599" y="417"/>
      <point x="589" y="323" type="qcurve"/>
      <point x="834" y="323" type="line"/>
      <point x="834" y="540" type="line"/>
      <point x="599" y="540" type="line"/>
      <point x="599" y="535" type="line"/>
    </contour>
    <contour>
      <point x="599" y="571" type="line"/>
      <point x="834" y="571" type="line"/>
      <point x="834" y="776" type="line"/>
      <point x="599" y="776" type="line"/>
    </contour>
  </outline>
</glyph>
<glyph name="uni66F8" format="2">
  <advance width="1024"/>
  <unicode hex="66F8"/>
  <outline>
    <contour>
      <point x="119" y="300"/>
      <point x="85" y="293" type="qcurve"/>
      <point x="80" y="292"/>
      <point x="79" y="295" type="qcurve"/>
      <point x="66" y="315"/>
      <point x="56" y="331" type="qcurve"/>
      <point x="50" y="341"/>
      <point x="63" y="338" type="qcurve"/>
      <point x="124" y="332"/>
      <point x="131" y="331" type="qcurve"/>
      <point x="476" y="331" type="line"/>
      <point x="476" y="408" type="line"/>
      <point x="214" y="408" type="line"/>
      <point x="187" y="408"/>
      <point x="153" y="401" type="qcurve"/>
      <point x="148" y="400"/>
      <point x="147" y="403" type="qcurve"/>
      <point x="134" y="423"/>
      <point x="124" y="439" type="qcurve"/>
      <point x="118" y="449"/>
      <point x="131" y="446" type="qcurve"/>
      <point x="192" y="440"/>
      <point x="199" y="439" type="qcurve"/>
      <point x="476" y="439" type="line"/>
      <point x="476" y="520" type="line"/>
      <point x="282" y="520" type="line"/>
      <point x="255" y="520"/>
      <point x="221" y="513" type="qcurve"/>
      <point x="216" y="512"/>
      <point x="215" y="515" type="qcurve"/>
      <point x="202" y="534"/>
      <point x="192" y="550" type="qcurve"/>
      <point x="186" y="560"/>
      <point x="199" y="557" type="qcurve"/>
      <point x="260" y="552"/>
      <point x="267" y="551" type="qcurve"/>
      <point x="476" y="551" type="line"/>
      <point x="476" y="624" type="line"/>
      <point x="146" y="624" type="line"/>
      <point x="119" y="624"/>
      <point x="85" y="617" type="qcurve"/>
      <point x="80" y="616"/>
      <point x="79" y="619" type="qcurve"/>
      <point x="66" y="639"/>
      <point x="56" y="655" type="qcurve"/>
      <point x="50" y="665"/>
      <point x="63" y="662" type="qcurve"/>
      <point x="124" y="656"/>
      <point x="131" y="655" type="qcurve"/>
      <point x="476" y="655" type="line"/>
      <point x="476" y="736" type="line"/>
      <point x="286" y="736" type="line"/>
      <point x="259" y="736"/>
      <point x="225" y="729" type="qcurve"/>
      <point x="220" y="728"/>
      <point x="219" y="731" type="qcurve"/>
      <point x="206" y="750"/>
      <point x="196" y="766" type="qcurve"/>
      <point x="190" y="776"/>
      <point x="203" y="773" type="qcurve"/>
      <point x="264" y="768"/>
      <point x="271" y="767" type="qcurve"/>
      <point x="476" y="767" type="line"/>
      <point x="476" y="774" type="line"/>
      <point x="475" y="813"/>
      <point x="472" y="844" type="qcurve"/>
      <point x="471" y="860"/>
      <point x="481" y="857" type="qcurve"/>
      <point x="535" y="840"/>
      <point x="557" y="828" type="qcurve"/>
      <point x="566" y="823"/>
      <point x="557" y="817" type="qcurve"/>
      <point x="535" y="801"/>
      <point x="531" y="797" type="qcurve"/>
      <point x="524" y="790"/>
      <point x="524" y="774" type="qcurve"/>
      <point x="524" y="767" type="line"/>
      <point x="720" y="767" type="line"/>
      <point x="726" y="767"/>
      <point x="729" y="771" type="qcurve"/>
      <point x="747" y="799" type="line"/>
      <point x="754" y="807"/>
      <point x="761" y="800" type="qcurve"/>
      <point x="790" y="781"/>
      <point x="818" y="759" type="qcurve"/>
      <point x="827" y="751"/>
      <point x="826" y="747" type="qcurve"/>
      <point x="824" y="742"/>
      <point x="817" y="738" type="qcurve"/>
      <point x="791" y="726"/>
      <point x="790" y="719" type="qcurve"/>
      <point x="788" y="713"/>
      <point x="788" y="706" type="qcurve"/>
      <point x="788" y="655" type="line"/>
      <point x="836" y="655" type="line"/>
      <point x="848" y="655"/>
      <point x="852" y="658" type="qcurve"/>
      <point x="858" y="662"/>
      <point x="865" y="671" type="qcurve"/>
      <point x="889" y="706" type="line"/>
      <point x="897" y="715"/>
      <point x="904" y="706" type="qcurve"/>
      <point x="933" y="680"/>
      <point x="961" y="652" type="qcurve"/>
      <point x="972" y="640"/>
      <point x="971" y="633" type="qcurve"/>
      <point x="969" y="625"/>
      <point x="956" y="624" type="qcurve"/>
      <point x="788" y="624" type="line"/>
      <point x="788" y="606" type="line"/>
      <point x="788" y="570"/>
      <point x="794" y="509" type="qcurve"/>
      <point x="795" y="498"/>
      <point x="789" y="497" type="qcurve"/>
      <point x="746" y="482"/>
      <point x="742" y="483" type="qcurve"/>
      <point x="740" y="484"/>
      <point x="740" y="494" type="qcurve"/>
      <point x="740" y="520" type="line"/>
      <point x="524" y="520" type="line"/>
      <point x="524" y="439" type="line"/>
      <point x="752" y="439" type="line"/>
      <point x="764" y="439"/>
      <point x="768" y="442" type="qcurve"/>
      <point x="774" y="446"/>
      <point x="781" y="455" type="qcurve"/>
      <point x="805" y="490" type="line"/>
      <point x="813" y="499"/>
      <point x="820" y="490" type="qcurve"/>
      <point x="849" y="464"/>
      <point x="877" y="436" type="qcurve"/>
      <point x="888" y="424"/>
      <point x="887" y="417" type="qcurve"/>
      <point x="885" y="409"/>
      <point x="872" y="408" type="qcurve"/>
      <point x="524" y="408" type="line"/>
      <point x="524" y="331" type="line"/>
      <point x="820" y="331" type="line"/>
      <point x="832" y="331"/>
      <point x="836" y="335" type="qcurve"/>
      <point x="841" y="340"/>
      <point x="850" y="350" type="qcurve"/>
      <point x="876" y="387" type="line"/>
      <point x="883" y="396"/>
      <point x="892" y="387" type="qcurve"/>
      <point x="923" y="359"/>
      <point x="953" y="328" type="qcurve"/>
      <point x="963" y="318"/>
      <point x="962" y="309" type="qcurve"/>
      <point x="960" y="301"/>
      <point x="947" y="300" type="qcurve"/>
      <point x="146" y="300" type="line"/>
    </contour>
    <contour>
      <point x="524" y="736" type="line"/>
      <point x="524" y="655" type="line"/>
      <point x="740" y="655" type="line"/>
      <point x="740" y="736" type="line"/>
    </contour>
    <contour>
      <point x="524" y="624" type="line"/>
      <point x="524" y="551" type="line"/>
      <point x="740" y="551" type="line"/>
      <point x="740" y="624" type="line"/>
    </contour>
    <contour>
      <point x="726" y="231"/>
      <point x="729" y="235" type="qcurve"/>
      <point x="747" y="263" type="line"/>
      <point x="754" y="271"/>
      <point x="761" y="264" type="qcurve"/>
      <point x="790" y="245"/>
      <point x="818" y="223" type="qcurve"/>
      <point x="827" y="215"/>
      <point x="826" y="211" type="qcurve"/>
      <point x="824" y="206"/>
      <point x="817" y="202" type="qcurve"/>
      <point x="791" y="190"/>
      <point x="790" y="183" type="qcurve"/>
      <point x="788" y="177"/>
      <point x="788" y="170" type="qcurve"/>
      <point x="788" y="34" type="line"/>
      <point x="788" y="-2"/>
      <point x="794" y="-63" type="qcurve"/>
      <point x="795" y="-74"/>
      <point x="789" y="-75" type="qcurve"/>
      <point x="746" y="-90"/>
      <point x="742" y="-89" type="qcurve"/>
      <point x="740" y="-88"/>
      <point x="740" y="-78" type="qcurve"/>
      <point x="740" y="-20" type="line"/>
      <point x="280" y="-20" type="line"/>
      <point x="280" y="-63" type="line"/>
      <point x="280" y="-71"/>
      <point x="274" y="-72" type="qcurve"/>
      <point x="254" y="-80"/>
      <point x="235" y="-89" type="qcurve"/>
      <point x="226" y="-92"/>
      <point x="227" y="-77" type="qcurve"/>
      <point x="231" y="-14"/>
      <point x="232" y="133" type="qcurve"/>
      <point x="232" y="169" type="line"/>
      <point x="231" y="205"/>
      <point x="227" y="251" type="qcurve"/>
      <point x="225" y="263"/>
      <point x="229" y="264" type="qcurve"/>
      <point x="232" y="265"/>
      <point x="239" y="258" type="qcurve"/>
      <point x="249" y="246"/>
      <point x="270" y="231" type="qcurve"/>
      <point x="720" y="231" type="line"/>
    </contour>
    <contour>
      <point x="280" y="92" type="line"/>
      <point x="280" y="11" type="line"/>
      <point x="740" y="11" type="line"/>
      <point x="740" y="92" type="line"/>
    </contour>
    <contour>
      <point x="280" y="200" type="line"/>
      <point x="280" y="123" type="line"/>
      <point x="740" y="123" type="line"/>
      <point x="740" y="200" type="line"/>
    </contour>
  </outline>
</glyph>
